<?xml version="1.0" encoding="utf-8"?>
<!-- Generator: Adobe Illustrator 13.0.0, SVG Export Plug-In . SVG Version: 6.00 Build 14948)  -->
<!DOCTYPE svg PUBLIC "-//W3C//DTD SVG 1.1//EN" "http://www.w3.org/Graphics/SVG/1.1/DTD/svg11.dtd">
<svg version="1.1" id="Layer_1" xmlns="http://www.w3.org/2000/svg" xmlns:xlink="http://www.w3.org/1999/xlink" x="0px" y="0px"
	 width="750.079px" height="553.074px" viewBox="0 0 750.079 553.074" enable-background="new 0 0 750.079 553.074"
	 xml:space="preserve">
<symbol  id="Access_Control" viewBox="-20.768 -20.839 41.535 41.679">
	<path fill="#00ABEC" d="M20.768-3.989L0.192,20.394v0.318l-0.128-0.127l-0.257,0.255v-0.574L-20.768-3.924l20.703-16.725v-0.19
		L20.768-3.989L20.768-3.989z M-2.57-12.542v10.404C-4.5-1.117-5.786,0.925-5.786,3.35c0,3.384,2.571,6.128,5.786,6.064
		c3.215,0,5.786-2.745,5.786-6.128c0.065-2.36-1.286-4.403-3.15-5.424v-2.043L2.508-4.372L0.58-6.414l2.057-2.171v-0.127
		l-1.864-1.979l1.8-1.914L0-15.223L-2.57-12.542L-2.57-12.542z"/>
	<path fill="#00ABEC" d="M2.187,5.011c0,1.021-1.222,1.787-2.186,1.853c-0.964-0.064-2.058-0.768-2.058-1.788
		c0-1.021,1.029-2.106,2.058-2.106C0.964,2.968,2.187,3.926,2.187,5.011"/>
</symbol>
<symbol  id="Backup_Service" viewBox="-23.9 -20.881 47.801 41.762">
	<path fill="#00BCF2" d="M19.047,9.365c0,0.347,0.049,0.741,0.049,1.087c0,5.732-4.755,10.429-10.551,10.429
		c-3.418,0-6.588-1.681-8.52-4.349c-1.289,0.74-2.725,1.186-4.211,1.186c-4.161,0-7.579-3.112-7.926-7.166
		c0.644,0.1,1.238,0.197,1.932,0.197c3.022,0,5.994-1.037,8.371-2.768c1.783,4.151,6.341,6.771,11.393,6.92v3.558l6.193-5.288
		L9.584,7.933v3.459c-2.873-0.147-5.696-1.186-7.331-3.854l0.347,0.051c5.895,0,10.749-4.398,11.443-10.033
		c1.387-1.038,2.525-2.322,3.318-3.757c3.814,0.989,6.539,4.3,6.539,8.304C23.901,5.362,22.167,7.933,19.047,9.365L19.047,9.365z"/>
	<path fill="#00BCF2" d="M12.162-4.473v0.643c0,4.349-3.566,7.858-7.926,7.858c-1.535,0-2.972-0.396-4.21-1.188
		c-1.932,2.719-5.102,4.35-8.57,4.35c-5.795,0-10.551-4.646-10.551-10.379c0-0.396,0.05-0.741,0.099-1.088
		c-3.121-1.481-4.904-4.397-4.904-7.61c0-4.894,4.012-8.994,9.115-8.994H7.653c5.103,0,9.065,4.102,9.065,8.994
		C16.72-8.772,15.133-5.955,12.162-4.473L12.162-4.473z M-4.979-16.928c-4.507,0-8.173,3.656-8.173,8.154
		c0,4.548,3.666,8.204,8.173,8.204c4.558,0,8.224-3.656,8.224-8.204C3.246-13.271-0.42-16.928-4.979-16.928L-4.979-16.928z"/>
	<path fill="#00BCF2" d="M-4.234-15.148c0,0.348-0.297,0.644-0.693,0.644c-0.347,0-0.644-0.296-0.644-0.644
		c0-0.346,0.297-0.643,0.644-0.643C-4.532-15.791-4.234-15.494-4.234-15.148"/>
	<path fill="#00BCF2" d="M-4.234-2.249c0,0.346-0.297,0.643-0.693,0.643c-0.347,0-0.644-0.297-0.644-0.643
		c0-0.396,0.297-0.643,0.644-0.643C-4.532-2.892-4.234-2.645-4.234-2.249"/>
	<path fill="#00BCF2" d="M-10.725-8.724c0,0.396-0.297,0.691-0.644,0.691c-0.347,0-0.644-0.297-0.644-0.691
		c0-0.347,0.297-0.643,0.644-0.643C-11.021-9.365-10.725-9.069-10.725-8.724"/>
	<path fill="#00BCF2" d="M-4.085-8.772v3.51c0,0.396-0.596,0.74-0.991,0.74c-0.396,0-0.991-0.346-0.991-0.74v-4.054l2.725-2.618
		c0.148-0.148,0.743-0.445,1.041-0.298c0.197,0.1,0.247,0.1,0.396,0.247c0.298,0.247,0.298,0.644,0,0.939L-4.085-8.772L-4.085-8.772
		z"/>
	<path fill="#00BCF2" d="M2.205-8.724c0,0.396-0.297,0.691-0.644,0.691c-0.396,0-0.693-0.297-0.693-0.691
		c0-0.347,0.297-0.643,0.693-0.643C1.908-9.365,2.205-9.069,2.205-8.724"/>
</symbol>
<symbol  id="BitBucket" viewBox="-17.781 -20.263 35.563 40.525">
	<path fill="#00ABEC" d="M2.876,0.631c0,1.542-1.277,2.805-2.839,2.805s-2.839-1.263-2.839-2.805s1.277-2.732,2.839-2.732
		S2.876-0.911,2.876,0.631"/>
	<path fill="#00ABEC" d="M0.037,20.263c-9.796,0-17.818-2.594-17.818-5.75L-14.8-2.665c0-3.436,6.602-6.17,14.836-6.17
		c8.164,0,14.836,2.734,14.836,6.17l2.91,17.178C17.783,17.669,9.833,20.263,0.037,20.263L0.037,20.263z M0.037-4.907
		c-3.124,0-5.608,2.523-5.608,5.608s2.484,5.538,5.608,5.538s5.679-2.453,5.679-5.538S3.16-4.907,0.037-4.907L0.037-4.907z
		 M0.037,12.55c-6.318,0-11.358,1.052-11.358,2.385c0,1.332,5.04,2.453,11.358,2.453c6.247,0,11.358-1.121,11.358-2.453
		C11.395,13.602,6.283,12.55,0.037,12.55L0.037,12.55z"/>
	<path fill="#00ABEC" d="M-11.889-8.765c-0.213,0.211-0.426,0.352-0.639,0.561c0,0-0.071,0-0.142,0
		c-0.426,0-0.709-0.279-0.781-0.631l0.142-0.701l1.207-5.889c0-2.383,5.395-4.838,12.139-4.838c6.672,0,12.139,2.455,12.139,4.838
		l1.206,5.889l0.143,0.701c-0.071,0.352-0.426,0.631-0.781,0.631c-0.071,0-0.142,0-0.213,0c-0.142-0.209-0.354-0.35-0.567-0.561
		c-2.272-1.683-6.744-2.873-11.926-2.873S-9.618-10.446-11.889-8.765L-11.889-8.765z"/>
</symbol>
<symbol  id="BizTalk_Services" viewBox="-20.558 -19.771 41.115 39.543">
	<path fill="#00BCF2" d="M3.792,0.96c0,2.016-1.642,3.695-3.67,3.695c-1.981,0-3.673-1.681-3.673-3.695s1.644-3.646,3.673-3.646
		C2.149-2.687,3.792-1.056,3.792,0.96"/>
	<path fill="#00BCF2" d="M14.905,7.343c0.241,0.815,0.338,1.631,0.338,2.543c0,5.422-4.349,9.886-9.711,9.886
		c-4.011,0-7.489-2.544-8.938-6.095c-1.256,1.535-3.141,2.495-5.219,2.495c-3.767,0-6.86-3.167-6.86-7.006
		c0-0.672,0.097-1.344,0.241-1.919c-3.092-1.2-5.314-3.888-5.314-7.438c0-4.559,3.672-8.062,8.117-8.062h11.692v3.455
		c-1.45,0.239-2.754,0.959-3.624,2.111l-3.141-1.824l1.256-2.111l-4.977,0.96l1.644,4.847l1.255-2.207l3.044,1.775
		C-5.533-0.575-5.726,0.192-5.726,0.96s0.145,1.488,0.435,2.111c-0.049,0-3.188,1.823-3.188,1.823l-1.305-2.208l-1.595,4.896
		L-6.5,8.397l-1.159-2.016l3.141-1.823C-3.6,5.71-2.294,6.526-0.75,6.718v3.6h-2.27l3.141,3.791l3.236-3.791H0.895V6.719
		C2.488,6.526,3.792,5.711,4.71,4.56l3.189,1.823L6.644,8.542l4.929-1.008L9.397,2.735L8.722,4.942L5.581,3.12
		c0.241-0.672,0.387-1.394,0.387-2.16S5.821-0.479,5.581-1.151L8.77-2.975l1.353,2.398l1.498-5.087L6.596-6.766l1.353,2.304
		L4.759-2.591c-0.918-1.2-2.271-2.017-3.817-2.207v-3.455H12.49c4.445,0,8.068,3.503,8.068,8.062
		C20.559,3.503,18.19,6.286,14.905,7.343L14.905,7.343z"/>
	<path fill="#00BCF2" d="M0.941-13.436v5.229H-0.75v-5.229c-1.401-0.385-2.368-1.633-2.368-3.119c0-1.776,1.45-3.217,3.238-3.217
		c1.787,0,3.236,1.439,3.236,3.217C3.357-15.067,2.344-13.771,0.941-13.436L0.941-13.436z"/>
</symbol>
<symbol  id="CodePlex_Source_Code" viewBox="-21.441 -16.136 42.883 32.272">
	<polygon fill="#00ABEC" points="21.441,-16.135 2.832,-16.135 13.517,-5.471 13.517,5.333 2.832,16.067 21.441,16.067 
		21.441,-16.135 	"/>
	<path fill="#00ABEC" d="M-5.307-5.471c-2.972,0-5.378,2.399-5.378,5.365v0.143c0,2.966,2.406,5.367,5.378,5.367h5.378v10.732h-5.52
		c-8.845,0-15.993-7.132-15.993-15.889v-0.494c0-8.757,7.147-15.89,15.993-15.89h5.52v10.664L-5.307-5.471L-5.307-5.471z"/>
</symbol>
<symbol  id="Content_Delivery_Network__x28_CDN_x29_" viewBox="-23.653 -15.987 47.307 31.975">
	<path fill="#00ABEC" d="M17.151,2.174c0.258,0.896,0.387,1.854,0.387,2.813c0,3.772-1.865,7.1-4.762,9.146L8.271,6.587
		c-0.193-0.32-0.064-0.576,0.322-0.576l5.791,0.064c0.322,0,0.387-0.191,0.193-0.447L-0.418-11.319
		c-0.192-0.256-0.321-0.191-0.192,0.063L4.151,0.255c0.064,0.256-0.064,0.512-0.387,0.512h-4.633c-0.322,0-0.451,0.257-0.387,0.576
		L4.28,15.987c-3.733-0.703-6.758-3.263-8.174-6.65c-1.481,1.662-3.605,2.75-6.051,2.75c-4.376,0-7.852-3.518-7.852-7.866
		c0-0.768,0.064-1.472,0.258-2.175c-3.54-1.279-6.115-4.731-6.115-8.761c0-5.116,4.184-9.272,9.333-9.272h28.704
		c5.15,0,9.27,4.156,9.27,9.272C23.653-2.559,20.951,0.959,17.151,2.174L17.151,2.174z"/>
</symbol>
<symbol  id="DropBox" viewBox="-22.892 -21.229 45.784 42.457">
	<polygon fill="#00ABEC" points="0.035,13.356 -13.58,5.062 -22.892,12.442 -9.347,21.229 	"/>
	<polygon fill="#00ABEC" points="0.035,-3.304 -13.58,5.062 -22.892,-2.39 -9.347,-11.106 	"/>
	<polygon fill="#00ABEC" points="-0.035,13.356 13.65,5.062 22.892,12.442 9.417,21.229 	"/>
	<polygon fill="#00ABEC" points="-0.035,-3.304 13.65,5.062 22.892,-2.39 9.417,-11.106 	"/>
	<polygon fill="#00ABEC" points="9.417,-12.724 -0.035,-4.991 -9.417,-12.724 -13.438,-10.122 -13.438,-13.216 -0.035,-21.229 
		13.438,-13.216 13.438,-10.122 	"/>
</symbol>
<symbol  id="Git_Repository" viewBox="-22.839 -22.627 45.678 45.254">
	<path fill="#00ABEC" d="M22.045,1.991L2.011,21.841c-1.129,1.048-2.893,1.048-4.021,0l-4.303-4.264l5.149-5.103
		c0.423,0.14,0.847,0.209,1.27,0.209c1.905,0,3.457-1.536,3.457-3.424c0-0.49-0.07-0.909-0.212-1.259l5.08-5.032
		C8.783,3.11,9.276,3.249,9.7,3.249c1.904,0,3.456-1.607,3.456-3.494S11.604-3.669,9.7-3.669c-1.976,0-3.527,1.537-3.527,3.424
		c0,0.42,0.141,0.908,0.282,1.258L1.658,5.766V-6.604c1.129-0.56,1.904-1.748,1.904-3.076c0-1.888-1.552-3.424-3.457-3.424
		c-1.904,0-3.456,1.536-3.456,3.424c0,1.469,0.917,2.727,2.257,3.215V6.046c-1.34,0.488-2.257,1.746-2.257,3.215
		c0,0.419,0.07,0.838,0.211,1.258l-5.15,5.103l-13.755-13.63c-1.059-1.117-1.059-2.865,0-3.982l20.035-19.85
		c1.128-1.049,2.892-1.049,4.021,0l20.034,19.85C23.104-0.874,23.104,0.874,22.045,1.991L22.045,1.991z"/>
</symbol>
<symbol  id="GitHub_code" viewBox="-21.544 -21.37 43.089 42.74">
	<path fill="#00ABEC" d="M0.036,21.37c-11.886,0-21.58-9.615-21.58-21.405s9.693-21.335,21.58-21.335
		c11.816,0,21.509,9.545,21.509,21.335S11.852,21.37,0.036,21.37L0.036,21.37z M5.695-18.493v3.58c0,1.402-0.778,2.666-1.98,3.438
		c0.07,0.069,0.212,0.069,0.282,0.069c2.053,0.281,3.892,0.912,3.892,0.912s2.688,0.773,4.104,2.457
		c1.486,1.754,1.911,4.353,1.911,4.353s0.495,2.877,0,5.053c-0.495,2.176-2.123,3.649-2.123,3.649s0.566,1.402,0.495,2.878
		c0,1.403-0.707,2.877-0.707,2.877s-1.203,0.141-2.547-0.352C7.394,9.79,5.625,8.526,5.625,8.526S4.352,8.878,2.937,9.089
		C1.591,9.3,0.036,9.3,0.036,9.3s-1.627,0-2.901-0.211c-1.486-0.211-2.759-0.563-2.759-0.563s-1.698,1.264-3.396,1.896
		c-1.274,0.491-2.547,0.352-2.547,0.352s-0.637-1.474-0.708-2.877c-0.071-1.476,0.496-2.878,0.496-2.878s-1.627-1.475-2.123-3.649
		c-0.495-2.176,0-5.053,0-5.053s0.424-2.599,1.911-4.353c1.415-1.684,4.104-2.457,4.104-2.457s1.84-0.631,3.892-0.912
		c0.071,0,0.212,0,0.283-0.069c-1.203-0.771-1.981-2.035-1.981-3.438v-3.58c-7.995,2.387-13.797,9.756-13.797,18.458
		c0,10.737,8.703,19.37,19.528,19.37c10.755,0,19.528-8.633,19.528-19.37C19.563-8.737,13.69-16.106,5.695-18.493L5.695-18.493z"/>
</symbol>
<symbol  id="HDInsight__x28_Hadoop_x29_" viewBox="-20.224 -20.525 40.448 41.05">
	<path fill="#FFFFFF" d="M-4.875,12.003c5.995,0,10.936,1.432,10.936,3.188c0,1.756-4.283,2.731-10.87,2.667
		c-6.983-0.065-11.001-0.911-11.001-2.667C-15.81,13.435-10.803,12.003-4.875,12.003"/>
	<polygon fill="#00BCF2" points="20.224,-1.009 13.702,3.675 13.702,0.292 10.606,0.292 10.606,-2.374 13.702,-2.374 13.702,-5.628 
			"/>
	<polygon fill="#00BCF2" points="-1.647,-2.374 -5.797,-2.374 -6.917,-3.675 -3.491,-3.675 -3.491,-8.425 -1.647,-8.425 	"/>
	<polygon fill="#00BCF2" points="1.187,-2.374 1.187,-8.425 3.624,-8.425 3.624,-2.374 	"/>
	<polygon fill="#00BCF2" points="-3.491,-11.288 -3.491,-12.979 -1.647,-12.979 -1.647,-11.288 	"/>
	<polygon fill="#00BCF2" points="1.187,2.179 1.187,0.292 3.624,0.292 3.624,2.179 	"/>
	<path fill="#00BCF2" d="M-10.54-2.374h-6.653v7.871h13.241l5.533,6.311V5.433h4.414V0.292h4.611v15.484
		c0,2.991-7.115,4.748-15.415,4.748c-8.168,0-14.888-1.888-15.283-4.748v0.063l-0.132-19.516h8.563L-10.54-2.374L-10.54-2.374z
		 M-4.809,17.857c6.587,0.064,10.87-0.911,10.87-2.667c0-1.757-4.941-3.188-10.936-3.188c-5.929,0-10.935,1.432-10.935,3.188
		C-15.81,16.947-11.792,17.792-4.809,17.857L-4.809,17.857z"/>
	<polygon fill="#00BCF2" points="-6.521,-8.425 -6.521,-6.733 -9.486,-6.733 -11.001,-8.425 	"/>
	<path fill="#00BCF2" d="M5.995-11.288H1.187v-4.553l0,0h-7.708v4.553h-11.462l3.557,4.555h-5.797v-7.938
		c0,0,0.066-0.064,0.066-0.129c0.329-2.928,6.982-5.726,15.15-5.726c8.367,0,15.613,2.861,15.613,5.854v12.297H5.995V-11.288
		L5.995-11.288L5.995-11.288z"/>
	<polygon fill="#00BCF2" points="-1.647,2.569 -3.558,0.292 -1.647,0.292 	"/>
	<polygon fill="#00BCF2" points="-14.031,2.374 -14.031,0.292 -8.3,0.292 -6.456,2.374 	"/>
</symbol>
<symbol  id="Management_Certificate" viewBox="-27.021 -31.334 54.043 62.669">
	<path fill="#00ABEC" d="M-4.49,6.793h-15.997c-0.806,0-1.438,0.628-1.438,1.427v16.323h4.604v4.509h29.52
		c0.806,0,1.496-0.628,1.496-1.427v-0.229c0.748-0.229,1.496-0.514,2.244-0.856v1.085c0,1.997-1.669,3.71-3.74,3.71h-30.844
		l-5.582-5.594V8.22c0-2.055,1.727-3.709,3.741-3.709h17.32C-3.684,5.252-4.145,5.994-4.49,6.793L-4.49,6.793z"/>
	<path fill="#00ABEC" d="M9.377,4.339c-4.833,0-8.803,3.881-8.803,8.676c0,4.736,3.971,8.617,8.803,8.617
		c4.892,0,8.863-3.881,8.863-8.617C18.24,8.22,14.27,4.339,9.377,4.339L9.377,4.339z M9.377,19.692c-3.74,0-6.847-2.97-6.847-6.679
		c0-3.711,3.107-6.734,6.847-6.734c3.798,0,6.906,3.023,6.906,6.734C16.283,16.724,13.176,19.692,9.377,19.692L9.377,19.692z"/>
	<path fill="#00ABEC" d="M22.958,13.015c0,7.306-6.099,13.24-13.58,13.24c-7.422,0-13.522-5.936-13.522-13.24
		c0-4.571,2.39-8.607,5.998-10.987l-4.213-7.22l5.121,1.37l1.899-4.396l4.2,7.306l5.524-7.306l1.438,4.167l5.178-1.37l-4.747,7.037
		C20.257,3.922,22.958,8.159,22.958,13.015z M-2.188,13.015c0,6.222,5.18,11.302,11.566,11.302c6.388,0,11.624-5.08,11.624-11.302
		C21.001,6.735,15.766,1.656,9.377,1.656C2.991,1.656-2.188,6.735-2.188,13.015z"/>
	<text transform="matrix(1.0082 0 0 -1 -27.0215 -16.5615)" fill="#00BCF2" font-family="'Calibri'" font-size="10.045">M</text>
	<text transform="matrix(1.0082 0 0 -1 -18.7271 -16.5615)" fill="#00BCF2" font-family="'Calibri'" font-size="10.045">a</text>
	<text transform="matrix(1.0082 0 0 -1 -14.1196 -16.5615)" fill="#00BCF2" font-family="'Calibri'" font-size="10.045">n</text>
	<text transform="matrix(1.0082 0 0 -1 -8.5957 -16.5615)" fill="#00BCF2" font-family="'Calibri'" font-size="10.045">a</text>
	<text transform="matrix(1.0082 0 0 -1 -3.9883 -16.5615)" fill="#00BCF2" font-family="'Calibri'" font-size="10.045">g</text>
	<text transform="matrix(1.0082 0 0 -1 0.6162 -16.5615)" fill="#00BCF2" font-family="'Calibri'" font-size="10.045">e</text>
	<text transform="matrix(1.0082 0 0 -1 5.2197 -16.5615)" fill="#00BCF2" font-family="'Calibri'" font-size="10.045">m</text>
	<text transform="matrix(1.0082 0 0 -1 13.5029 -16.5615)" fill="#00BCF2" font-family="'Calibri'" font-size="10.045">e</text>
	<text transform="matrix(1.0082 0 0 -1 18.1064 -16.5615)" fill="#00BCF2" font-family="'Calibri'" font-size="10.045">n</text>
	<text transform="matrix(1.0082 0 0 -1 23.6294 -16.5615)" fill="#00BCF2" font-family="'Calibri'" font-size="10.045">t</text>
	<text transform="matrix(1.0082 0 0 -1 -8.6152 -28.249)" fill="#00BCF2" font-family="'Calibri'" font-size="10.045">C</text>
	<text transform="matrix(1.0082 0 0 -1 -3.0942 -28.249)" fill="#00BCF2" font-family="'Calibri'" font-size="10.045">e</text>
	<text transform="matrix(1.0082 0 0 -1 1.5088 -28.249)" fill="#00BCF2" font-family="'Calibri'" font-size="10.045">r</text>
	<text transform="matrix(1.0082 0 0 -1 5.1919 -28.249)" fill="#00BCF2" font-family="'Calibri'" font-size="10.045">t</text>
</symbol>
<symbol  id="Media_Services" viewBox="-18.441 -20.403 36.883 40.807">
	<path fill="#00ABEC" d="M-18.377,1.79L-18.377,1.79c2.848,0,4.077-0.256,4.918,2.047c2.006,5.438,6.795,10.042,13.396,10.042H0
		c6.601,0,11.39-4.604,13.396-10.042c0.841-2.303,2.07-2.174,5.046-2.174v8.313L0,20.403L-18.441,9.978L-18.377,1.79
		c0.065,0,0.065,0,0.065,0H-18.377z"/>
	<path fill="#00ABEC" d="M-18.441-3.198v-7.1L0.194-20.403L18.441-9.978v6.844l0,0h-2.134c-1.748-0.129-2.523-0.513-2.912-1.728
		C11.391-10.233,6.602-14.327,0-14.327h-0.064c-6.601,0-11.39,4.094-13.396,9.467c-0.517,1.406-1.294,1.535-2.976,1.662H-18.441z"/>
	<path fill="#00ABEC" d="M-2.458-6.46V5.308l8.996-5.883L-2.458-6.46L-2.458-6.46z M6.666,6.204c-3.687,3.646-9.641,3.646-13.33,0
		c-3.689-3.646-3.689-9.529,0-13.176c3.688-3.646,9.643-3.646,13.33,0C10.354-3.325,10.354,2.558,6.666,6.204L6.666,6.204z"/>
</symbol>
<symbol  id="Mobile_Service" viewBox="-13.612 -22.326 27.225 44.653">
	<path fill="#00ABEC" d="M11.572,22.264v0.063h-23.081v-0.063c-2.04-0.063-2.104-0.501-2.104-2.938l0.064-38.774
		c0-2.377,0-2.813,1.977-2.877c0,0,0.638,0,0.765,0h21.678c0.126,0,0.701,0,0.701,0c2.04,0.063,2.04,0.5,2.04,2.877v38.774
		C13.612,21.763,13.612,22.201,11.572,22.264L11.572,22.264z M-3.155,20.763h6.376c0.128,0,0.191-0.125,0.191-0.25
		c0-0.063-0.063-0.188-0.191-0.188h-6.375c-0.127,0-0.255,0.063-0.255,0.188S-3.283,20.763-3.155,20.763L-3.155,20.763z
		 M-3.027-20.013h-1.53c-0.255,0-0.51,0.063-0.51,0.313s0.255,0.375,0.51,0.375h1.53c0.255,0,0.51-0.125,0.51-0.375
		S-2.772-20.013-3.027-20.013L-3.027-20.013z M1.117-20.263h-2.168c-0.319,0-0.638,0.125-0.638,0.438c0,0.375,0.319,0.5,0.638,0.5
		h2.168c0.318,0,0.638-0.125,0.638-0.5C1.754-20.138,1.436-20.263,1.117-20.263L1.117-20.263z M4.624-20.013h-1.53
		c-0.255,0-0.446,0.063-0.446,0.313s0.191,0.375,0.446,0.375h1.53c0.255,0,0.51-0.125,0.51-0.375S4.878-20.013,4.624-20.013
		L4.624-20.013z M11.701-15.511c0-2.063-0.256-2.5-2.168-2.5h-10.52h-8.48c-1.977,0-2.168,0.438-2.168,2.5V16.76
		c0,2.126,0.255,2.126,2.423,2.126h8.225H9.277c2.167,0,2.423,0,2.423-2.126V-15.511L11.701-15.511z"/>
	<path fill="#00ABEC" d="M10.361,15.446c0,2.063-0.256,2.063-2.36,2.063H-8c-2.104,0-2.295,0-2.295-2.063v-29.58
		c0-2.064,0.191-2.439,2.295-2.439H8.001c2.104,0,2.36,0.375,2.36,2.439V15.446L10.361,15.446z M-0.604-6.38l-6.503,3.69v7.441
		l6.503-3.688V-6.38L-0.604-6.38z M-6.471,5.753l6.503,3.69l6.568-3.69L0.097,2.063L-6.471,5.753L-6.471,5.753z M7.173-2.688
		L0.605-6.38v7.381L7.173,4.69V-2.688L7.173-2.688z"/>
</symbol>
<symbol  id="Multi-Factor_Authentication" viewBox="-12.906 -25.157 25.812 50.314">
	<path fill="#00BCF2" d="M12.889-20.416L9.193,1.447c-0.182,1.091-1.14,1.682-2.235,1.499L-7.227,0.765l-2.417,14.409
		c-0.183,1.184,0.684,2.184,1.915,2.364l8.21,1.271c1.231,0.184,2.326-0.5,2.509-1.682L4.725,6.765c0.137-0.59,0.684-1,1.322-0.907
		c0.593,0.09,1.049,0.636,0.912,1.227L4.223,23.446c-0.183,1.182-1.277,1.862-2.509,1.682l-12.68-1.954
		c-1.23-0.228-2.098-1.228-1.915-2.409l3.375-20c0.046-0.182,0.09-0.316,0.138-0.454c-0.548-0.408-0.867-1.136-0.775-1.862
		l3.693-21.863c0.183-1.046,1.277-1.863,2.372-1.728l15.324,2.408C12.34-22.553,13.024-21.462,12.889-20.416L12.889-20.416z
		 M-5.037,21.765l1.733,0.273c0.41,0.045,0.821-0.137,0.866-0.546c0.092-0.409-0.182-0.729-0.639-0.818l-1.732-0.228
		c-0.41-0.091-0.776,0.137-0.867,0.546C-5.721,21.355-5.446,21.72-5.037,21.765L-5.037,21.765z M-2.254-7.644
		c-0.273,1.591,0.866,3.045,2.509,3.317C1.896-4.053,3.4-5.144,3.674-6.734c0.229-1.137-0.091-2.182-1.276-2.817l0.593-3.5
		l-2.736-0.409l-0.595,3.545C-1.16-9.507-2.071-8.689-2.254-7.644L-2.254-7.644z M5.637-22.188l-4.652-0.683
		c-0.411-0.091-0.821,0.137-0.866,0.546c-0.092,0.409,0.228,0.729,0.639,0.772l4.651,0.728c0.411,0.091,0.775-0.137,0.867-0.546
		C6.319-21.779,6.046-22.098,5.637-22.188L5.637-22.188z"/>
</symbol>
<symbol  id="Notification_Topic" viewBox="-18.891 -18.786 37.781 37.572">
	<polygon fill="#00ABEC" points="1.063,2.272 1.449,9.889 -1.447,9.889 -0.997,2.272 	"/>
	<path fill="#00ABEC" d="M0.033,0.864c-0.966,0-1.609-0.642-1.609-1.602S-0.934-2.4,0.033-2.4c0.964,0,1.609,0.704,1.609,1.664
		C1.578,0.224,0.998,0.864,0.033,0.864"/>
	<path fill="#00ABEC" d="M14.128,18.722l-28.449,0.064c-2.639,0-4.57-1.921-4.57-4.545l0.064-18.946
		c0-2.624,1.932-4.992,4.506-4.992h6.822l12.809-9.089L4.151-9.697l9.912-0.063c2.639,0,4.763,2.111,4.763,4.736l0.064,19.011
		C18.892,16.609,16.768,18.722,14.128,18.722L14.128,18.722z M10.588-5.473h-21.111c-1.674,0-2.575,1.407-1.738,2.815l5.342,9.024
		l5.213,8.577c0.901,1.407,2.51,1.407,3.348,0l5.342-9.089l5.277-8.577C13.099-4.064,12.262-5.473,10.588-5.473L10.588-5.473z"/>
</symbol>
<symbol  id="SQL_Data_Sync" viewBox="-14.927 -19.305 29.854 38.61">
	<path fill="#00ABEC" d="M0.032,19.306c-8.275,0-14.959-2.768-14.959-5.784v-26.662c0-2.705,5.474-5.66,12.604-6.164h4.774
		c7.065,0.44,12.476,2.893,12.476,5.66v27.039C14.927,16.413,8.243,19.306,0.032,19.306L0.032,19.306z M0.032,17.167
		c5.855,0,10.63-1.383,10.63-3.144c0-1.762-4.774-3.146-10.63-3.146c-5.856,0-10.63,1.384-10.63,3.146
		C-10.598,15.784-5.824,17.167,0.032,17.167L0.032,17.167z M0.286-11.255c-4.646,0-8.402,3.709-8.402,8.299
		c0,0.252,0,0.504,0.063,0.756h-3.883l5.474,5.408L-2.005-2.2h-3.628c0-0.252-0.063-0.504-0.063-0.756c0-3.27,2.673-5.91,5.983-5.91
		c1.082,0,2.101,0.252,2.992,0.754L4.87-9.999C3.533-10.815,1.941-11.255,0.286-11.255L0.286-11.255z M6.524-9.118L2.069-3.71h4.137
		C6.27-3.458,6.27-3.206,6.27-2.956c0,3.208-2.673,5.85-5.983,5.85c-1.018,0-2.038-0.252-2.864-0.691l-1.528,1.887
		c1.273,0.755,2.801,1.257,4.392,1.257c4.647,0,8.402-3.771,8.402-8.301c0-0.25,0-0.502,0-0.754h3.31L6.524-9.118L6.524-9.118z"/>
</symbol>
<symbol  id="SQL_Database__x28_Windows_Azure_x29_" viewBox="-21.246 -22.071 42.492 44.143">
	<path fill="#00BCF2" d="M-7.318-0.351C-7.2-0.525-7.023-0.642-6.846-0.7c0.177-0.117,0.354-0.117,0.59-0.117
		c0.177,0,0.354,0,0.531,0.117c0.177,0.06,0.295,0.175,0.472,0.351C-5.134-0.175-5.016,0-4.958,0.292
		C-4.899,0.526-4.84,0.817-4.84,1.168c0,0.292,0,0.525-0.059,0.817c-0.059,0.232-0.177,0.467-0.295,0.643
		c-0.059,0.175-0.236,0.35-0.413,0.467C-5.784,3.212-6.02,3.271-6.256,3.271c-0.236,0-0.473-0.06-0.649-0.177
		c-0.236-0.117-0.354-0.232-0.473-0.467c-0.118-0.176-0.236-0.409-0.295-0.643C-7.732,1.751-7.731,1.46-7.731,1.227
		c0-0.408,0-0.699,0.118-0.935C-7.554,0-7.437-0.175-7.318-0.351"/>
	<path fill="#00BCF2" d="M-1.357-8.35c0.354,0,0.649,0,1.004-0.059c1.652,3.271,4.957,5.371,8.734,5.547v18.977
		c0,3.036-6.67,5.956-14.813,5.956c-8.145,0-14.814-2.804-14.814-5.84v-27.325c0-2.744,5.43-5.313,12.512-5.78
		c-0.059,0.351-0.059,0.759-0.059,1.168C-8.793-11.678-5.489-8.35-1.357-8.35L-1.357-8.35z M3.955-2.686H-1.18v7.822h2.42v-6.014
		h2.715V-2.686L3.955-2.686L3.955-2.686z M-6.433,19.969c5.784,0,10.505-1.46,10.505-3.211c0-1.752-4.721-3.212-10.505-3.212
		c-5.843,0-10.564,1.46-10.564,3.212C-16.997,18.509-12.276,19.969-6.433,19.969L-6.433,19.969z M-10.859-0.876
		c-0.059-0.233-0.118-0.408-0.236-0.583c-0.118-0.176-0.236-0.351-0.413-0.526c-0.177-0.175-0.354-0.35-0.649-0.467
		c-0.236-0.116-0.532-0.232-0.886-0.292c-0.354-0.059-0.767-0.116-1.239-0.116c-0.236,0-0.472,0-0.708,0.059
		c-0.177,0-0.413,0.059-0.59,0.117c-0.177,0-0.354,0.059-0.531,0.116c-0.177,0.059-0.295,0.116-0.413,0.116v2.16
		c0.118-0.059,0.295-0.175,0.472-0.291c0.176-0.059,0.354-0.176,0.53-0.234c0.178-0.059,0.414-0.115,0.591-0.175
		c0.236-0.059,0.413-0.117,0.59-0.117c0.177,0,0.354,0.06,0.413,0.06c0.118,0.059,0.236,0.117,0.295,0.175
		c0.059,0,0.059,0.059,0.118,0.117c0,0.117,0,0.176,0,0.232c0,0.116,0,0.233-0.059,0.292C-13.633-0.116-13.751-0.058-13.81,0
		c-0.118,0.059-0.295,0.175-0.413,0.233c-0.177,0.059-0.354,0.116-0.531,0.176c-0.295,0.117-0.59,0.291-0.885,0.467
		c-0.237,0.176-0.413,0.351-0.59,0.525c-0.118,0.233-0.236,0.467-0.295,0.643c-0.118,0.233-0.118,0.467-0.118,0.701
		c0,0.408,0.059,0.758,0.236,1.051c0.118,0.351,0.354,0.584,0.649,0.816c0.295,0.176,0.649,0.352,1.003,0.468
		c0.413,0.116,0.826,0.175,1.298,0.175c0.295,0,0.531,0,0.767,0c0.237-0.059,0.414-0.059,0.591-0.117
		c0.177,0,0.354-0.058,0.472-0.058c0.177-0.059,0.295-0.059,0.413-0.116V2.978c-0.118,0.06-0.236,0.117-0.413,0.177
		c-0.118,0.059-0.295,0.117-0.472,0.175c-0.177,0.059-0.354,0.117-0.531,0.117c-0.177,0.058-0.354,0.058-0.59,0.058
		c-0.236,0-0.472-0.058-0.649-0.116c-0.118-0.115-0.236-0.232-0.236-0.409c0-0.115,0.059-0.175,0.059-0.231
		c0.059-0.117,0.118-0.176,0.177-0.234c0.059-0.058,0.177-0.116,0.295-0.175c0.177-0.059,0.295-0.117,0.472-0.175
		c0.354-0.176,0.649-0.293,0.944-0.468c0.295-0.116,0.531-0.292,0.708-0.525c0.177-0.175,0.354-0.409,0.472-0.642
		C-10.859,0.292-10.8,0-10.8-0.351C-10.8-0.525-10.859-0.7-10.859-0.876L-10.859-0.876z M-9.974-0.467
		C-10.21,0-10.27,0.526-10.27,1.109c0,0.643,0.06,1.168,0.295,1.692c0.177,0.525,0.472,0.936,0.827,1.284
		c0.354,0.409,0.767,0.701,1.298,0.877c0.472,0.174,1.062,0.291,1.652,0.291c0.531,0,1.063-0.059,1.535-0.291
		c0.472-0.176,0.885-0.409,1.239-0.818c0.354-0.291,0.649-0.759,0.826-1.227c0.177-0.525,0.296-1.051,0.296-1.692
		c0-0.468-0.06-0.876-0.178-1.227C-2.598-0.41-2.716-0.76-2.953-1.052c-0.175-0.35-0.41-0.583-0.647-0.816
		c-0.295-0.232-0.59-0.467-0.886-0.584l2.655-2.276H-4.84L-6.61-2.86C-7.141-2.802-7.613-2.685-8.027-2.51
		c-0.472,0.176-0.826,0.468-1.18,0.816C-9.562-1.401-9.797-0.992-9.974-0.467L-9.974-0.467z"/>
	<path fill="#00BCF2" d="M21.246-18.392c0,1.983-1.533,3.619-3.48,3.735c0.117,0.584,0.176,1.168,0.176,1.752
		c0,4.963-4.131,9.051-9.146,9.051c-3.777,0-7.143-2.277-8.559-5.723C-0.294-9.46-0.826-9.343-1.357-9.343
		c-3.541,0-6.433-2.861-6.433-6.364c0-3.445,2.774-6.306,6.315-6.364h19.24h0.766l-0.059,0.116
		C20.066-21.545,21.246-20.085,21.246-18.392L21.246-18.392z M17.766-21.078H-1.357c-3.01,0-5.43,2.396-5.43,5.372
		c0,2.919,2.42,5.313,5.43,5.313c0.59,0,1.181-0.06,1.771-0.292l0.472-0.177l0.177,0.526c1.121,3.27,4.189,5.488,7.732,5.488
		c4.484,0,8.145-3.62,8.145-8.059c0-0.701-0.119-1.46-0.297-2.16l-0.234-0.7l0.766,0.059c0.119,0.059,0.236,0.059,0.355,0.059
		c1.475,0,2.715-1.227,2.715-2.743C20.244-19.735,19.123-20.961,17.766-21.078L17.766-21.078z"/>
</symbol>
<symbol  id="SQL_Reporting__x28_Deprecated_x29_" viewBox="-15.56 -19.802 31.12 39.604">
	<path fill="#00ABEC" d="M-1.08,19.802c-8.828,0-14.48-2.828-14.48-5.909v-27.722c0-2.829,2.541-5.532,10.416-5.973V5.093
		L8.827,5.155l5.207-4.777l0.064,13.264C14.099,16.722,7.747,19.802-1.08,19.802L-1.08,19.802z M-1.017,17.665
		c6.287,0,10.605-1.51,10.605-3.271c0-1.821-4.318-3.204-10.605-3.204s-11.431,1.444-11.431,3.204
		C-12.448,16.219-7.304,17.665-1.017,17.665L-1.017,17.665z"/>
	<path fill="#00ABEC" d="M14.099-18.355H-2.224V2.2H8.192v-5.909h5.906L14.099-18.355L14.099-18.355z M7.62,3.646H-3.685v-23.448
		H15.56v16.848L7.62,3.646L7.62,3.646z"/>
	<polygon fill="#00ABEC" points="0.38,-0.251 0.38,-1.697 4.825,-1.697 4.825,-0.251 	"/>
	<polygon fill="#00ABEC" points="0.38,-3.206 0.38,-4.651 4.825,-4.651 4.825,-3.206 	"/>
	<polygon fill="#00ABEC" points="0.38,-6.098 0.38,-7.543 4.825,-7.543 4.825,-6.098 	"/>
	<polygon fill="#00ABEC" points="0.38,-9.052 0.38,-10.498 4.825,-10.498 4.825,-9.052 	"/>
	<polygon fill="#00ABEC" points="0.38,-11.943 0.38,-13.452 4.825,-13.452 4.825,-11.943 	"/>
	<polygon fill="#00ABEC" points="6.351,-11.943 6.351,-13.452 10.796,-13.452 10.796,-11.943 	"/>
	<polygon fill="#00ABEC" points="6.351,-9.052 6.351,-10.498 10.796,-10.498 10.796,-9.052 	"/>
	<polygon fill="#00ABEC" points="6.351,-6.098 6.351,-7.543 10.796,-7.543 10.796,-6.098 	"/>
</symbol>
<symbol  id="Scheduler" viewBox="-16.356 -20.783 32.711 41.567">
	<path fill="#00BCF2" d="M3.117-10.359L1.381-8.639v-3.884c-0.248,0.05-0.496,0.1-0.744,0.147c-0.198,0-0.693,0.049-0.893,0.099
		c-0.793,0.196-1.636,0.442-2.38,0.737c-0.248,0.098-0.495,0.196-0.743,0.344l-0.396,0.147l-0.397,0.195l-0.298,0.147l-0.396,0.197
		c-0.198,0.146-0.445,0.295-0.693,0.441c-0.893,0.59-1.785,1.327-2.579,2.113c-0.793,0.786-1.488,1.622-2.083,2.604
		c-0.645,0.935-1.14,1.967-1.537,3.048c-0.842,2.112-1.189,4.423-1.041,6.732c0.199,2.262,0.844,4.474,1.934,6.438
		c1.042,1.917,2.479,3.589,4.116,4.866c0.792,0.639,1.686,1.229,2.528,1.671c0.893,0.441,1.785,0.835,2.629,1.13
		c1.734,0.59,3.471,0.836,4.958,0.885c1.537,0.05,2.876-0.098,3.966-0.344c1.091-0.196,1.934-0.441,2.48-0.64
		c0.297-0.098,0.495-0.196,0.645-0.245l0.248-0.099l0,0c0.099,0,0.198,0,0.247,0.099c0.049,0.099,0,0.245-0.099,0.295l-0.198,0.099
		c-0.149,0.099-0.348,0.196-0.645,0.345c-0.546,0.295-1.339,0.64-2.479,1.031c-1.091,0.344-2.479,0.639-4.116,0.787
		c-1.636,0.098-3.521,0-5.503-0.492c-1.984-0.491-4.066-1.326-6.05-2.654c-1.934-1.325-3.769-3.145-5.206-5.308
		c-1.389-2.212-2.381-4.768-2.826-7.521c-0.199-1.377-0.248-2.753-0.1-4.179c0.1-1.425,0.396-2.802,0.793-4.178
		c0.447-1.327,1.042-2.654,1.785-3.883c0.694-1.229,1.587-2.359,2.578-3.393c0.943-1.031,2.083-1.916,3.224-2.703
		c0.298-0.195,0.595-0.393,0.892-0.539l0.447-0.246l0.496-0.295l0.445-0.196l0.447-0.197c0.297-0.146,0.645-0.295,0.941-0.393
		c1.289-0.541,2.629-0.886,3.967-1.082c0.447-0.099,1.19-0.147,1.637-0.196v-4.079l4.264,4.228l1.587,1.817l-2.28,2.312
		L3.117-10.359L3.117-10.359z"/>
	<path fill="#00BCF2" d="M3.216,16.624c-7.239,0-12.743-5.8-12.743-12.978c0-5.945,3.967-10.96,9.52-12.531v1.13
		c0,0.491,0.348,0.934,0.844,1.131c0.148,0.049-0.1,0.098,0.049,0.098c0.348,0,0.645-0.146,0.893-0.344l2.479-2.457
		C11-8.787,16.355-3.185,16.355,3.647C16.355,10.824,10.456,16.624,3.216,16.624L3.216,16.624z M-6.552,2.518
		c-0.645,0-1.141,0.541-1.141,1.181s0.496,1.13,1.141,1.13c0.645,0,1.141-0.49,1.141-1.13S-5.908,2.518-6.552,2.518L-6.552,2.518z
		 M3.216,15.15c0.645,0,1.14-0.541,1.14-1.181c0-0.639-0.495-1.131-1.14-1.131c-0.646,0-1.141,0.492-1.141,1.131
		C2.076,14.609,2.57,15.15,3.216,15.15L3.216,15.15z M10.059-2.938L9.959-3.086c-0.843-0.786-2.182-0.786-3.024,0L1.529,2.272
		c-0.447,0.441-0.199,1.08-0.148,1.671v0.147v4.769c0,1.18,0.942,2.112,2.132,2.112h0.348c1.189,0,2.132-0.934,2.132-2.112V4.681
		l4.711-4.67C11.546-0.775,10.901-2.103,10.059-2.938L10.059-2.938z M13.628,2.518c-0.645,0-1.141,0.541-1.141,1.181
		s0.496,1.13,1.141,1.13s1.141-0.49,1.141-1.13S14.272,2.518,13.628,2.518L13.628,2.518z"/>
</symbol>
<symbol  id="Service_Bus__x28_Feature_x29_" viewBox="-18.32 -21.433 36.641 42.864">
	<polygon fill="#00ABEC" points="-3.031,-4.21 -7.482,-4.21 -7.482,-13.267 -11.16,-13.267 -5.161,-21.433 0.774,-13.267 
		-3.031,-13.267 -3.031,-4.21 	"/>
	<polygon fill="#00ABEC" points="-10.644,9.376 -10.644,6.315 0,6.315 0,9.376 	"/>
	<polygon fill="#00ABEC" points="-10.644,4.848 -10.644,1.786 0,1.786 0,4.848 	"/>
	<polygon fill="#00ABEC" points="-10.644,0.319 -10.644,-2.743 0,-2.743 0,0.319 	"/>
	<path fill="#00ABEC" d="M-13.741-7.208h4.581v-4.529h-7.548c-0.257,0-1.613,1.148-1.613,1.404l0.129,30.234
		c0,1.53,1.033,1.53,1.355,1.53h12.644l0,0c0.323,0,1.161-0.063,1.161-1.274v-9.313h-4.58v6.061h-6.129V-7.208z"/>
	<path fill="#00ABEC" d="M11.097,1.786H9.742C9.032,10.844,4.581,15.31-1.482,16.457V12.12c4.516-1.531,6.257-5.934,6.386-11.737
		l-0.13-2.997l6.129,0.063c1.612,0,2.838-0.445,2.838-2.041v-2.615H-1.482v-4.529H16.58c0.258,0,1.741,1.148,1.741,1.468v5.678
		C18.32-0.702,15.03,1.786,11.097,1.786L11.097,1.786z"/>
</symbol>
<symbol  id="Service_Bus_Queue" viewBox="-19.078 -21.805 38.156 43.61">
	<polygon fill="#00ABEC" points="-2.743,-5.698 -7.198,-5.698 -7.198,-13.528 -11.007,-13.528 -4.874,-21.805 1.195,-13.528 
		-2.743,-13.528 -2.743,-5.698 	"/>
	<path fill="#00ABEC" d="M-3.905,21.806h-12.848c-0.388,0-1.42,0-1.42-1.592l-0.064-7.768h4.647v4.711h6.198v-4.711h4.713v8.021
		C-2.743,21.741-3.519,21.806-3.905,21.806L-3.905,21.806z"/>
	<path fill="#00ABEC" d="M-13.59-5.698h-4.647v-4.773c0-0.318,1.355-1.464,1.613-1.464h7.683v4.583h-4.648L-13.59-5.698
		L-13.59-5.698z"/>
	<path fill="#00ABEC" d="M11.719,1.814h-1.356C9.588,11.046,5.068,15.566-1.13,16.776v-4.457c4.649-1.527,6.393-5.984,6.521-11.97
		L5.263-2.642l6.197,0.063c1.679,0,2.906-0.445,2.906-2.101v-2.676H-1.13v-4.583h18.4c0.323,0,1.808,1.146,1.808,1.527v5.73
		C19.078-0.732,15.722,1.814,11.719,1.814L11.719,1.814z"/>
	<path fill="#00ABEC" d="M-2.098,10.155h-15.818c-0.516,0-1.162-0.574-1.162-1.083v-11.46c0-0.51,0.646-0.954,1.162-0.954h15.818
		c0.516,0,0.968,0.382,0.968,0.891V9.2C-1.13,9.709-1.582,10.155-2.098,10.155L-2.098,10.155z M-3.001,8.436l-6.908-5.22
		l-6.844,5.22H-3.001L-3.001,8.436z M-17.399-1.687v8.147l6.715-5.029c0.193-0.127,0.452-0.19,0.646-0.19
		c0.193,0,0.322,0.063,0.516,0.19l6.65,5.156v-8.274H-17.399L-17.399-1.687z"/>
</symbol>
<symbol  id="Service_Bus_Relay" viewBox="-18.255 -22.396 36.511 44.793">
	<path fill="#00ABEC" d="M-1.482,0.096c0,0.225-0.02,0.437-0.047,0.639h0.047l-0.193,13.569h4.128l-5.935,8.093l-5.871-8.093h3.355
		V2.262h-12.257v-13.763c0-0.19,1.678-1.338,1.936-1.338h8.773v4.523h-6.129v6.054h7.936v-12.042h-3.613l5.935-8.093l5.871,8.093
		h-3.935L-1.482,0.096L-1.482,0.096z"/>
	<path fill="#00ABEC" d="M-17.739,3.728h4.192c0.065,0,0.065,0.511,0.517,1.529c0.774,1.529,3.161,2.803,5.483,2.676v4.778
		C-12.385,12.138-17.029,8.251-17.739,3.728L-17.739,3.728z"/>
	<path fill="#00ABEC" d="M11.161,2.262H9.375c-0.429,5.171-4.323,8.873-9.31,10.194V7.358C1.678,7.231,3.548,6.34,4.129,4.747h0.064
		C4.48,3.942,4.694,3.104,4.788,2.23C4.792,2.208,4.791,2.192,4.793,2.17c0.023-0.234,0.033-0.473,0.037-0.712
		C4.805,1.029,4.709,0.685,4.709,0.224l0.064-2.484l6.387,0.382c1.612,0,2.773-2.357,2.773-3.887v-2.677L0.064-8.251v-4.396h17.03
		c0.323,0,1.161,0.828,1.161,1.146v5.799C18.256-1.943,14.966,2.262,11.161,2.262z"/>
</symbol>
<symbol  id="Service_Certificate" viewBox="-24.005 -26.814 48.01 53.628">
	<path fill="#00ABEC" d="M-4.232,2.21h-16.015c-0.809,0-1.503,0.629-1.503,1.43v16.365h4.683v4.521h29.602
		c0.867,0,1.504-0.632,1.504-1.433v-0.229c0.809-0.229,1.561-0.517,2.255-0.859v1.088c0,2.002-1.677,3.72-3.759,3.72h-30.932
		l-5.608-5.607V3.64c0-2.059,1.677-3.719,3.758-3.719h17.345C-3.422,0.665-3.827,1.409-4.232,2.21L-4.232,2.21z"/>
	<path fill="#00ABEC" d="M9.759-0.251c-4.914,0-8.846,3.891-8.846,8.697c0,4.75,3.932,8.641,8.846,8.641
		c4.857,0,8.847-3.891,8.847-8.641C18.606,3.64,14.617-0.251,9.759-0.251L9.759-0.251z M9.759,15.142
		c-3.815,0-6.938-2.975-6.938-6.694s3.122-6.752,6.938-6.752c3.816,0,6.881,3.032,6.881,6.752S13.576,15.142,9.759,15.142
		L9.759,15.142z"/>
	<path fill="#00ABEC" d="M23.347,8.446c0,7.323-6.071,13.274-13.588,13.274c-7.516,0-13.586-5.951-13.586-13.274
		c0-4.574,2.368-8.611,5.977-11l-4.243-7.252l5.204,1.373l1.908-4.406l4.162,7.324l5.608-7.324l1.445,4.178l5.146-1.373
		l-4.729,7.068C20.643-0.651,23.347,3.589,23.347,8.446z M-1.919,8.446c0,6.237,5.262,11.33,11.679,11.33
		c6.418,0,11.622-5.093,11.622-11.33c0-6.293-5.204-11.386-11.622-11.386C3.342-2.938-1.919,2.153-1.919,8.446z"/>
	<text transform="matrix(1.0105 0 0 -1 -23.8096 -23.7217)" fill="#00BCF2" font-family="'Calibri'" font-size="10.0705">S</text>
	<text transform="matrix(1.0105 0 0 -1 -19.1743 -23.7217)" fill="#00BCF2" font-family="'Calibri'" font-size="10.0705">e</text>
	<text transform="matrix(1.0105 0 0 -1 -14.5493 -23.7217)" fill="#00BCF2" font-family="'Calibri'" font-size="10.0705">r</text>
	<text transform="matrix(1.0105 0 0 -1 -10.8491 -23.7217)" fill="#00BCF2" font-family="'Calibri'" font-size="10.0705">v</text>
	<text transform="matrix(1.0105 0 0 -1 -6.2319 -23.7217)" fill="#00BCF2" font-family="'Calibri'" font-size="10.0705">i</text>
	<text transform="matrix(1.0105 0 0 -1 -4.3745 -23.7217)" fill="#00BCF2" font-family="'Calibri'" font-size="10.0705">c</text>
	<text transform="matrix(1.0105 0 0 -1 0.2432 -23.7217)" fill="#00BCF2" font-family="'Calibri'" font-size="10.0705">e</text>
	<text transform="matrix(1.0105 0 0 -1 4.8696 -23.7217)" fill="#00BCF2" font-family="'Calibri'" font-size="10.0705"> </text>
	<text transform="matrix(1.0105 0 0 -1 6.7217 -23.7217)" fill="#00BCF2" font-family="'Calibri'" font-size="10.0705">C</text>
	<text transform="matrix(1.0105 0 0 -1 12.2705 -23.7217)" fill="#00BCF2" font-family="'Calibri'" font-size="10.0705">e</text>
	<text transform="matrix(1.0105 0 0 -1 16.8965 -23.7217)" fill="#00BCF2" font-family="'Calibri'" font-size="10.0705">r</text>
	<text transform="matrix(1.0105 0 0 -1 20.5967 -23.7217)" fill="#00BCF2" font-family="'Calibri'" font-size="10.0705">t</text>
</symbol>
<symbol  id="Startup_Task" viewBox="-15.235 -15.643 30.47 31.285">
	<path fill="#00ABEC" d="M0.715-4.673l-0.429,1.77l-1.502-0.141C-1.43-2.831-1.573-2.548-1.788-2.337l0.572,1.346l-1.502,0.92
		L-3.72-1.204c-0.357,0.072-0.644,0.072-1.001,0.072l-0.644,1.344l-1.717-0.424l0.215-1.486c-0.286-0.143-0.501-0.354-0.716-0.496
		L-8.87-1.698L-9.8-3.186l1.145-0.921c-0.143-0.282-0.143-0.637-0.143-0.989l-1.359-0.496l0.429-1.771l1.502,0.144
		c0.143-0.283,0.358-0.496,0.572-0.779l-0.572-1.273l1.574-0.922l0.93,1.134c0.286-0.07,0.644-0.142,0.93-0.142l0.572-1.274
		l1.788,0.426l-0.215,1.416C-2.36-8.421-2.074-8.28-1.859-7.997l1.358-0.566l0.93,1.486l-1.216,0.992
		c0.072,0.281,0.143,0.563,0.143,0.848L0.715-4.673L0.715-4.673z M-3.577-7.362c-1.216-0.637-2.718-0.141-3.362,1.134
		C-7.583-5.026-7.082-3.54-5.865-2.903c1.287,0.64,2.79,0.144,3.433-1.061C-1.789-5.239-2.289-6.726-3.577-7.362L-3.577-7.362z"/>
	<path fill="#00ABEC" d="M5.651,4.105C5.364,4.177,5.006,4.247,4.649,4.247L4.077,5.592L2.289,5.097l0.215-1.416
		C2.289,3.468,2.002,3.327,1.86,3.114L0.5,3.681l-0.93-1.485l1.144-0.92C0.572,0.92,0.572,0.637,0.572,0.282l-1.287-0.494
		l0.357-1.771l1.501,0.142C1.288-2.124,1.501-2.407,1.716-2.62L1.215-3.894l1.502-0.921l0.931,1.134
		c0.286-0.07,0.644-0.144,0.93-0.144L5.15-5.097l1.788,0.354L6.794-3.257C7.009-3.044,7.295-2.903,7.51-2.69l1.358-0.495
		l0.931,1.487l-1.217,0.99c0.072,0.283,0.144,0.566,0.144,0.85l1.359,0.566l-0.43,1.77L8.154,2.265
		C8.011,2.548,7.796,2.761,7.582,2.973l0.572,1.416l-1.502,0.92L5.651,4.105L5.651,4.105z M5.793-1.981
		C4.578-2.62,3.076-2.124,2.432-0.921S2.289,1.841,3.504,2.478c1.288,0.638,2.79,0.142,3.433-1.133
		C7.582,0.142,7.081-1.345,5.793-1.981L5.793-1.981z"/>
	<path fill="#00ABEC" d="M8.941,15.573H8.44c0,0-1.431,0.069-3.076,0.069h-16.522c-2.218,0-4.077-1.84-4.077-4.104v-23.146
		c0-2.266,1.859-4.034,4.077-4.034h22.316c2.218,0,4.077,1.77,4.077,4.034V6.158v3.257L8.941,15.573L8.941,15.573z M12.946-11.608
		c0-1.063-0.786-1.842-1.788-1.842h-22.316c-1.001,0-1.788,0.779-1.788,1.842v23.146c0,1.062,0.787,1.84,1.788,1.84H5.364
		c1.073,0,2.003,0,2.575,0V8.282h5.007V-11.608L12.946-11.608L12.946-11.608z"/>
</symbol>
<symbol  id="Storage_Queue" viewBox="-22.586 -19.376 45.173 38.752">
	<path fill="#FFFFFF" d="M11.272,19.376h-22.547L-22.586-0.036l11.313-19.34h22.547l11.313,19.34L11.272,19.376L11.272,19.376z"/>
	<polygon fill="#00ABEC" points="12.539,2.62 2.716,2.62 7.625,-1.144 	"/>
	<path fill="#00ABEC" d="M-7.331-2.546c-0.149,0-0.223,0.072-0.372,0.146l-4.54,3.617v-5.83h10.345v5.904L-6.809-2.4
		C-6.883-2.474-7.183-2.546-7.331-2.546L-7.331-2.546z"/>
	<path fill="#00ABEC" d="M7.625-2.546c-0.148,0-0.296,0.072-0.445,0.146L2.492,1.218v-5.83h10.42v5.904L8-2.399
		C7.925-2.474,7.776-2.546,7.625-2.546L7.625-2.546z"/>
	<path fill="#00ABEC" d="M11.272,19.376h-22.547L-22.586-0.036l11.313-19.34h22.547l11.313,19.34L11.272,19.376L11.272,19.376z
		 M15.219-8.229H-15.59c-0.968,0-1.712,0.737-1.712,1.696V5.13c0,0.959,0.744,1.771,1.712,1.771h30.809c0.371,0,0.967,0,4.986-7.604
		l0.223-0.295l-0.223-0.295C16.186-8.229,15.589-8.229,15.219-8.229L15.219-8.229z"/>
	<polygon fill="#00ABEC" points="-2.418,2.62 -12.243,2.62 -7.331,-1.144 	"/>
	<path fill="#00ABEC" d="M-15.59,5.647c-0.299,0-0.521-0.224-0.521-0.519V-6.532c0-0.221,0.223-0.518,0.521-0.518h30.586
		c0.594,0.518,2.455,3.396,4.018,6.127c-1.563,2.879-3.424,5.979-4.018,6.57H-15.59L-15.59,5.647L-15.59,5.647z M-0.633-5.204
		c0-0.369-0.446-0.664-0.818-0.664h-11.609c-0.371,0-0.446,0.295-0.446,0.664v8.637c0,0.369,0.075,0.443,0.446,0.443h11.609
		c0.372,0,0.818-0.074,0.818-0.443V-5.204L-0.633-5.204z M14.102-5.204c0-0.369-0.223-0.664-0.596-0.664H1.897
		c-0.373,0-0.596,0.295-0.596,0.664v8.637c0,0.369,0.223,0.443,0.596,0.443h11.607c0.373,0,0.596-0.074,0.596-0.443L14.102-5.204
		L14.102-5.204z"/>
</symbol>
<symbol  id="Table" viewBox="-13.368 -11.308 26.736 22.615">
	<path fill="#FFFFFF" d="M12.353,11.308h-24.706c-0.55,0-1.015-0.463-1.015-1.01v-20.639c0-0.547,0.465-0.967,1.015-0.967h24.706
		c0.55,0,1.015,0.463,1.015,1.009V10.34C13.367,10.886,12.902,11.308,12.353,11.308z"/>
	<path fill="#00ABEC" d="M12.353,11.308h-24.706c-0.55,0-1.015-0.463-1.015-1.01v-20.639c0-0.547,0.465-0.967,1.015-0.967h24.706
		c0.55,0,1.015,0.463,1.015,1.009V10.34C13.367,10.886,12.902,11.308,12.353,11.308z M-6.432-9.331h-4.949v2.941h4.949V-9.331z
		 M-6.432-5.422h-4.949v2.941h4.949V-5.422z M-6.432-1.472h-4.949v2.942h4.949V-1.472z M-6.432,2.438h-4.949V5.38h4.949V2.438z
		 M-0.508-9.331h-4.949v2.941h4.949V-9.331z M-0.508-5.422h-4.949v2.941h4.949V-5.422z M-0.508-1.472h-4.949v2.942h4.949V-1.472z
		 M-0.508,2.438h-4.949V5.38h4.949V2.438z M5.414-9.331H0.465v2.941h4.949V-9.331z M5.414-5.422H0.465v2.941h4.949V-5.422z
		 M5.414-1.472H0.465v2.942h4.949V-1.472z M5.414,2.438H0.465V5.38h4.949V2.438z M11.379-9.331H6.43v2.941h4.949V-9.331z
		 M11.379-5.422H6.43v2.941h4.949V-5.422z M11.379-1.472H6.43v2.942h4.949V-1.472z M11.379,2.438H6.43V5.38h4.949V2.438z"/>
</symbol>
<symbol  id="Team_Foundation_Service_" viewBox="-19.615 -19.431 39.23 38.861">
	<path fill="#00ABEC" d="M9.914-7.226L0.283,0.28l9.63,7.576L9.914-7.226L9.914-7.226z M-15.295-5.261V5.611l5.24-5.542
		L-15.295-5.261L-15.295-5.261z M10.055,19.431L-5.169,5.05l-9.489,6.664l-4.957-1.754V-9.47l3.399-2.455L-5.594-4.07l15.578-15.36
		l9.631,3.856v31.075L10.055,19.431L10.055,19.431z"/>
</symbol>
<symbol  id="Traffic_Manager" viewBox="-20.29 -20.807 40.58 41.612">
	<polygon fill="#00ABEC" points="6.563,-16.496 9.714,-19.691 17.14,-12.112 14.364,-9.14 6.863,-16.496 	"/>
	<polygon fill="#00ABEC" points="6.863,16.422 16.615,6.762 16.615,-5.202 20.29,-8.769 20.29,8.62 8.438,20.806 -8.363,20.806 
		-11.438,17.685 -8.588,14.713 -6.863,16.422 	"/>
	<polygon fill="#00ABEC" points="-16.614,-6.837 -16.614,6.762 -13.389,10.031 -15.939,12.632 -20.29,8.248 -20.29,-8.694 
		-8.363,-20.807 6.339,-20.807 1.988,-16.496 -6.863,-16.496 	"/>
	<polygon fill="#00ABEC" points="-10.613,-1.264 2.363,-1.264 2.363,12.038 -1.838,7.653 -8.588,14.713 -13.389,10.031 -6.563,3.12 
			"/>
	<polygon fill="#00ABEC" points="16.615,-5.202 11.89,-0.669 15.189,2.452 5.964,2.452 5.964,-6.539 8.964,-3.418 14.364,-9.14 
		16.615,-6.837 	"/>
	<polygon fill="#00ABEC" points="-0.487,-4.904 -7.163,-4.904 -7.163,-11.89 -4.988,-9.512 1.988,-16.496 6.563,-16.496 
		-2.438,-7.134 	"/>
</symbol>
<symbol  id="Virtual_Machine" viewBox="-22.833 -18.202 45.667 36.404">
	<path fill="#00ABEC" d="M-7.896-1.863H9.336V9.64H-7.896V-1.863L-7.896-1.863z M4.554,1.47L1.277-0.36V3.3l3.276,1.896V1.47
		L4.554,1.47z M1.016,7.614l3.211-1.896L1.016,3.889l-3.276,1.829L1.016,7.614L1.016,7.614z M-2.522,5.196l3.21-1.83V-0.36
		l-3.21,1.83V5.196L-2.522,5.196z"/>
	<path fill="#00ABEC" d="M20.802,18.202h-41.605c-1.114,0-2.031-0.916-2.031-2.026v-32.417c0-1.11,0.917-1.961,2.031-1.961h41.605
		c1.113,0,2.031,0.851,2.031,1.961v32.417C22.833,17.286,21.917,18.202,20.802,18.202L20.802,18.202z M-0.164-11.993l-1.245-3.726
		c0-0.065,0-0.065-0.065-0.065c0-0.064,0-0.064-0.065-0.064s-0.065-0.065-0.131-0.065c-0.131,0-0.196,0-0.328,0
		c-0.065,0-0.13,0-0.196,0s-0.131,0-0.131,0c-0.065,0.065-0.131,0.065-0.131,0.065h-0.065l-0.065,0.064v0.065l-1.311,3.791
		c0,0.064,0,0.131,0,0.131c0,0.063,0,0.13,0,0.13c0.065,0,0.065,0.065,0.131,0.065s0.197,0,0.328,0c0.066,0,0.131,0,0.197,0
		c0.066,0,0.131,0,0.131-0.065c0.065,0,0.065,0,0.065,0c0-0.065,0.066-0.065,0.066-0.13L-2-15.065h0.066l0.982,3.27
		c0,0.063,0,0.063,0.066,0.063c0,0.065,0,0.065,0.065,0.065c0,0.065,0.065,0.065,0.131,0.065c0.065,0,0.131,0,0.197,0
		c0.131,0,0.196,0,0.262,0s0.066-0.065,0.131-0.065c0,0,0-0.065,0-0.13C-0.099-11.797-0.099-11.862-0.164-11.993L-0.164-11.993z
		 M5.405-15.784L5.405-15.784c0-0.064-0.065-0.064-0.065-0.064c-0.065,0-0.065,0-0.131-0.065c-0.065,0-0.131,0-0.196,0
		c-0.132,0-0.197,0-0.197,0C4.75-15.85,4.685-15.85,4.685-15.85c-0.065,0-0.065,0-0.065,0.064H4.554v3.464l0,0l-1.18-3.464
		c-0.065,0-0.065,0-0.065-0.064H3.244c-0.065,0-0.131-0.065-0.131-0.065c-0.065,0-0.131,0-0.196,0s-0.132,0-0.197,0
		C2.653-15.85,2.587-15.85,2.587-15.85c-0.066,0-0.066,0-0.066,0.064c-0.065,0-0.065,0-0.065,0l-1.18,3.464l0,0v-3.464l0,0
		c-0.065-0.064-0.065-0.064-0.13-0.064c0,0-0.065,0-0.065-0.065c-0.065,0-0.131,0-0.196,0c-0.131,0-0.197,0-0.197,0
		C0.623-15.85,0.558-15.85,0.558-15.85c-0.066,0-0.066,0-0.066,0.064c-0.065,0-0.065,0-0.065,0v3.791
		c0,0.131,0.065,0.196,0.131,0.261c0.065,0.065,0.131,0.065,0.196,0.065h0.589c0.066,0,0.197,0,0.262,0
		c0.066,0,0.131-0.065,0.197-0.065c0.065-0.063,0.065-0.063,0.131-0.13c0-0.064,0.065-0.195,0.065-0.262l0.918-2.549l0,0
		l0.982,2.549c0,0.065,0.065,0.196,0.065,0.196c0.065,0.064,0.065,0.131,0.131,0.194c0.065,0,0.132,0.065,0.197,0.065
		s0.131,0,0.196,0h0.59c0.065,0,0.065,0,0.131,0s0.065,0,0.131-0.065c0,0,0-0.063,0.065-0.13c0,0,0-0.064,0-0.131v-3.789H5.405
		L5.405-15.784z M10.778-2.189c0-0.589-0.524-1.11-1.114-1.11H3.438C2.785-5.719,3.112-6.046,7.306-6.046v-0.98H-5.798v0.98
		C-2-6.046-1.409-5.719-2-3.301h-6.158c-0.656,0-1.114,0.521-1.114,1.11V9.967c0,0.588,0.458,1.046,1.114,1.046H9.665
		c0.59,0,1.114-0.458,1.114-1.046V-2.189L10.778-2.189L10.778-2.189z"/>
</symbol>
<symbol  id="Virtual_network" viewBox="-22.992 -14.44 45.983 28.881">
	<polygon fill="#00ABEC" points="22.992,-0.033 20.206,3.22 10.518,14.44 8.992,12.582 19.808,-0.033 8.992,-12.648 10.518,-14.44 
		20.206,-3.286 	"/>
	<polygon fill="#00ABEC" points="-22.992,-0.033 -20.139,3.22 -10.518,14.44 -8.99,12.582 -19.807,-0.033 -8.99,-12.648 
		-10.518,-14.44 -20.139,-3.286 	"/>
	<path fill="#00ABEC" d="M-5.542-0.033c0-1.793-1.259-3.253-2.786-3.253c-1.593,0-2.854,1.46-2.854,3.253s1.261,3.319,2.854,3.319
		C-6.8,3.286-5.542,1.76-5.542-0.033"/>
	<path fill="#00ABEC" d="M0.034,3.286c-1.592,0-2.854-1.526-2.854-3.319s1.262-3.253,2.854-3.253c1.526,0,2.787,1.46,2.787,3.253
		S1.561,3.286,0.034,3.286"/>
	<path fill="#00ABEC" d="M8.328,3.286c-1.526,0-2.787-1.526-2.787-3.319S6.8-3.286,8.328-3.286c1.593,0,2.854,1.46,2.854,3.253
		S9.92,3.286,8.328,3.286"/>
</symbol>
<symbol  id="Web_Roles_-_AI" viewBox="-19.622 -14.12 39.243 28.24">
	<g>
		<path fill="#00ABEC" d="M-14.83,0c0-0.736-0.597-1.333-1.334-1.333c-0.736,0-1.333,0.597-1.333,1.333s0.597,1.333,1.333,1.333
			C-15.426,1.333-14.83,0.736-14.83,0z"/>
		<line fill="none" stroke="#00ABEC" stroke-linecap="round" x1="-16.163" y1="0" x2="-12.226" y2="0"/>
		<g>
			<path fill="#00ABEC" d="M15.497,11.995c1.1,0,1.999-0.901,1.999-1.999V-9.995c0-1.1-0.899-2.001-1.999-2.001h-25.721
				c-1.1,0-1.999,0.901-1.999,2.001V9.996c0,1.098,0.899,1.999,1.999,1.999H15.497 M15.497,11.494h-25.721
				c-0.827,0-1.498-0.672-1.498-1.498V-9.995c0-0.826,0.671-1.5,1.498-1.5h25.721c0.827,0,1.499,0.674,1.499,1.5V9.996
				C16.995,10.822,16.323,11.494,15.497,11.494L15.497,11.494z"/>
		</g>
	</g>
	<g>
		<path fill="#00ABEC" d="M-12.705-2.125c0-0.736-0.597-1.333-1.334-1.333c-0.736,0-1.333,0.597-1.333,1.333
			s0.597,1.333,1.333,1.333C-13.301-0.792-12.705-1.389-12.705-2.125z"/>
		<line fill="none" stroke="#00ABEC" stroke-linecap="round" x1="-14.038" y1="-2.125" x2="-10.101" y2="-2.125"/>
		<g>
			<path fill="#00ABEC" d="M17.621,9.87c1.1,0,2.001-0.901,2.001-2.001v-19.99c0-1.098-0.901-1.999-2.001-1.999H-8.1
				c-1.1,0-2.001,0.901-2.001,1.999v19.99c0,1.1,0.901,2.001,2.001,2.001H17.621 M17.621,9.369H-8.1c-0.827,0-1.5-0.674-1.5-1.5
				v-19.99c0-0.826,0.674-1.498,1.5-1.498H17.62c0.827,0,1.5,0.672,1.5,1.498v19.99C19.121,8.695,18.446,9.369,17.621,9.369
				L17.621,9.369z"/>
		</g>
	</g>
	<path fill="#00ABEC" d="M-16.955,2.125c0-0.736-0.597-1.333-1.334-1.333c-0.736,0-1.333,0.597-1.333,1.333s0.597,1.333,1.333,1.333
		C-17.551,3.458-16.955,2.861-16.955,2.125z"/>
	<line fill="none" stroke="#00ABEC" stroke-linecap="round" x1="-18.288" y1="2.125" x2="-14.351" y2="2.125"/>
	<g>
		<path fill="#00ABEC" d="M15.371-7.87c0-1.1-0.9-2-2-2h-25.721c-1.1,0-2,0.9-2,2v19.99c0,1.1,0.9,2,2,2h25.721c1.1,0,2-0.9,2-2
			V-7.87z"/>
	</g>
	<g>
		<g>
			<path fill="#00ABEC" d="M15.304-7.87c0-1.1-0.9-2-2-2h-25.721c-1.1,0-2,0.9-2,2v19.99c0,1.1,0.9,2,2,2h25.721c1.1,0,2-0.9,2-2
				V-7.87z"/>
		</g>
		<path fill="#FFFFFF" d="M6.417,8.111c-1.651,1.647-3.823,2.474-5.996,2.474c-2.129,0-4.302-0.825-5.953-2.474
			c-1.65-1.647-2.477-3.817-2.477-5.986c0-2.17,0.826-4.295,2.477-5.987C-3.881-5.51-1.708-6.334,0.42-6.334
			c2.173,0,4.345,0.823,5.996,2.472C8.11-2.17,8.895,0.042,8.895,2.212C8.895,4.338,8.067,6.464,6.417,8.111z M-2.795,8.719
			c-0.478-0.477-0.869-0.997-1.217-1.604c-0.217,0.13-0.391,0.217-0.564,0.347C-4.056,7.981-3.446,8.372-2.795,8.719z M-5.056,6.983
			c0.218-0.174,0.479-0.348,0.696-0.479C-4.88,5.379-5.186,3.99-5.271,2.559h-1.607C-6.792,4.121-6.185,5.683-5.056,6.983z
			 M-6.879,1.778h1.607c0.044-1.477,0.392-2.863,0.913-3.991C-4.577-2.388-4.837-2.518-5.056-2.69
			C-6.185-1.432-6.792,0.172-6.879,1.778z M-4.577-3.211c0.174,0.129,0.348,0.26,0.564,0.39c0.348-0.605,0.739-1.17,1.217-1.604
			C-3.446-4.122-4.056-3.688-4.577-3.211z M-0.015-4.903c-1.26,0.175-2.433,1.085-3.215,2.475c0.955,0.39,2.042,0.605,3.215,0.692
			V-4.903z M-0.015-1.085c-1.26-0.044-2.477-0.305-3.52-0.738c-0.479,1.042-0.782,2.256-0.825,3.603h4.345V-1.085z M-0.015,2.559
			h-4.345c0.086,1.303,0.347,2.517,0.825,3.559c1.043-0.479,2.26-0.737,3.52-0.781V2.559z M-0.015,6.03
			c-1.173,0.042-2.26,0.259-3.215,0.692c0.782,1.346,1.955,2.256,3.215,2.431V6.03z M7.764,2.559h-1.65
			C6.068,3.99,5.766,5.335,5.2,6.506C5.46,6.637,5.721,6.811,5.938,6.984C7.067,5.683,7.678,4.121,7.764,2.559z M5.46,7.461
			C5.287,7.331,5.113,7.2,4.896,7.114C4.548,7.722,4.158,8.242,3.68,8.719C4.332,8.372,4.896,7.981,5.46,7.461z M0.854,9.153
			C2.159,8.979,3.289,8.068,4.07,6.723C3.158,6.289,2.028,6.072,0.854,6.03V9.153z M0.854,5.335
			c1.304,0.044,2.519,0.304,3.562,0.781C4.896,5.074,5.157,3.86,5.2,2.559H0.854V5.335z M0.854,1.778H5.2
			C5.157,0.432,4.896-0.782,4.417-1.824C3.375-1.39,2.159-1.129,0.854-1.085V1.778z M0.854-4.903v3.167
			C2.028-1.779,3.158-2.04,4.07-2.43C3.289-3.818,2.159-4.729,0.854-4.903z M3.68-4.426c0.479,0.435,0.869,0.998,1.217,1.604
			c0.218-0.13,0.391-0.261,0.564-0.39C4.896-3.688,4.332-4.122,3.68-4.426z M5.938-2.69C5.722-2.518,5.46-2.388,5.2-2.213
			c0.565,1.128,0.869,2.516,0.956,3.991h1.607C7.678,0.13,7.067-1.432,5.938-2.69z"/>
	</g>
</symbol>
<symbol  id="Windows_Azure_Cache" viewBox="-18.981 -20.877 37.962 41.755">
	<path fill="#00ABEC" d="M-13.945,16.04c0,1.4,4.649,2.609,10.459,2.609c5.745,0,10.394-1.209,10.394-2.609
		S2.26,13.431-3.486,13.431C-9.296,13.431-13.945,14.64-13.945,16.04L-13.945,16.04z M-4.712-18.331V6.364
		c0,3.056,4.906,4.52,12.072,4.52c1.614,0,3.163-0.127,4.584-0.317v5.475c0,2.673-6.908,4.837-15.43,4.837
		s-15.495-2.164-15.495-4.837v-31.697c0-2.674,6.973-4.838,15.495-4.838l1.032,0.063C-3.874-19.858-4.712-19.095-4.712-18.331
		L-4.712-18.331z"/>
	<path fill="#00ABEC" d="M7.876,2.991c-4.131,0-7.553,0.828-7.553,1.91c0,1.018,3.422,1.846,7.553,1.846
		c4.132,0,7.49-0.828,7.49-1.846C15.366,3.819,12.009,2.991,7.876,2.991L7.876,2.991z M14.397-7.319L0.646-18.521l5.295,8.656H1.356
		L15.043,1.337L9.749-7.319H14.397L14.397-7.319z M7.876,8.911c-6.133,0-10.717-1.465-10.717-3.373v-22.852
		c0-1.908,4.584-3.563,10.717-3.563s11.105,1.591,11.105,3.501v22.85C18.981,7.384,14.01,8.911,7.876,8.911L7.876,8.911z"/>
</symbol>
<symbol  id="Windows_Azure_Load_Balancer__x28_stretchable_x29_" viewBox="-37.652 -19.891 75.304 39.783">
	<polygon fill="#00ABEC" points="-37.038,-19.412 -27.313,19.412 27.313,19.412 37.038,-19.412 	"/>
	<polygon fill="none" stroke="#00ABEC" stroke-width="0.9586" stroke-miterlimit="8" points="-37.038,-19.412 -27.313,19.412 
		27.313,19.412 37.038,-19.412 	"/>
	<g>
		<path fill="#FFFFFF" d="M10.14,0.81c-0.484,0-0.895-0.403-0.895-0.883v-3.274L0.82,4.968v4.27
			c1.118,0.404,1.938,1.436,1.938,2.648c0,1.547-1.268,2.834-2.833,2.834c-1.565,0-2.833-1.287-2.833-2.834
			c0-1.214,0.782-2.244,1.938-2.648v-4.27l-8.238-8.133v3.092c0,0.479-0.41,0.883-0.895,0.883c-0.522,0-0.932-0.403-0.932-0.883
			v-6.108h6.226c0.484,0,0.895,0.403,0.895,0.883c0,0.479-0.411,0.884-0.895,0.884h-3.169l7.008,6.882V-11.37l-2.274,2.245
			c-0.335,0.33-0.895,0.33-1.268,0C-4.66-9.311-4.771-9.532-4.771-9.752c0-0.258,0.111-0.479,0.261-0.662l4.399-4.306l4.362,4.306
			c0.335,0.368,0.335,0.919,0,1.288c-0.335,0.33-0.895,0.33-1.268,0L0.82-11.298V2.466l6.97-6.882H4.847
			c-0.485,0-0.895-0.405-0.895-0.884c0-0.479,0.41-0.883,0.895-0.883h6.188v6.108C11.035,0.405,10.625,0.81,10.14,0.81L10.14,0.81z"
			/>
	</g>
</symbol>
<symbol  id="Windows_Azure_SDK" viewBox="-23.275 -21.695 46.549 43.391">
	<path fill="#00ABEC" d="M-0.272-2.959L2.274-5.43l2.95,2.814C5.05-1.235,5.513,0.201,6.613,1.236
		c1.1,1.034,2.546,1.493,3.934,1.321l12.728,12.241l-7.115,6.896L3.431,9.397c0.173-1.321-0.289-2.76-1.389-3.794
		C0.943,4.57-0.503,4.11-1.892,4.283l-2.951-2.816l2.604-2.472l-12.612-12.068l-0.463,0.402l-2.429-1.84l-4.05-6.206l1.041-0.979
		l6.422,3.908l1.967,2.299l-0.463,0.46L-0.272-2.959L-0.272-2.959z"/>
	<path fill="#00ABEC" d="M-10.223,1.984V1.926l4.281-4.08l1.331,1.322l-1.735,1.724l-0.81,0.747l4.339,4.195l0.579-0.057
		c0.116,0,0.29,0,0.405,0c0.29,0,0.579,0,0.81,0.057l-2.545,2.472l-0.173,0.173c0.868,3.219,0.058,6.781-2.546,9.311
		c-2.603,2.528-6.306,3.333-9.661,2.472l5.612-5.401l-1.447-5.287l-5.496-1.438l-5.67,5.402c-0.868-3.16,0-6.725,2.604-9.252
		C-17.628,1.639-13.694,0.892-10.223,1.984L-10.223,1.984z"/>
	<path fill="#00ABEC" d="M4.877-6.35l5.496,0.805l0,0l0.463,0.058L7.018-1.752C6.901-2.154,6.901-2.557,6.901-2.959l0.058-0.517
		L6.612-3.878L3.72-6.637l-1.1-1.034L0.075-5.258l-1.388-1.265l6.19-5.978V-6.35L4.877-6.35L4.877-6.35z"/>
	<path fill="#00ABEC" d="M-6-19.625c0-0.575-0.231-0.978-0.636-1.322c-0.405-0.287-0.926-0.46-1.62-0.46
		c-0.231,0-0.521,0.059-0.81,0.115c-0.347,0.115-0.521,0.173-0.694,0.287v0.92c0.231-0.173,0.463-0.345,0.752-0.46
		c0.347-0.115,0.636-0.172,0.868-0.172c0.868,0,1.273,0.345,1.273,1.034c0,0.229-0.058,0.517-0.231,0.688
		c-0.231,0.173-0.579,0.46-1.157,0.805c-0.521,0.287-0.926,0.574-1.157,0.862c-0.231,0.287-0.347,0.632-0.347,1.034
		c0,0.518,0.231,0.92,0.637,1.265c0.405,0.346,0.868,0.459,1.504,0.459c0.579,0,1.042-0.057,1.331-0.229v-0.862
		c-0.347,0.288-0.81,0.402-1.388,0.402c-0.347,0-0.636-0.059-0.868-0.229c-0.231-0.229-0.347-0.46-0.347-0.747
		c0-0.229,0-0.401,0.058-0.518c0.116-0.172,0.231-0.287,0.405-0.402c0.116-0.114,0.405-0.345,0.81-0.517
		c0.579-0.346,0.984-0.633,1.273-0.92C-6.115-18.878-6-19.223-6-19.625L-6-19.625z"/>
	<path fill="#00ABEC" d="M0.711-17.901c0-0.688-0.174-1.265-0.463-1.78c-0.29-0.519-0.752-0.92-1.273-1.207
		c-0.579-0.287-1.157-0.402-1.909-0.402H-4.67v6.667h1.852C-0.503-14.625,0.711-15.718,0.711-17.901L0.711-17.901z M-0.156-17.901
		c0,1.726-0.868,2.529-2.719,2.529h-1.042v-5.229h0.984c0.926,0,1.62,0.229,2.083,0.688C-0.388-19.396-0.156-18.764-0.156-17.901
		L-0.156-17.901z"/>
	<path fill="#00ABEC" d="M6.67-21.292H5.571l-2.604,3.046c-0.058,0.058-0.116,0.173-0.174,0.229l0,0v-3.275h-0.81v6.667h0.81v-3.161
		l0,0l0.174,0.229l2.545,2.932h0.926l-2.835-3.219L6.67-21.292L6.67-21.292z"/>
	<polygon fill="#00ABEC" points="14.596,-14.051 21.365,-14.051 21.365,-8.073 14.596,-9.051 	"/>
	<polygon fill="#00ABEC" points="14.018,-14.051 14.018,-9.108 8.868,-9.798 8.868,-14.051 	"/>
	<polygon fill="#00ABEC" points="14.018,-14.625 8.868,-14.625 8.868,-18.706 14.018,-19.396 	"/>
	<polygon fill="#00ABEC" points="14.596,-14.625 14.596,-19.511 21.365,-20.43 21.365,-14.625 	"/>
</symbol>
<symbol  id="Windows_Azure_Storage__x28_the_feature_x29_" viewBox="-25.345 -21.549 50.69 43.099">
	<path fill="#FFFFFF" d="M12.987,21.55h-36.82c-0.819,0-1.512-0.688-1.512-1.504v-30.758c0-0.814,0.693-1.441,1.512-1.441h36.82
		c0.819,0,1.513,0.689,1.513,1.504v30.759C14.5,20.923,13.807,21.55,12.987,21.55z"/>
	<path fill="#00ABEC" d="M17.779,4.698H14.5v15.348c0,0.814-0.693,1.504-1.513,1.504h-36.82c-0.819,0-1.512-0.688-1.512-1.504
		v-30.758c0-0.814,0.693-1.441,1.512-1.441H-2.9l5.422-9.396H17.78l7.565,13.156L17.779,4.698L17.779,4.698z M4.161,12.717h7.376
		V8.332H4.161V12.717L4.161,12.717z M11.537,6.892V4.698H4.161v2.192L11.537,6.892L11.537,6.892z M-4.667,12.717h7.314V8.332h-7.314
		V12.717L-4.667,12.717z M-4.667,6.892h7.314V4.698H2.521l-1.26-2.192h-5.927L-4.667,6.892L-4.667,6.892z M-4.667,1.003h5.044
		l-2.521-4.385h-2.523V1.003L-4.667,1.003z M-3.026-4.823l-1.64-2.881v2.881H-3.026L-3.026-4.823z M-15.006-9.208h-7.376v4.385
		h7.376V-9.208L-15.006-9.208z M-15.006-3.382h-7.376v4.385h7.376V-3.382L-15.006-3.382z M-15.006,2.506h-7.376v4.386h7.376V2.506
		L-15.006,2.506z M-15.006,8.332h-7.376v4.385h7.376V8.332L-15.006,8.332z M-6.179-9.208h-7.376v4.385h7.376V-9.208L-6.179-9.208z
		 M-6.179-3.382h-7.376v4.385h7.376V-3.382L-6.179-3.382z M-6.179,2.506h-7.376v4.386h7.376V2.506L-6.179,2.506z M-6.179,8.332
		h-7.376v4.385h7.376V8.332L-6.179,8.332z M-4.667-9.208v0.063l0.064-0.063H-4.667L-4.667-9.208z"/>
</symbol>
<symbol  id="cspkg_file" viewBox="-15.074 -23.018 30.148 46.034">
	<text transform="matrix(1.0166 0 0 -1 -14.3057 -19.5889)" fill="#00ABEC" font-family="'Calibri'" font-size="11.165">c</text>
	<text transform="matrix(1.0166 0 0 -1 -9.7554 -19.5889)" fill="#00ABEC" font-family="'Calibri'" font-size="11.165">s</text>
	<text transform="matrix(1.0166 0 0 -1 -5.2256 -19.5889)" fill="#00ABEC" font-family="'Calibri'" font-size="11.165">p</text>
	<text transform="matrix(1.0166 0 0 -1 1.5776 -19.5889)" fill="#00ABEC" font-family="'Calibri'" font-size="11.165">k</text>
	<text transform="matrix(1.0166 0 0 -1 7.2471 -19.5889)" fill="#00ABEC" font-family="'Calibri'" font-size="11.165">g</text>
	<polygon fill="#00ABEC" points="-8.123,18.342 -14.223,14.923 -14.223,14.714 -0.036,6.688 6.207,10.178 	"/>
	<polygon fill="#00ABEC" points="14.151,14.714 14.151,14.923 -0.036,23.017 -6.42,19.389 7.98,11.224 	"/>
	<polygon fill="#00ABEC" points="0.887,5.224 0.887,-10.757 15.074,-2.662 15.074,13.248 	"/>
	<polygon fill="#00ABEC" points="-0.887,5.224 -15.074,13.248 -15.074,-2.662 -0.887,-10.757 	"/>
</symbol>
<symbol  id="rdp_file" viewBox="-15.164 -22.538 30.327 45.077">
	<text transform="matrix(1.0214 0 0 -1 -9.0288 -19.0967)" fill="#00ABEC" font-family="'Calibri'" font-size="11.2049">r</text>
	<text transform="matrix(1.0214 0 0 -1 -4.4551 -19.0967)" fill="#00ABEC" font-family="'Calibri'" font-size="11.2049">d</text>
	<text transform="matrix(1.0214 0 0 -1 1.271 -19.0967)" fill="#00ABEC" font-family="'Calibri'" font-size="11.2049">p</text>
	<polygon fill="#00ABEC" points="5.292,12.805 -0.144,7.553 5.292,2.229 7.009,3.981 3.434,7.553 7.009,11.054 	"/>
	<polygon fill="#00ABEC" points="-7.295,7.622 -3.72,4.121 -7.295,0.55 -5.507,-1.132 -0.144,4.121 -5.507,9.374 	"/>
	<path fill="#00ABEC" d="M8.87,22.47H8.44c0,0-1.431,0.069-3.075,0.069h-16.452c-2.217,0-4.077-1.821-4.077-4.063V-4.353
		c0-2.24,1.86-3.992,4.077-3.992h22.173c2.289,0,4.077,1.752,4.077,3.992v17.508v3.221L8.87,22.47L8.87,22.47z M12.946-4.353
		c0-1.052-0.858-1.82-1.859-1.82h-22.173c-1.001,0-1.86,0.77-1.86,1.82v22.829c0,1.052,0.858,1.82,1.86,1.82H5.366
		c1.001,0,2.002,0,2.503,0v-5.042h5.078V-4.353L12.946-4.353z"/>
</symbol>
<symbol  id="wadcfg_file" viewBox="-16.81 -22.503 33.619 45.006">
	<path fill="#00ABEC" d="M9.221,22.434H8.796c0,0-1.485,0.069-3.041,0.069h-16.266c-2.263,0-4.032-1.82-4.032-4.061V-4.389
		c0-2.24,1.769-3.991,4.032-3.991h21.924c2.192,0,4.031,1.751,4.031,3.991v17.508v3.222L9.221,22.434L9.221,22.434z M11.414-6.209
		h-21.925c-0.99,0-1.839,0.771-1.839,1.82v22.831c0,1.05,0.849,1.819,1.839,1.819H5.755c0.99,0,1.91,0,2.476,0V15.22h5.021V-4.389
		C13.252-5.438,12.404-6.209,11.414-6.209L11.414-6.209z"/>
	<polygon fill="#00ABEC" points="-6.762,12.699 -6.762,10.108 7.312,10.108 7.312,12.699 	"/>
	<polygon fill="#00ABEC" points="-6.762,7.728 -6.762,5.136 7.312,5.136 7.312,7.728 	"/>
	<polygon fill="#00ABEC" points="-6.762,2.825 -6.762,0.233 7.312,0.233 7.312,2.825 	"/>
	<text transform="matrix(1.0099 0 0 -1 -16.8096 -19.0615)" fill="#00ABEC" font-family="'Calibri'" font-size="11.2049">w</text>
	<text transform="matrix(1.0099 0 0 -1 -8.8784 -19.0615)" fill="#00ABEC" font-family="'Calibri'" font-size="11.2049">a</text>
	<text transform="matrix(1.0099 0 0 -1 -3.2324 -19.0615)" fill="#00ABEC" font-family="'Calibri'" font-size="11.2049">d</text>
	<text transform="matrix(1.0099 0 0 -1 3.5503 -19.0615)" fill="#00ABEC" font-family="'Calibri'" font-size="11.2049">c</text>
	<text transform="matrix(1.0099 0 0 -1 8.0864 -19.0615)" fill="#00ABEC" font-family="'Calibri'" font-size="11.2049">f</text>
	<text transform="matrix(1.0099 0 0 -1 11.4829 -19.0615)" fill="#00ABEC" font-family="'Calibri'" font-size="11.2049">g</text>
</symbol>
<use xlink:href="#Windows_Azure_SDK"  width="46.549" height="43.391" x="-23.275" y="-21.695" transform="matrix(0.671 0 0 -0.671 221.269 61.9805)" overflow="visible"/>
<use xlink:href="#Management_Certificate"  width="54.043" height="62.669" id="XMLID_3_" x="-27.021" y="-31.334" transform="matrix(0.671 0 0 -0.671 221.2686 190.8076)" overflow="visible"/>
<use xlink:href="#Service_Certificate"  width="48.01" height="53.628" id="XMLID_2_" x="-24.005" y="-26.814" transform="matrix(0.671 0 0 -0.671 221.2686 241.8037)" overflow="visible"/>
<use xlink:href="#Team_Foundation_Service_"  width="39.23" height="38.861" x="-19.615" y="-19.431" transform="matrix(0.671 0 0 -0.671 408.5278 159.2046)" overflow="visible"/>
<use xlink:href="#Git_Repository"  width="45.678" height="45.254" x="-22.839" y="-22.627" transform="matrix(0.671 0 0 -0.671 408.5298 194.957)" overflow="visible"/>
<use xlink:href="#GitHub_code"  width="43.089" height="42.74" x="-21.544" y="-21.37" transform="matrix(0.671 0 0 -0.671 408.5298 230.7109)" overflow="visible"/>
<use xlink:href="#DropBox"  width="45.784" height="42.457" x="-22.892" y="-21.229" transform="matrix(0.671 0 0 -0.671 408.5278 266.4634)" overflow="visible"/>
<use xlink:href="#BitBucket"  width="35.563" height="40.525" x="-17.781" y="-20.263" transform="matrix(0.671 0 0 -0.671 408.5278 302.2183)" overflow="visible"/>
<use xlink:href="#CodePlex_Source_Code"  width="42.883" height="32.272" x="-21.441" y="-16.136" transform="matrix(0.671 0 0 -0.671 408.5298 337.9722)" overflow="visible"/>
<use xlink:href="#cspkg_file"  width="30.148" height="46.034" x="-15.074" y="-23.018" transform="matrix(0.671 0 0 -0.671 467.8618 363.605)" overflow="visible"/>
<use xlink:href="#wadcfg_file"  width="33.619" height="45.006" x="-16.81" y="-22.503" transform="matrix(0.671 0 0 -0.671 467.8618 403.7964)" overflow="visible"/>
<use xlink:href="#rdp_file"  width="30.327" height="45.077" x="-15.164" y="-22.538" transform="matrix(0.671 0 0 -0.671 467.8618 443.9858)" overflow="visible"/>
<use xlink:href="#Startup_Task"  width="30.47" height="31.285" x="-15.235" y="-15.643" transform="matrix(0.671 0 0 -0.671 467.8618 484.1792)" overflow="visible"/>
<use xlink:href="#Virtual_Machine"  width="45.667" height="36.404" x="-22.833" y="-18.202" transform="matrix(0.671 0 0 -0.671 522.4165 122.3188)" overflow="visible"/>
<use xlink:href="#Mobile_Service"  width="27.225" height="44.653" x="-13.612" y="-22.326" transform="matrix(0.671 0 0 -0.671 522.4165 287.6479)" overflow="visible"/>
<use xlink:href="#Windows_Azure_Storage__x28_the_feature_x29_"  width="50.69" height="43.099" id="XMLID_13_" x="-25.345" y="-21.549" transform="matrix(0.671 0 0 -0.671 572.6235 55.6372)" overflow="visible"/>
<use xlink:href="#Storage_Queue"  width="45.173" height="38.752" id="XMLID_16_" x="-22.586" y="-19.376" transform="matrix(0.671 0 0 -0.671 574.1255 194.2144)" overflow="visible"/>
<use xlink:href="#SQL_Database__x28_Windows_Azure_x29_"  width="42.492" height="44.143" x="-21.246" y="-22.071" transform="matrix(0.671 0 0 -0.671 574.1235 230.6143)" overflow="visible"/>
<use xlink:href="#SQL_Data_Sync"  width="29.854" height="38.61" x="-14.927" y="-19.305" transform="matrix(0.671 0 0 -0.671 574.1255 267.0161)" overflow="visible"/>
<use xlink:href="#SQL_Reporting__x28_Deprecated_x29_"  width="31.12" height="39.604" x="-15.56" y="-19.802" transform="matrix(0.671 0 0 -0.671 574.1255 303.4155)" overflow="visible"/>
<use xlink:href="#HDInsight__x28_Hadoop_x29_"  width="40.448" height="41.05" x="-20.224" y="-20.525" transform="matrix(0.671 0 0 -0.671 574.1255 339.8159)" overflow="visible"/>
<use xlink:href="#Backup_Service"  width="47.801" height="41.762" x="-23.9" y="-20.881" transform="matrix(0.671 0 0 -0.671 574.1255 412.6187)" overflow="visible"/>
<use xlink:href="#Windows_Azure_Cache"  width="37.962" height="41.755" x="-18.981" y="-20.877" transform="matrix(0.671 0 0 -0.671 626.7817 78.3027)" overflow="visible"/>
<use xlink:href="#Content_Delivery_Network__x28_CDN_x29_"  width="47.307" height="31.975" x="-23.653" y="-15.987" transform="matrix(0.671 0 0 -0.671 626.7817 113.0254)" overflow="visible"/>
<use xlink:href="#Access_Control"  width="41.535" height="41.679" x="-20.768" y="-20.839" transform="matrix(0.671 0 0 -0.671 626.7817 182.4727)" overflow="visible"/>
<use xlink:href="#Media_Services"  width="36.883" height="40.807" id="XMLID_12_" x="-18.441" y="-20.403" transform="matrix(1.2073 0 0 -1.2073 637.5591 234.7046)" overflow="visible"/>
<use xlink:href="#Service_Bus__x28_Feature_x29_"  width="36.641" height="42.864" x="-18.32" y="-21.433" transform="matrix(0.671 0 0 -0.671 689.3618 83.6714)" overflow="visible"/>
<use xlink:href="#Service_Bus_Relay"  width="36.511" height="44.793" id="XMLID_1_" x="-18.255" y="-22.396" transform="matrix(0.671 0 0 -0.671 689.3618 116.9517)" overflow="visible"/>
<use xlink:href="#Service_Bus_Queue"  width="38.156" height="43.61" x="-19.078" y="-21.805" transform="matrix(0.671 0 0 -0.671 689.3599 150.2314)" overflow="visible"/>
<use xlink:href="#Notification_Topic"  width="37.781" height="37.572" x="-18.891" y="-18.786" transform="matrix(0.671 0 0 -0.671 689.3618 216.7925)" overflow="visible"/>
<use xlink:href="#BizTalk_Services"  width="41.115" height="39.543" x="-20.558" y="-19.771" transform="matrix(0.671 0 0 -0.671 734.6528 74.9482)" overflow="visible"/>
<use xlink:href="#Scheduler"  width="32.711" height="41.567" x="-16.356" y="-20.783" transform="matrix(0.671 0 0 -0.671 734.6509 116.5479)" overflow="visible"/>
<use xlink:href="#Multi-Factor_Authentication"  width="25.812" height="50.314" x="-12.906" y="-25.157" transform="matrix(0.671 0 0 -0.671 734.6509 158.1494)" overflow="visible"/>
<use xlink:href="#Virtual_network"  width="45.983" height="28.881" x="-22.992" y="-14.44" transform="matrix(0.671 0 0 -0.671 734.6509 199.7495)" overflow="visible"/>
<use xlink:href="#Traffic_Manager"  width="40.58" height="41.612" x="-20.29" y="-20.807" transform="matrix(0.671 0 0 -0.671 734.6528 241.3521)" overflow="visible"/>
<use xlink:href="#Table"  width="26.736" height="22.615" x="-13.368" y="-11.308" transform="matrix(1 0 0 -1 550.7349 22.6831)" overflow="visible"/>
<use xlink:href="#Web_Roles_-_AI"  width="39.243" height="28.24" x="-19.622" y="-14.12" transform="matrix(1 0 0 -1 451.4341 164.3936)" overflow="visible"/>
<g>
	<path fill="none" stroke="#00ABEC" stroke-width="0.5" d="M480.069,184.755"/>
</g>
<use xlink:href="#Windows_Azure_Load_Balancer__x28_stretchable_x29_"  width="75.304" height="39.783" x="-37.652" y="-19.891" transform="matrix(0 -2.4067 -2.4067 0 54.6309 463.3218)" overflow="visible"/>
</svg>
