<?xml version="1.0" encoding="utf-8"?>
<!-- Generator: Adobe Illustrator 13.0.0, SVG Export Plug-In . SVG Version: 6.00 Build 14948)  -->
<!DOCTYPE svg PUBLIC "-//W3C//DTD SVG 1.1//EN" "http://www.w3.org/Graphics/SVG/1.1/DTD/svg11.dtd">
<svg version="1.1" id="Layer_1" xmlns="http://www.w3.org/2000/svg" xmlns:xlink="http://www.w3.org/1999/xlink" x="0px" y="0px"
	 width="27.792px" height="27.967px" viewBox="0 0 27.792 27.967" enable-background="new 0 0 27.792 27.967" xml:space="preserve">
<g>
	<path fill="#00ABEC" d="M8.262,14.989c0.214,0.343,0.343,0.729,0.343,1.113c0,0.214-0.042,0.386-0.086,0.6l4.776,2.869v-8.309
		c-0.086,0-0.345-0.47-0.387-0.514L8.262,14.989L8.262,14.989z"/>
	<path fill="#00ABEC" d="M15.23,10.664c-0.086,0.042-0.816,0.642-0.903,0.642v8.265l4.732-3.04c-0.043-0.128-0.043-0.3-0.043-0.471
		c0-0.257,0.042-0.515,0.129-0.771L15.23,10.664L15.23,10.664z"/>
	<path fill="#00ABEC" d="M21.252,18.287c-0.601,0-1.204-0.257-1.591-0.686L15.833,20.3c0.259,0.386,0.345,0.771,0.345,1.199
		c0,1.242-0.989,2.227-2.237,2.227c-1.205,0-2.194-0.985-2.194-2.227c0-0.515,0.171-1.027,0.516-1.413L7.874,17.73
		c-0.386,0.386-0.946,0.6-1.506,0.6c-1.204,0-2.237-0.985-2.237-2.227c0-1.199,1.033-2.227,2.237-2.227
		c0.388,0,0.732,0.085,1.033,0.299l4.647-4.283c-0.344-0.386-0.517-0.9-0.517-1.456c0-1.329,1.119-2.399,2.452-2.399
		c1.333,0,2.452,1.07,2.452,2.399c0,0.47-0.13,0.899-0.388,1.285l3.872,4.582c0.387-0.299,0.859-0.471,1.333-0.471
		c1.247,0,2.236,1.028,2.236,2.227C23.49,17.302,22.458,18.287,21.252,18.287L21.252,18.287z M14.025,0.299V0.085L13.939,0.17
		L13.767,0v0.385L0,16.616l13.853,11.222v0.128L27.792,16.66L14.025,0.299L14.025,0.299z"/>
</g>
</svg>
