<?xml version="1.0" encoding="utf-8"?>
<!-- Generator: Adobe Illustrator 13.0.0, SVG Export Plug-In . SVG Version: 6.00 Build 14948)  -->
<!DOCTYPE svg PUBLIC "-//W3C//DTD SVG 1.1//EN" "http://www.w3.org/Graphics/SVG/1.1/DTD/svg11.dtd">
<svg version="1.1" id="Layer_1" xmlns="http://www.w3.org/2000/svg" xmlns:xlink="http://www.w3.org/1999/xlink" x="0px" y="0px"
	 width="33.863px" height="28.742px" viewBox="0 0 33.863 28.742" enable-background="new 0 0 33.863 28.742" xml:space="preserve">
<g>
	<path fill="#00ABEC" d="M33.41,25.042l-7.084-11.477l-7.138-12.13c-1.153-1.904-3.404-1.904-4.501-0.054L7.549,12.912L0.411,24.987
		c-1.098,1.904,0.11,3.753,2.361,3.753h28.386C33.41,28.74,34.562,26.891,33.41,25.042L33.41,25.042z M18.859,8.18L18.31,18.406
		h-2.745L15.016,8.18H18.859L18.859,8.18z M16.937,24.606c-1.318,0-2.141-0.925-2.141-2.176c0-1.25,0.878-2.175,2.141-2.175
		c1.318,0,2.142,0.925,2.142,2.175C19.079,23.681,18.256,24.606,16.937,24.606L16.937,24.606z"/>
</g>
</svg>
