<?xml version="1.0" encoding="utf-8"?>
<!-- Generator: Adobe Illustrator 13.0.0, SVG Export Plug-In . SVG Version: 6.00 Build 14948)  -->
<!DOCTYPE svg PUBLIC "-//W3C//DTD SVG 1.1//EN" "http://www.w3.org/Graphics/SVG/1.1/DTD/svg11.dtd">
<svg version="1.1" id="Layer_1" xmlns="http://www.w3.org/2000/svg" xmlns:xlink="http://www.w3.org/1999/xlink" x="0px" y="0px"
	 width="32.268px" height="20.613px" viewBox="0 0 32.268 20.613" enable-background="new 0 0 32.268 20.613" xml:space="preserve">
<g>
	<path fill="#00ABEC" d="M16.157,8.454c-0.995,0-1.848,0.854-1.848,1.853c0,1.045,0.806,1.853,1.848,1.853
		c0.995,0,1.848-0.808,1.848-1.853C18.005,9.308,17.154,8.454,16.157,8.454"/>
	<path fill="#00ABEC" d="M16.157,2.754C9.76,2.754,4.027,1.709,0,0v20.613c4.027-1.71,9.76-2.755,16.158-2.755
		c6.349,0,12.13,1.046,16.11,2.755V0C28.287,1.709,22.507,2.754,16.157,2.754L16.157,2.754z M21.938,10.971l-1.61,0.569
		l-0.332,0.903l0.664,1.329l0.047,0.144l-0.899,0.949l-1.563-0.713l-0.901,0.381l-0.426,1.425l-0.095,0.143h-1.28l-0.616-1.567
		l-0.9-0.38l-1.327,0.665l-0.142,0.095l-0.948-0.95l0.711-1.521l-0.38-0.902l-1.374-0.475l-0.236-0.048V9.689l1.611-0.57
		l0.379-0.902l-0.664-1.33l-0.095-0.19l0.948-0.95l1.516,0.76l0.948-0.379L15.4,4.702l0.095-0.19h1.28l0.568,1.615l0.947,0.379
		l1.279-0.713l0.189-0.095l0.521,0.522c0.095,0.19,0.237,0.379,0.331,0.57l-0.616,1.426l0.379,0.901l1.375,0.428l0.188,0.095V10.971
		L21.938,10.971L21.938,10.971z"/>
</g>
</svg>
