<?xml version="1.0" encoding="utf-8"?>
<!-- Generator: Adobe Illustrator 13.0.0, SVG Export Plug-In . SVG Version: 6.00 Build 14948)  -->
<!DOCTYPE svg PUBLIC "-//W3C//DTD SVG 1.1//EN" "http://www.w3.org/Graphics/SVG/1.1/DTD/svg11.dtd">
<svg version="1.1" id="Layer_1" xmlns="http://www.w3.org/2000/svg" xmlns:xlink="http://www.w3.org/1999/xlink" x="0px" y="0px"
	 width="32.348px" height="28.979px" viewBox="0 0 32.348 28.979" enable-background="new 0 0 32.348 28.979" xml:space="preserve">
<g>
	<path fill="#7F7F7F" d="M29.924,13.855c0-0.234,0-0.468,0-0.704l2.423-1.315c-0.144-0.797-0.333-1.597-0.617-2.348l-2.804,0.046
		c-0.189-0.422-0.427-0.845-0.712-1.221l1.424-2.396c-0.475-0.609-1.044-1.174-1.662-1.642l-1.425,0.797l-0.618,0.893L24.65,7.844
		c1.806,1.362,2.993,3.569,2.993,6.011c0,4.229-3.42,7.609-7.695,7.609c-4.274,0-7.694-3.381-7.694-7.609
		c0-3.757,2.754-6.904,6.365-7.513l0.617-2.348l-1.377-2.396c-0.808,0.094-1.568,0.329-2.328,0.61l0.048,2.771
		c-0.427,0.189-0.855,0.423-1.235,0.705l-2.375-1.409c-0.618,0.468-1.188,1.033-1.71,1.69l1.425,2.349
		c-0.285,0.377-0.522,0.798-0.712,1.221L8.17,9.49c-0.285,0.751-0.475,1.55-0.617,2.348l2.422,1.315c0,0.236,0,0.47,0,0.705
		c0,0.236,0,0.47,0,0.706l-2.422,1.361c0.143,0.798,0.333,1.551,0.617,2.303l2.802-0.048c0.19,0.423,0.427,0.846,0.712,1.222
		l-1.425,2.394c0.523,0.611,1.045,1.175,1.71,1.692l2.375-1.411c0.38,0.236,0.808,0.47,1.235,0.706l-0.048,2.725
		c0.76,0.281,1.521,0.516,2.328,0.609l1.377-2.395c0.237,0.047,0.476,0.047,0.712,0.047c0.238,0,0.476-0.047,0.713-0.047l1.33,2.395
		c0.807-0.095,1.615-0.328,2.374-0.609l-0.047-2.725c0.428-0.236,0.855-0.47,1.235-0.706l2.422,1.411
		c0.57-0.518,1.188-1.081,1.662-1.692L28.214,19.4c0.285-0.377,0.521-0.799,0.712-1.222l2.804,0.048
		c0.284-0.752,0.474-1.504,0.617-2.303l-2.423-1.361C29.924,14.325,29.924,14.091,29.924,13.855L29.924,13.855z"/>
	<path fill="#7F7F7F" d="M5.321,25.409c-0.95,0-1.71-0.752-1.71-1.644c0-0.939,0.76-1.691,1.71-1.691
		c0.902,0,1.663,0.751,1.663,1.691C6.982,24.657,6.222,25.409,5.321,25.409L5.321,25.409z M8.596,19.633l-0.142,0.047L7.22,20.289
		l-0.808-0.328l-0.523-1.456H4.702l-0.047,0.188l-0.428,1.269l-0.854,0.328l-1.377-0.609L1.14,20.476l0.047,0.188l0.618,1.175
		l-0.333,0.845l-1.473,0.518v1.175l0.19,0.046l1.282,0.423l0.333,0.799L1.14,27.052l0.902,0.847l0.142-0.095l1.188-0.611
		l0.854,0.329l0.523,1.456h1.188l0.048-0.187l0.427-1.27l0.808-0.329l1.425,0.657L9.5,27.005l-0.095-0.141l-0.617-1.221l0.333-0.799
		l1.472-0.517v-1.222l-0.19-0.046L9.12,22.683l-0.333-0.845l0.617-1.269c-0.142-0.142-0.238-0.328-0.333-0.518L8.596,19.633
		L8.596,19.633z"/>
	<path fill="#7F7F7F" d="M9.072,20.102c0.096,0.141,0.191,0.327,0.333,0.516l0.047-0.141L9.072,20.102L9.072,20.102z"/>
	<path fill="#7F7F7F" d="M21.565,0.001L21.09,1.457l-0.808,2.536l-0.38,1.22l-0.333,1.033l-2.327,7.281
		c-0.048,0.14,0.047,0.282,0.189,0.282h2.138c0.096,0,0.143,0,0.143,0.045c0.048,0.047,0.095,0.141,0.048,0.188l-2.186,5.307
		c-0.095,0.142-0.047,0.188,0.048,0.048l7.029-7.843c0.096-0.094,0.048-0.188-0.095-0.188h-2.327h-0.427
		c-0.143,0-0.19-0.094-0.143-0.234l2.185-3.852l0.522-0.892l0.617-1.079l1.283-2.207l0.712-1.315
		C25.364,0.846,23.511,0.236,21.565,0.001L21.565,0.001z"/>
</g>
</svg>
