<?xml version="1.0" encoding="utf-8"?>
<!-- Generator: Adobe Illustrator 13.0.0, SVG Export Plug-In . SVG Version: 6.00 Build 14948)  -->
<!DOCTYPE svg PUBLIC "-//W3C//DTD SVG 1.1//EN" "http://www.w3.org/Graphics/SVG/1.1/DTD/svg11.dtd">
<svg version="1.1" id="Layer_1" xmlns="http://www.w3.org/2000/svg" xmlns:xlink="http://www.w3.org/1999/xlink" x="0px" y="0px"
	 width="30.77px" height="26.564px" viewBox="0 0 30.77 26.564" enable-background="new 0 0 30.77 26.564" xml:space="preserve">
<g id="XMLID_15_">
	<path fill="#00ABEC" d="M23.088-0.001H7.728l-7.73,13.308l7.73,13.257h15.359l7.681-13.257L23.088-0.001L23.088-0.001z
		 M23.138,19.217c0,1.142-0.947,2.085-2.094,2.085H9.774c-1.146,0-2.094-0.943-2.094-2.085V7.348c0-1.142,0.948-2.036,2.094-2.036
		h8.377c0.798,0,1.546,0,1.546,0h0.25l3.191,3.128V19.217L23.138,19.217L23.138,19.217z"/>
	<path fill="#00ABEC" d="M14.212,15.393c-0.05-0.101-0.05-0.2-0.101-0.298c-0.049-0.05-0.1-0.151-0.15-0.199
		c-0.049-0.05-0.099-0.05-0.149-0.1c-0.051,0-0.15-0.05-0.2-0.05c-0.149,0-0.249,0.05-0.349,0.1
		c-0.099,0.098-0.148,0.199-0.248,0.297c-0.049,0.149-0.049,0.298-0.099,0.496c0,0.198,0,0.446,0,0.695c0,0.349,0,0.598,0,0.796
		c0.05,0.249,0.099,0.396,0.15,0.495c0.05,0.15,0.1,0.248,0.199,0.298c0.101,0.05,0.2,0.05,0.299,0.05c0.1,0,0.199,0,0.25-0.05
		c0.099,0,0.149-0.05,0.199-0.098c0.05-0.05,0.099-0.151,0.099-0.249c0.05-0.05,0.1-0.198,0.1-0.298c0.05-0.1,0.05-0.249,0.05-0.397
		c0-0.15,0-0.299,0-0.496c0-0.199,0-0.397,0-0.547C14.262,15.691,14.212,15.542,14.212,15.393"/>
	<path fill="#00ABEC" d="M17.853,9.235c-0.05-0.149-0.05-0.249-0.101-0.297c-0.05-0.101-0.101-0.15-0.149-0.2
		c-0.051-0.049-0.1-0.099-0.151-0.099c-0.049-0.05-0.148-0.05-0.248-0.05s-0.249,0.05-0.299,0.1
		c-0.099,0.049-0.199,0.148-0.249,0.297c-0.051,0.15-0.052,0.298-0.101,0.497c0,0.198-0.05,0.397-0.05,0.695
		c0,0.298,0.05,0.596,0.05,0.795c0.049,0.197,0.101,0.348,0.15,0.496c0.049,0.099,0.101,0.199,0.2,0.249s0.198,0.1,0.299,0.1
		c0.099,0,0.199-0.05,0.249-0.05c0.05-0.05,0.149-0.1,0.198-0.15c0.05-0.049,0.1-0.098,0.1-0.198
		c0.05-0.099,0.102-0.198,0.102-0.298c0-0.149,0.05-0.248,0.05-0.397c0-0.15,0-0.349,0-0.497c0-0.198,0-0.397,0-0.546
		C17.902,9.484,17.853,9.334,17.853,9.235"/>
	<path fill="#00ABEC" d="M19.448,6.454c-0.299-0.049-0.797-0.049-1.296-0.049H9.774c-0.547,0-0.947,0.447-0.947,0.943v11.869
		c0,0.495,0.4,0.942,0.947,0.942h11.271c0.548,0,0.947-0.447,0.947-0.942V9.036h-2.544V6.454L19.448,6.454z M12.318,8.788
		c0-0.05,0-0.05,0-0.098c0,0,0-0.05,0.049-0.05c0,0,0-0.05,0.05-0.05l0.947-0.646c0.05,0,0.05,0,0.05,0c0.05,0,0.05,0,0.099-0.049
		c0,0,0.05,0,0.099,0c0.05,0,0.1,0,0.149,0c0.101,0,0.2,0,0.25,0s0.1,0.049,0.1,0.049c0.05,0,0.05,0,0.05,0
		c0.049,0.05,0.049,0.05,0.049,0.05v3.773h0.698c0.05,0,0.05,0,0.1,0c0,0,0,0.05,0.05,0.05c0,0.048,0,0.048,0,0.098
		c0,0.05,0,0.099,0,0.198c0,0.05,0,0.1,0,0.151c0,0.049,0,0.098,0,0.098c-0.05,0.05-0.05,0.05-0.05,0.05
		c-0.05,0.049-0.05,0.049-0.05,0.049h-2.543c0,0,0,0-0.05-0.049c0,0,0,0-0.049-0.05c0,0,0-0.049,0-0.098c0-0.05,0-0.1,0-0.151
		c0-0.098,0-0.148,0-0.198c0-0.049,0-0.049,0-0.098c0.049,0,0.049-0.05,0.049-0.05c0.05,0,0.05,0,0.05,0h0.848V8.788l-0.699,0.397
		c-0.049,0.05-0.099,0.05-0.149,0.05c-0.05,0.049-0.05,0-0.099,0c0,0,0-0.05,0-0.098c0-0.05-0.05-0.1-0.05-0.199
		C12.266,8.887,12.266,8.837,12.318,8.788L12.318,8.788z M15.11,17.33c-0.049,0.296-0.15,0.545-0.299,0.743
		c-0.1,0.2-0.299,0.348-0.499,0.496c-0.2,0.101-0.449,0.149-0.749,0.149c-0.349,0-0.599-0.049-0.798-0.149
		c-0.199-0.099-0.349-0.249-0.448-0.446c-0.149-0.198-0.249-0.446-0.3-0.743c0-0.299-0.05-0.598-0.05-0.994
		c0-0.347,0.05-0.695,0.1-0.943c0.05-0.297,0.15-0.545,0.299-0.744c0.1-0.198,0.299-0.398,0.499-0.495
		c0.2-0.1,0.448-0.149,0.747-0.149c0.35,0,0.599,0.048,0.798,0.149c0.2,0.097,0.35,0.247,0.499,0.446
		c0.1,0.197,0.2,0.446,0.25,0.744c0,0.296,0.05,0.596,0.05,0.992C15.21,16.733,15.16,17.031,15.11,17.33L15.11,17.33z M18.699,18.47
		c0,0.049,0,0.049-0.05,0.099c0,0,0,0.05-0.051,0.05c0,0,0,0-0.049,0h-2.492h-0.049c0,0,0-0.05-0.051-0.05c0-0.05,0-0.05,0-0.099
		c0-0.05-0.051-0.1-0.051-0.197c0-0.05,0.05-0.1,0.05-0.15c0-0.052,0-0.099,0-0.099c0-0.05,0.051-0.05,0.051-0.1h0.05h0.848v-2.929
		l-0.697,0.398c-0.101,0.048-0.101,0.048-0.15,0.048s-0.05,0-0.101,0c0-0.048,0-0.098-0.05-0.098c0-0.05,0-0.151,0-0.248
		c0-0.05,0-0.1,0-0.1c0-0.049,0.05-0.099,0.05-0.099c0-0.05,0-0.05,0-0.1c0.051,0,0.051,0,0.101-0.05l0.947-0.595
		c0.051,0,0.051-0.05,0.051-0.05c0.049,0,0.049,0,0.099,0c0,0,0.05,0,0.1,0s0.1,0,0.149,0c0.1,0,0.199,0,0.249,0s0.1,0,0.1,0
		c0.05,0,0.05,0.05,0.05,0.05l0.052,0.047v3.724h0.697c0.05,0,0.05,0,0.05,0c0.051,0.05,0.051,0.05,0.051,0.1
		c0.049,0,0.049,0.049,0.049,0.099s0,0.1,0,0.15C18.699,18.371,18.699,18.421,18.699,18.47L18.699,18.47z M18.751,11.171
		c-0.051,0.249-0.15,0.497-0.3,0.745c-0.1,0.199-0.299,0.349-0.498,0.448c-0.201,0.099-0.449,0.148-0.798,0.148
		c-0.299,0-0.549-0.048-0.748-0.148c-0.199-0.099-0.35-0.249-0.499-0.447c-0.1-0.198-0.2-0.447-0.249-0.744
		c-0.051-0.249-0.051-0.597-0.051-0.944c0-0.397,0-0.694,0.1-0.993c0.05-0.297,0.15-0.545,0.249-0.744
		c0.15-0.199,0.35-0.349,0.549-0.447c0.199-0.15,0.449-0.199,0.748-0.199s0.6,0.048,0.799,0.148c0.199,0.149,0.35,0.297,0.448,0.497
		c0.15,0.199,0.199,0.447,0.25,0.694c0.05,0.298,0.1,0.646,0.1,0.993S18.8,10.874,18.751,11.171L18.751,11.171z"/>
</g>
</svg>
