<?xml version="1.0" encoding="utf-8"?>
<!-- Generator: Adobe Illustrator 13.0.0, SVG Export Plug-In . SVG Version: 6.00 Build 14948)  -->
<!DOCTYPE svg PUBLIC "-//W3C//DTD SVG 1.1//EN" "http://www.w3.org/Graphics/SVG/1.1/DTD/svg11.dtd">
<svg version="1.1" id="Layer_1" xmlns="http://www.w3.org/2000/svg" xmlns:xlink="http://www.w3.org/1999/xlink" x="0px" y="0px"
	 width="31.768px" height="26.766px" viewBox="0 0 31.768 26.766" enable-background="new 0 0 31.768 26.766" xml:space="preserve">
<g id="XMLID_4_">
	<path fill="#00ABEC" d="M13.288,16.607H2.518c-0.542,0-0.968-0.425-0.968-0.965V4.597h3.099V1.545h19.873
		c0.543,0,1.007,0.425,1.007,0.965v0.154c0.504,0.154,1.008,0.348,1.512,0.579V2.51c0-1.352-1.124-2.511-2.519-2.511H3.759
		L0.001,3.785v11.857c0,1.39,1.162,2.51,2.518,2.51h11.661C13.83,17.65,13.521,17.148,13.288,16.607L13.288,16.607z"/>
	<path fill="#00ABEC" d="M22.624,18.268c-3.254,0-5.927-2.626-5.927-5.871c0-3.206,2.673-5.832,5.927-5.832
		c3.293,0,5.966,2.626,5.966,5.832C28.59,15.642,25.917,18.268,22.624,18.268L22.624,18.268z M22.624,7.879
		c-2.518,0-4.609,2.008-4.609,4.519c0,2.51,2.092,4.557,4.609,4.557c2.558,0,4.648-2.047,4.648-4.557
		C27.272,9.887,25.18,7.879,22.624,7.879L22.624,7.879z"/>
	<path fill="#00ABEC" d="M31.766,12.398c0-4.944-4.106-8.961-9.143-8.961c-4.996,0-9.103,4.016-9.103,8.961
		c0,3.093,1.609,5.824,4.038,7.435l-2.836,4.885l3.448-0.928l1.278,2.976l2.827-4.944l3.719,4.944l0.969-2.82l3.486,0.928
		l-3.195-4.763C29.948,18.55,31.766,15.682,31.766,12.398z M14.837,12.398c0-4.21,3.487-7.647,7.786-7.647
		c4.3,0,7.826,3.437,7.826,7.647c0,4.249-3.486,7.686-7.825,7.686C18.324,20.084,14.837,16.646,14.837,12.398z"/>
</g>
</svg>
