<?xml version="1.0" encoding="utf-8"?>
<!-- Generator: Adobe Illustrator 13.0.0, SVG Export Plug-In . SVG Version: 6.00 Build 14948)  -->
<!DOCTYPE svg PUBLIC "-//W3C//DTD SVG 1.1//EN" "http://www.w3.org/Graphics/SVG/1.1/DTD/svg11.dtd">
<svg version="1.1" id="Layer_1" xmlns="http://www.w3.org/2000/svg" xmlns:xlink="http://www.w3.org/1999/xlink" x="0px" y="0px"
	 width="37.756px" height="23.52px" viewBox="0 0 37.756 23.52" enable-background="new 0 0 37.756 23.52" xml:space="preserve">
<g>
	<path fill="#7F7F7F" d="M37.756,19.118c0-2.414-1.981-4.354-4.389-4.354c-0.188,0-0.33,0-0.52,0
		c0.284-0.945,0.426-1.987,0.426-3.076c0-6.435-5.239-11.688-11.657-11.688c-5.144,0-9.486,3.362-11.043,7.998
		C9.77,7.713,8.874,7.526,7.977,7.526C3.587,7.526,0,11.12,0,15.523c0,4.4,3.586,7.998,7.976,7.998l0,0l0,0h25.769v-0.047
		C35.963,23.282,37.756,21.437,37.756,19.118L37.756,19.118z"/>
</g>
</svg>
