<?xml version="1.0" encoding="utf-8"?>
<!-- Generator: Adobe Illustrator 13.0.0, SVG Export Plug-In . SVG Version: 6.00 Build 14948)  -->
<!DOCTYPE svg PUBLIC "-//W3C//DTD SVG 1.1//EN" "http://www.w3.org/Graphics/SVG/1.1/DTD/svg11.dtd">
<svg version="1.1" id="Layer_1" xmlns="http://www.w3.org/2000/svg" xmlns:xlink="http://www.w3.org/1999/xlink" x="0px" y="0px"
	 width="36.336px" height="28.085px" viewBox="0 0 36.336 28.085" enable-background="new 0 0 36.336 28.085" xml:space="preserve">
<g>
	<path fill="#00BCF2" d="M36.336,18.338c0-2.447-2.003-4.452-4.498-4.452c0,0,0,0-0.044,0c0.223-0.846,0.312-1.691,0.312-2.536
		C32.106,5.119,26.985,0,20.751,0c-4.766,0-8.996,2.981-10.644,7.433C9.395,7.211,8.638,7.077,7.881,7.077
		c-4.32,0-7.882,3.562-7.882,7.879c0,2.27,0.979,4.317,2.539,5.741v-0.979c-1.113-1.29-1.826-2.938-1.826-4.762
		c0-3.962,3.251-7.167,7.17-7.167c0.801,0,1.559,0.134,2.36,0.401l0.312,0.132l0.134-0.354c1.425-4.318,5.477-7.256,10.064-7.256
		c5.877,0,10.642,4.807,10.642,10.638c0,0.935-0.133,1.914-0.4,2.804l-0.134,0.534l0.534-0.089c0.134,0,0.312,0,0.445,0
		c2.094,0,3.785,1.691,3.785,3.739c0,1.958-1.514,3.604-3.474,3.737H18.167v0.758h14.027l0.489-0.044l-0.045-0.044
		C34.733,22.345,36.336,20.52,36.336,18.338L36.336,18.338z"/>
	<polygon fill="#00BCF2" points="3.251,25.995 8.816,26.84 8.816,21.143 3.251,21.143 	"/>
	<polygon fill="#00BCF2" points="9.485,20.475 17.455,20.475 17.455,13.487 9.485,14.6 	"/>
	<polygon fill="#00BCF2" points="3.251,20.475 8.816,20.475 8.816,14.689 3.251,15.446 	"/>
	<polygon fill="#00BCF2" points="9.485,26.929 17.455,28.086 17.455,21.143 9.485,21.143 	"/>
</g>
</svg>
