<?xml version="1.0" encoding="utf-8"?>
<!-- Generator: Adobe Illustrator 13.0.0, SVG Export Plug-In . SVG Version: 6.00 Build 14948)  -->
<!DOCTYPE svg PUBLIC "-//W3C//DTD SVG 1.1//EN" "http://www.w3.org/Graphics/SVG/1.1/DTD/svg11.dtd">
<svg version="1.1" id="Layer_1" xmlns="http://www.w3.org/2000/svg" xmlns:xlink="http://www.w3.org/1999/xlink" x="0px" y="0px"
	 width="32.458px" height="27.174px" viewBox="0 0 32.458 27.174" enable-background="new 0 0 32.458 27.174" xml:space="preserve">
<g>
	<path fill="#00ABEC" d="M22.317,10.822c0-0.851-0.663-1.559-1.563-1.559c-0.853,0-1.563,0.709-1.563,1.559
		c0,0.851,0.712,1.56,1.563,1.56C21.653,12.382,22.317,11.673,22.317,10.822"/>
	<path fill="#00ABEC" d="M12.651,14.556c-0.853,0-1.563,0.709-1.563,1.56s0.71,1.56,1.563,1.56s1.563-0.661,1.563-1.56
		C14.215,15.265,13.504,14.556,12.651,14.556"/>
	<path fill="#00ABEC" d="M25.872,11.39l-1.469,0.472l-0.333,0.756l0.521,1.135l0.095,0.141L23.88,14.65l-1.279-0.567l-0.805,0.284
		l-0.379,1.181l-0.048,0.142h-1.138l-0.474-1.322L19,14.083l-1.138,0.567l-0.142,0.047l-0.758-0.756l0.568-1.324l-0.331-0.755
		l-0.996-0.377l0.047-0.047v-1.134l1.184-0.472l0.19-0.756l-0.615-1.135l-0.096-0.142l0.806-0.803L19,7.609l0.758-0.284l0.379-1.134
		l0.047-0.046h1.138l0.474,1.276l0.758,0.236l1.138-0.567l0.142-0.095l0.806,0.756l-0.615,1.324l0.284,0.756l1.278,0.377
		l0.285,0.047L25.872,11.39L25.872,11.39L25.872,11.39z M7.724,15.596l1.374-0.473L9.43,14.32l-0.569-1.088l-0.095-0.142
		l0.806-0.803l1.279,0.615l0.758-0.332l0.379-1.086l0.047-0.047h1.137l0.474,1.276l0.758,0.237l1.137-0.567l0.142-0.095l0.805,0.756
		l-0.616,1.276l0.332,0.803l1.09,0.378v0.047v1.088l-1.185,0.519l-0.285,0.757l0.616,1.088l0.047,0.141l-0.758,0.803l-1.327-0.614
		l-0.758,0.33l-0.379,1.183l-0.047,0.188h-1.09l-0.521-1.37l-0.758-0.33l-1.09,0.567l-0.189,0.095l-0.758-0.804l0.616-1.275
		l-0.332-0.756L7.913,16.73l-0.189-0.046V15.596L7.724,15.596L7.724,15.596z M28.288,9.925l-0.616-0.189l0.189-0.614
		c0.142-0.615,0.235-1.229,0.235-1.843C28.096,3.262,24.781,0,20.8,0c-2.984,0-5.638,1.748-6.775,4.49l-0.426,0.992l-0.664-0.803
		c-0.948-1.133-2.321-1.748-3.79-1.748c-2.748,0-4.975,2.221-4.975,4.915c0,0.473,0.047,0.945,0.189,1.371l0.143,0.615l-0.569,0.188
		C1.516,10.917,0,12.903,0,15.359c0,3.167,2.654,5.671,6.018,5.671h1.469c-0.047,0-0.047,0.567-0.047,0.803
		c0,2.978,2.369,5.341,5.307,5.341c2.132,0,4.075-1.276,4.927-3.261l0.285-0.709l0.521,0.614c0.711,0.804,1.705,1.275,2.748,1.275
		c2.038,0,3.649-1.654,3.649-3.639c0-0.142,0-0.426-0.048-0.426h1.659c3.364,0,5.97-2.504,5.97-5.671
		C32.457,12.807,30.846,10.728,28.288,9.925L28.288,9.925z"/>
</g>
</svg>
