<?xml version="1.0" encoding="utf-8"?>
<!-- Generator: Adobe Illustrator 13.0.0, SVG Export Plug-In . SVG Version: 6.00 Build 14948)  -->
<!DOCTYPE svg PUBLIC "-//W3C//DTD SVG 1.1//EN" "http://www.w3.org/Graphics/SVG/1.1/DTD/svg11.dtd">
<svg version="1.1" id="Layer_1" xmlns="http://www.w3.org/2000/svg" xmlns:xlink="http://www.w3.org/1999/xlink" x="0px" y="0px"
	 width="22.964px" height="23.709px" viewBox="0 0 22.964 23.709" enable-background="new 0 0 22.964 23.709" xml:space="preserve">
<g>
	<g>
		<path fill="#7F7F7F" d="M18.2,0H3.192C1.43,0,0,1.419,0,3.17v17.369c0,1.749,1.429,3.17,3.191,3.17H19.82
			c1.716,0,3.145-1.42,3.145-3.17V4.732L18.2,0z M21.058,20.537c0,0.71-0.572,1.23-1.239,1.23H3.191
			c-0.667,0-1.239-0.521-1.239-1.23V3.168c0-0.661,0.572-1.23,1.239-1.23H17.2V5.82h3.859L21.058,20.537z M6.909,8.233v1.61
			c0,0.899-0.333,1.372-1.096,1.372v1.278c0.762,0,1.096,0.473,1.096,1.324v1.704c0,0.898,0.19,1.562,0.619,1.941
			c0.429,0.426,1.239,0.661,2.382,0.661v-1.325c-0.429,0-0.715-0.096-0.905-0.284c-0.143-0.188-0.238-0.521-0.238-0.993v-1.468
			c0-1.184-0.381-1.893-1.096-2.176V11.83c0.714-0.284,1.096-0.993,1.096-2.129V8.187c0-0.854,0.381-1.278,1.144-1.278V5.583
			c-1.144,0-1.906,0.237-2.382,0.661C7.147,6.672,6.909,7.334,6.909,8.233z M15.294,9.843V8.235c0-0.9-0.191-1.562-0.572-1.941
			c-0.477-0.473-1.287-0.71-2.383-0.71v1.325c0.763,0,1.144,0.426,1.144,1.278v1.419c0,1.184,0.381,1.941,1.096,2.224v0.047
			c-0.715,0.285-1.097,0.995-1.097,2.131v1.515c0,0.426-0.095,0.757-0.238,0.993c-0.188,0.189-0.476,0.284-0.905,0.284v1.325
			c1.144,0,1.954-0.236,2.383-0.661c0.381-0.428,0.572-1.043,0.572-1.987v-1.658c0-0.852,0.381-1.324,1.096-1.324v-1.278
			C15.675,11.215,15.294,10.742,15.294,9.843z"/>
	</g>
</g>
</svg>
