<?xml version="1.0" encoding="utf-8"?>
<!-- Generator: Adobe Illustrator 13.0.0, SVG Export Plug-In . SVG Version: 6.00 Build 14948)  -->
<!DOCTYPE svg PUBLIC "-//W3C//DTD SVG 1.1//EN" "http://www.w3.org/Graphics/SVG/1.1/DTD/svg11.dtd">
<svg version="1.1" id="Layer_1" xmlns="http://www.w3.org/2000/svg" xmlns:xlink="http://www.w3.org/1999/xlink" x="0px" y="0px"
	 width="33.799px" height="52.878px" viewBox="0 0 33.799 52.878" enable-background="new 0 0 33.799 52.878" xml:space="preserve">
<path fill="#7F7F7F" d="M0,52.878h17.362V0H0V52.878L0,52.878z M14.374,22.353H9.749v-4.541h4.625V22.353L14.374,22.353z
	 M2.704,15.507v-4.541h4.625v4.541H2.704L2.704,15.507z M9.749,15.507v-4.541h4.625v4.541H9.749L9.749,15.507z M9.677,4.191h4.696
	v4.541H9.677V4.191L9.677,4.191z M2.775,4.191H7.4v4.541H2.775V4.191L2.775,4.191z M2.775,17.813H7.4v4.541H2.775V17.813
	L2.775,17.813z M14.374,42.889H9.749v-4.54h4.625V42.889L14.374,42.889z M2.704,36.115v-4.541h4.625v4.541H2.704L2.704,36.115z
	 M9.749,36.115v-4.541h4.625v4.541H9.749L9.749,36.115z M9.677,24.728h4.696v4.541H9.677V24.728L9.677,24.728z M2.775,24.728H7.4
	v4.541H2.775V24.728L2.775,24.728z M2.775,38.349H7.4v4.54H2.775V38.349L2.775,38.349z M31.808,17.253v-5.378h-2.563V6.566h-1.779
	V1.607h-1.564v4.959h-1.778v5.309H21.56v5.378h-1.992v35.625h14.231V17.253H31.808L31.808,17.253z M26.542,38.699h-4.625v-4.541
	h4.625V38.699L26.542,38.699z M26.542,24.797h-4.625v-4.61h4.625V24.797L26.542,24.797z M31.95,31.712h-4.625v-4.61h4.625V31.712
	L31.95,31.712z"/>
</svg>
