<?xml version="1.0" encoding="utf-8"?>
<!-- Generator: Adobe Illustrator 13.0.0, SVG Export Plug-In . SVG Version: 6.00 Build 14948)  -->
<!DOCTYPE svg PUBLIC "-//W3C//DTD SVG 1.1//EN" "http://www.w3.org/Graphics/SVG/1.1/DTD/svg11.dtd">
<svg version="1.1" id="Layer_1" xmlns="http://www.w3.org/2000/svg" xmlns:xlink="http://www.w3.org/1999/xlink" x="0px" y="0px"
	 width="56.539px" height="17.578px" viewBox="0 0 56.539 17.578" enable-background="new 0 0 56.539 17.578" xml:space="preserve">
<g>
	<path fill="#7F7F7F" d="M50.805,17.578H1.881c-1.034,0-1.88-1.192-1.88-2.245V1.863c0-1.003,0.846-1.862,1.88-1.862h48.924
		c0.376,0,1.033,0,5.593,8.837l0.141,0.286l-0.141,0.286C51.838,17.578,51.182,17.578,50.805,17.578L50.805,17.578z M1.881,1.242
		c-0.376,0-0.659,0.287-0.659,0.621v13.47c0,0.43,0.376,1.003,0.659,1.003h48.783c0.611-0.573,2.727-4.012,4.559-7.26
		c-1.832-3.485-3.947-7.212-4.559-7.833H1.881L1.881,1.242z"/>
	<path fill="#7F7F7F" d="M16.779,3.104H3.666c-0.375,0-0.704,0.334-0.704,0.764v9.936c0,0.432,0.329,0.766,0.704,0.766h13.113
		c0.423,0,0.752-0.334,0.752-0.766V3.869C17.532,3.439,17.202,3.104,16.779,3.104L16.779,3.104z M15.699,4.633l-5.546,4.394
		L4.607,4.632L15.699,4.633L15.699,4.633z M4.42,13.04V6.448l5.263,4.108c0.141,0.144,0.282,0.19,0.47,0.19
		c0.141,0,0.282-0.047,0.423-0.19l5.452-4.298v6.782H4.42L4.42,13.04L4.42,13.04z"/>
	<path fill="#7F7F7F" d="M32.853,3.104H19.741c-0.376,0-0.753,0.334-0.753,0.764v9.936c0,0.432,0.376,0.766,0.753,0.766h13.112
		c0.423,0,0.752-0.334,0.752-0.766V3.869C33.605,3.439,33.276,3.104,32.853,3.104L32.853,3.104z M31.724,4.633l-5.546,4.396
		L20.68,4.633H31.724L31.724,4.633z M20.493,13.04V6.448l5.263,4.108c0.094,0.144,0.282,0.19,0.423,0.19
		c0.188,0,0.329-0.047,0.47-0.19l5.452-4.298v6.782H20.493L20.493,13.04L20.493,13.04z"/>
	<path fill="#7F7F7F" d="M48.926,3.104H35.814c-0.424,0-0.752,0.334-0.752,0.764v9.936c0,0.432,0.328,0.766,0.752,0.766h13.112
		c0.423,0,0.752-0.334,0.752-0.766V3.869C49.677,3.439,49.349,3.104,48.926,3.104L48.926,3.104z M47.798,4.633l-5.546,4.396
		l-5.498-4.396H47.798L47.798,4.633z M36.565,13.04V6.448l5.217,4.108c0.141,0.144,0.329,0.19,0.47,0.19
		c0.188,0,0.329-0.047,0.47-0.19l5.452-4.298v6.782H36.565L36.565,13.04L36.565,13.04z"/>
</g>
</svg>
