<?xml version="1.0" encoding="utf-8"?>
<!-- Generator: Adobe Illustrator 13.0.0, SVG Export Plug-In . SVG Version: 6.00 Build 14948)  -->
<!DOCTYPE svg PUBLIC "-//W3C//DTD SVG 1.1//EN" "http://www.w3.org/Graphics/SVG/1.1/DTD/svg11.dtd">
<svg version="1.1" id="Layer_1" xmlns="http://www.w3.org/2000/svg" xmlns:xlink="http://www.w3.org/1999/xlink" x="0px" y="0px"
	 width="32.18px" height="26.773px" viewBox="0 0 32.18 26.773" enable-background="new 0 0 32.18 26.773" xml:space="preserve">
<g>
	<path fill="#00BCF2" d="M29.002,7.468c0-0.216,0.035-0.433,0.035-0.685c0-3.716-3.068-6.784-6.862-6.784
		c-2.239,0-4.298,1.083-5.562,2.85c-0.794-0.504-1.734-0.793-2.709-0.793c-2.708,0-4.912,2.056-5.165,4.655
		c0.397-0.036,0.831-0.108,1.264-0.108c1.986,0,3.9,0.651,5.417,1.804c1.192-2.707,4.154-4.438,7.441-4.51v-2.31l4.009,3.428
		l-4.009,3.427V6.169c-1.878,0.071-3.721,0.793-4.768,2.526l0.216-0.037c3.83,0,7.008,2.851,7.441,6.531
		c0.903,0.686,1.625,1.517,2.167,2.453c2.456-0.649,4.262-2.813,4.262-5.412C32.145,10.102,31.025,8.442,29.002,7.468L29.002,7.468z
		"/>
	<path fill="#00BCF2" d="M3.178,16.381c-0.036-0.217-0.036-0.47-0.036-0.685c0-3.754,3.07-6.784,6.862-6.784
		c2.239,0,4.297,1.083,5.525,2.815c0.832-0.506,1.771-0.758,2.746-0.758c2.854,0,5.2,2.309,5.2,5.124L23.44,16.49
		c1.949,0.975,2.962,2.598,2.962,4.619c0,3.175-2.564,5.665-5.889,5.665H5.923c-3.323,0-5.924-2.49-5.924-5.665
		C0,19.015,1.156,17.319,3.178,16.381L3.178,16.381z"/>
</g>
</svg>
