<?xml version="1.0" encoding="utf-8"?>
<!-- Generator: Adobe Illustrator 13.0.0, SVG Export Plug-In . SVG Version: 6.00 Build 14948)  -->
<!DOCTYPE svg PUBLIC "-//W3C//DTD SVG 1.1//EN" "http://www.w3.org/Graphics/SVG/1.1/DTD/svg11.dtd">
<svg version="1.1" id="Layer_1" xmlns="http://www.w3.org/2000/svg" xmlns:xlink="http://www.w3.org/1999/xlink" x="0px" y="0px"
	 width="27.203px" height="20.391px" viewBox="0 0 27.203 20.391" enable-background="new 0 0 27.203 20.391" xml:space="preserve">
<g>
	<path fill="#7F7F7F" d="M12.854,0.826c0,0.447,0.374,0.826,0.816,0.826h3.027L9.011,9.437H5.066
		C4.692,8.404,3.74,7.646,2.618,7.646C1.19,7.646,0,8.817,0,10.263s1.19,2.618,2.618,2.618c1.123,0,2.075-0.724,2.448-1.791h3.945
		l7.515,7.612h-2.857c-0.441,0-0.816,0.379-0.816,0.827c0,0.482,0.375,0.86,0.816,0.86h5.646v-5.752
		c0-0.448-0.375-0.827-0.816-0.827s-0.816,0.379-0.816,0.827v2.928l-6.36-6.476h12.787l-2.074,2.101
		c-0.306,0.311-0.306,0.827,0,1.171c0.17,0.139,0.374,0.241,0.577,0.241c0.238,0,0.442-0.104,0.611-0.241l3.979-4.064l-3.979-4.03
		c-0.339-0.31-0.849-0.31-1.188,0c-0.306,0.31-0.306,0.827,0,1.172l2.005,1.998H11.322l6.359-6.441v2.721
		c0,0.448,0.375,0.827,0.816,0.827c0.442,0,0.817-0.378,0.817-0.827v-5.717H13.67C13.228,0,12.854,0.378,12.854,0.826L12.854,0.826z
		"/>
</g>
</svg>
