<?xml version="1.0" encoding="utf-8"?>
<!-- Generator: Adobe Illustrator 13.0.0, SVG Export Plug-In . SVG Version: 6.00 Build 14948)  -->
<!DOCTYPE svg PUBLIC "-//W3C//DTD SVG 1.1//EN" "http://www.w3.org/Graphics/SVG/1.1/DTD/svg11.dtd">
<svg version="1.1" id="Layer_1" xmlns="http://www.w3.org/2000/svg" xmlns:xlink="http://www.w3.org/1999/xlink" x="0px" y="0px"
	 width="27.01px" height="50.934px" viewBox="0 0 27.01 50.934" enable-background="new 0 0 27.01 50.934" xml:space="preserve">
<g>
	<polygon fill="#00ABEC" points="26.53,50.319 0.479,43.793 0.479,7.139 26.53,0.615 	"/>
	<polygon fill="none" stroke="#00ABEC" stroke-width="0.6432" stroke-miterlimit="8" points="26.53,50.319 0.479,43.793 
		0.479,7.139 26.53,0.615 	"/>
	<g>
		<path fill="#FFFFFF" d="M12.961,18.663c0,0.325,0.271,0.601,0.593,0.601h2.197l-5.58,5.653H7.306c-0.271-0.75-0.963-1.3-1.777-1.3
			c-1.038,0-1.902,0.85-1.902,1.901c0,1.05,0.864,1.901,1.902,1.901c0.814,0,1.506-0.525,1.777-1.301h2.865l5.457,5.527h-2.074
			c-0.322,0-0.593,0.275-0.593,0.601c0,0.351,0.271,0.626,0.593,0.626h4.099v-4.178c0-0.324-0.271-0.601-0.593-0.601
			c-0.32,0-0.593,0.276-0.593,0.601v2.126l-4.618-4.702h9.285l-1.507,1.526c-0.222,0.225-0.222,0.601,0,0.851
			c0.125,0.1,0.273,0.174,0.421,0.174c0.173,0,0.322-0.074,0.444-0.176l2.889-2.951l-2.889-2.927c-0.247-0.225-0.616-0.225-0.864,0
			c-0.222,0.225-0.222,0.601,0,0.851l1.457,1.452H11.85l4.618-4.677v1.976c0,0.326,0.271,0.601,0.593,0.601s0.593-0.275,0.593-0.601
			v-4.152h-4.099C13.232,18.062,12.961,18.338,12.961,18.663L12.961,18.663z"/>
	</g>
</g>
</svg>
