<?xml version="1.0" encoding="utf-8"?>
<!-- Generator: Adobe Illustrator 13.0.0, SVG Export Plug-In . SVG Version: 6.00 Build 14948)  -->
<!DOCTYPE svg PUBLIC "-//W3C//DTD SVG 1.1//EN" "http://www.w3.org/Graphics/SVG/1.1/DTD/svg11.dtd">
<svg version="1.1" id="Layer_1" xmlns="http://www.w3.org/2000/svg" xmlns:xlink="http://www.w3.org/1999/xlink" x="0px" y="0px"
	 width="44.529px" height="49.266px" viewBox="0 0 44.529 49.266" enable-background="new 0 0 44.529 49.266" xml:space="preserve">
<g id="XMLID_12_">
	<path fill="#00ABEC" d="M0.078,22.471L0.078,22.471c3.439,0,4.922,0.309,5.938-2.471c2.422-6.566,8.204-12.124,16.173-12.124h0.076
		c7.969,0,13.751,5.558,16.173,12.124c1.015,2.78,2.499,2.625,6.092,2.625V12.587L22.265-0.001L0.001,12.586L0.078,22.471
		c0.079,0,0.079,0,0.079,0H0.078z"/>
	<path fill="#00ABEC" d="M0.001,28.493v8.571l22.5,12.2l22.03-12.587v-8.263l0,0h-2.576c-2.11,0.156-3.046,0.619-3.516,2.086
		c-2.421,6.485-8.203,11.428-16.173,11.428h-0.077c-7.97,0-13.751-4.942-16.173-11.429c-0.624-1.698-1.562-1.854-3.593-2.007H0.001z
		"/>
	<path fill="#00ABEC" d="M19.298,32.431V18.224l10.861,7.102L19.298,32.431L19.298,32.431z M30.313,17.142
		c-4.451-4.401-11.639-4.401-16.093,0c-4.454,4.402-4.454,11.505,0,15.907c4.453,4.402,11.642,4.402,16.093,0
		C34.767,28.647,34.767,21.544,30.313,17.142L30.313,17.142z"/>
</g>
</svg>
