<?xml version="1.0" encoding="utf-8"?>
<!-- Generator: Adobe Illustrator 13.0.0, SVG Export Plug-In . SVG Version: 6.00 Build 14948)  -->
<!DOCTYPE svg PUBLIC "-//W3C//DTD SVG 1.1//EN" "http://www.w3.org/Graphics/SVG/1.1/DTD/svg11.dtd">
<svg version="1.1" id="Layer_1" xmlns="http://www.w3.org/2000/svg" xmlns:xlink="http://www.w3.org/1999/xlink" x="0px" y="0px"
	 width="32.051px" height="46.59px" viewBox="0 0 32.051 46.59" enable-background="new 0 0 32.051 46.59" xml:space="preserve">
<path fill="#7F7F7F" d="M28.995,0H3.126C1.421,0,0,1.471,0,3.223v40.145c0,1.821,1.421,3.223,3.126,3.223h25.869
	c1.705,0,3.056-1.401,3.056-3.223V3.223C32.051,1.471,30.7,0,28.995,0L28.995,0z M11.228,1.541h9.736
	c0.782,0,1.422,0.14,1.422,0.981s-0.64,0.841-1.422,0.841h-9.736c-0.782,0-1.421,0-1.421-0.841S10.446,1.541,11.228,1.541
	L11.228,1.541z M18.832,43.368h-5.401c-0.568,0-0.995-0.421-0.995-0.981c0-0.56,0.426-0.979,0.995-0.979h5.401
	c0.568,0,0.995,0.42,0.995,0.979C19.827,42.947,19.4,43.368,18.832,43.368L18.832,43.368z M28.854,38.463H3.269V4.904h25.584V38.463
	L28.854,38.463z"/>
</svg>
