<?xml version="1.0" encoding="utf-8"?>
<!-- Generator: Adobe Illustrator 13.0.0, SVG Export Plug-In . SVG Version: 6.00 Build 14948)  -->
<!DOCTYPE svg PUBLIC "-//W3C//DTD SVG 1.1//EN" "http://www.w3.org/Graphics/SVG/1.1/DTD/svg11.dtd">
<svg version="1.1" id="Layer_1" xmlns="http://www.w3.org/2000/svg" xmlns:xlink="http://www.w3.org/1999/xlink" x="0px" y="0px"
	 width="94.639px" height="183.75px" viewBox="0 0 94.639 183.75" enable-background="new 0 0 94.639 183.75" xml:space="preserve">
<path fill="#00BCF2" d="M94.575,166.433L81.029,86.59c-0.669-3.984-4.181-6.142-8.193-5.478L20.826,89.08l-8.863-52.62
	c-0.67-4.316,2.508-7.968,7.022-8.632l30.103-4.648c4.516-0.664,8.529,1.826,9.198,6.142l6.354,37.847
	c0.502,2.158,2.509,3.652,4.851,3.32c2.174-0.332,3.847-2.324,3.345-4.482L62.801,6.248c-0.669-4.316-4.683-6.806-9.197-6.142
	L7.113,7.244c-4.516,0.83-7.692,4.482-7.023,8.798L12.465,89.08c0.166,0.664,0.334,1.162,0.501,1.66
	c-2.007,1.494-3.177,4.149-2.843,6.805l13.546,79.845c0.669,3.817,4.683,6.806,8.696,6.308l56.188-8.798
	C92.568,174.235,95.077,170.25,94.575,166.433L94.575,166.433z M28.854,12.39l6.354-0.996c1.505-0.166,3.01,0.498,3.177,1.992
	c0.335,1.494-0.668,2.656-2.341,2.988l-6.354,0.83c-1.506,0.332-2.844-0.498-3.178-1.992C26.345,13.884,27.348,12.556,28.854,12.39
	L28.854,12.39z M39.055,119.79c-1.004-5.811,3.177-11.121,9.197-12.117c6.02-0.996,11.539,2.986,12.542,8.797
	c0.837,4.15-0.334,7.969-4.684,10.291l2.176,12.783l-10.034,1.492l-2.174-12.947C43.068,126.594,39.723,123.607,39.055,119.79
	L39.055,119.79z M67.985,172.907l-17.058,2.49c-1.505,0.332-3.01-0.498-3.178-1.992c-0.334-1.492,0.836-2.654,2.342-2.82
	l17.058-2.656c1.505-0.332,2.844,0.498,3.178,1.992C70.494,171.415,69.49,172.575,67.985,172.907L67.985,172.907z"/>
</svg>
