<?xml version="1.0" encoding="utf-8"?>
<!-- Generator: Adobe Illustrator 13.0.0, SVG Export Plug-In . SVG Version: 6.00 Build 14948)  -->
<!DOCTYPE svg PUBLIC "-//W3C//DTD SVG 1.1//EN" "http://www.w3.org/Graphics/SVG/1.1/DTD/svg11.dtd">
<svg version="1.1" id="Layer_1" xmlns="http://www.w3.org/2000/svg" xmlns:xlink="http://www.w3.org/1999/xlink" x="0px" y="0px"
	 width="20.205px" height="26.938px" viewBox="0 0 20.205 26.938" enable-background="new 0 0 20.205 26.938" xml:space="preserve">
<g>
	<path fill="#00ABEC" d="M18.429,17.343c0,1.182-1.152,1.7-2.305,1.747h-4.031v-1.417h4.031c0.24,0,0.336-0.519,0.336-0.519
		l-0.72,0.188h-1.535c-1.392,0-2.256-0.661-2.256-1.56v-0.096c0-1.513,0-2.126,0-2.362l-0.769-0.472v4.537H9.117v-3.309
		l-1.152,2.457c-0.287,0.662-0.719,0.898-1.486,0.898c-0.72,0-1.2-0.283-1.488-0.898l-1.152-2.457v3.309H1.967v-5.198
		c0-0.615,0.144-0.992,0.721-1.182c0.288-0.094,0.576-0.142,0.815-0.142c0.72,0,1.248,0.378,1.536,0.945l1.439,3.309l1.487-3.309
		c0.288-0.614,0.816-0.945,1.488-0.945c0.24,0,0.528,0.047,0.816,0.142c0.575,0.189,0.912,0.567,0.912,1.182v0.756h2.976v2.788
		c0,0.047,0.096,0.047,0.288,0.047l0.527,0.048h1.44v-2.837h2.063L18.429,17.343L18.429,17.343z M10.126,1.465
		c3.936,0,7.199,0.944,7.199,2.173c0,1.182-3.264,2.174-7.199,2.174c-3.983,0-7.199-0.992-7.199-2.174
		C2.927,2.41,6.143,1.465,10.126,1.465L10.126,1.465z M10.126,0C4.559,0,0,1.89,0,3.969v18.574c0,2.079,4.559,4.396,10.126,4.396
		s10.079-2.223,10.079-4.302V4.065C20.205,1.985,15.693,0,10.126,0L10.126,0z"/>
</g>
</svg>
