<?xml version="1.0" encoding="utf-8"?>
<!-- Generator: Adobe Illustrator 13.0.0, SVG Export Plug-In . SVG Version: 6.00 Build 14948)  -->
<!DOCTYPE svg PUBLIC "-//W3C//DTD SVG 1.1//EN" "http://www.w3.org/Graphics/SVG/1.1/DTD/svg11.dtd">
<svg version="1.1" id="Layer_1" xmlns="http://www.w3.org/2000/svg" xmlns:xlink="http://www.w3.org/1999/xlink" x="0px" y="0px"
	 width="25.006px" height="24.426px" viewBox="0 0 25.006 24.426" enable-background="new 0 0 25.006 24.426" xml:space="preserve">
<g>
	<path fill="#00ABEC" d="M2.03,8.898h22.976L18.657,3.38v2.78H2.073V3.893c0-1.069,0.863-1.838,1.943-1.838h17.016
		c1.079,0,1.771,0.769,1.771,1.838v0.986l2.073,1.71V3.893C24.876,1.711,23.235,0,21.075,0H4.016C1.814,0,0,1.711,0,3.893v5.006
		H2.03L2.03,8.898z"/>
	<path fill="#00ABEC" d="M22.933,10.267H0.043l5.485,5.22V12.32h17.275v2.567c0,1.11-0.691,2.223-1.771,2.223H4.017
		c-1.08,0-1.943-1.112-1.943-2.223v-0.94L0,12.192v2.737c0,2.141,1.814,3.552,4.017,3.552h3.714l8.421,5.946l-0.647-5.946h5.571
		c2.16,0,3.801-1.411,3.801-3.552v-4.662H22.933L22.933,10.267z"/>
</g>
</svg>
