<?xml version="1.0" encoding="utf-8"?>
<!-- Generator: Adobe Illustrator 13.0.0, SVG Export Plug-In . SVG Version: 6.00 Build 14948)  -->
<!DOCTYPE svg PUBLIC "-//W3C//DTD SVG 1.1//EN" "http://www.w3.org/Graphics/SVG/1.1/DTD/svg11.dtd">
<svg version="1.1" id="Layer_1" xmlns="http://www.w3.org/2000/svg" xmlns:xlink="http://www.w3.org/1999/xlink" x="0px" y="0px"
	 width="26.822px" height="26.531px" viewBox="0 0 26.822 26.531" enable-background="new 0 0 26.822 26.531" xml:space="preserve">
<g>
	<path fill="#00ABEC" d="M20.628,17.437c0.144,0,0.286-0.046,0.382-0.095c0.095-0.096,0.095-0.237,0.095-0.378
		c0-0.094,0-0.235-0.095-0.328c-0.19-0.143-0.524-0.143-0.715,0c-0.143,0.188-0.143,0.517,0,0.658
		C20.389,17.39,20.534,17.437,20.628,17.437"/>
	<path fill="#00ABEC" d="M17.008,19.887c-0.143,0.188-0.143,0.471,0,0.658c0.096,0.096,0.238,0.142,0.381,0.142
		c0.096,0,0.238-0.046,0.334-0.142c0.095-0.046,0.143-0.188,0.143-0.328c0-0.096-0.048-0.237-0.143-0.33
		C17.532,19.745,17.198,19.745,17.008,19.887"/>
	<path fill="#00ABEC" d="M24.964,22.809c-0.144-0.329-0.429-0.518-0.811-0.518c-0.237,0-0.476,0.046-0.666,0.142
		c-0.335,0.094-9.958,3.581-11.005,4.005h-0.048c-2.287-1.837-3.716-4.664-3.716-7.821c0-5.655,4.621-10.179,10.291-10.179
		c3.097,0,5.906,1.367,7.813,3.536V0H0v26.531h14.102c2.954-1.083,9.338-3.44,9.576-3.485c0.19-0.048,0.333-0.096,0.476-0.096
		c0.097,0,0.191,0,0.191,0.096c0.095,0.235-0.048,0.424-0.239,0.611c-0.571,0.518-1.81,1.649-3.191,2.874h1.001
		c1.286-1.179,2.286-2.119,2.62-2.402C24.725,23.986,25.25,23.468,24.964,22.809L24.964,22.809z"/>
	<path fill="#00ABEC" d="M17.15,18.614c0-0.283-0.189-0.472-0.477-0.472c-0.237,0-0.477,0.188-0.477,0.472
		c0,0.237,0.238,0.472,0.477,0.472C16.961,19.086,17.15,18.85,17.15,18.614"/>
	<path fill="#00ABEC" d="M17.388,17.437c0.096,0,0.238-0.046,0.334-0.095c0.095-0.096,0.143-0.237,0.143-0.378
		c0-0.094-0.048-0.235-0.143-0.328c-0.19-0.143-0.525-0.143-0.715,0c-0.143,0.188-0.143,0.517,0,0.707
		C17.102,17.39,17.246,17.437,17.388,17.437"/>
	<path fill="#00ABEC" d="M19.484,16.306c0-0.237-0.189-0.472-0.476-0.472c-0.238,0-0.477,0.235-0.477,0.472
		c0,0.282,0.237,0.471,0.477,0.471C19.295,16.776,19.484,16.588,19.484,16.306"/>
	<path fill="#00ABEC" d="M19.484,20.923c0-0.282-0.189-0.471-0.476-0.471c-0.238,0-0.477,0.188-0.477,0.471
		c0,0.236,0.237,0.472,0.477,0.472C19.295,21.395,19.484,21.159,19.484,20.923"/>
	<path fill="#00ABEC" d="M19.009,14.515c-2.287,0-4.145,1.837-4.145,4.099s1.857,4.1,4.145,4.1c2.286,0,4.144-1.838,4.144-4.1
		C23.153,16.353,21.295,14.515,19.009,14.515L19.009,14.515z M19.009,22.007c-1.906,0-3.431-1.508-3.431-3.394
		c0-1.885,1.524-3.393,3.431-3.393c1.905,0,3.43,1.508,3.43,3.393C22.439,20.452,20.914,22.007,19.009,22.007L19.009,22.007z"/>
	<path fill="#00ABEC" d="M20.343,18.614c0-0.754-0.572-1.319-1.334-1.319s-1.334,0.565-1.334,1.319c0,0.708,0.572,1.32,1.334,1.32
		S20.343,19.321,20.343,18.614"/>
	<path fill="#00ABEC" d="M21.82,18.614c0-0.283-0.238-0.472-0.477-0.472c-0.286,0-0.478,0.188-0.478,0.472
		c0,0.237,0.191,0.472,0.478,0.472C21.581,19.086,21.82,18.85,21.82,18.614"/>
	<path fill="#00ABEC" d="M20.295,19.887c-0.143,0.188-0.143,0.471,0,0.658c0.095,0.096,0.238,0.142,0.333,0.142
		c0.144,0,0.286-0.046,0.382-0.142c0.095-0.046,0.095-0.188,0.095-0.328c0-0.096,0-0.237-0.095-0.33
		C20.819,19.745,20.485,19.745,20.295,19.887"/>
</g>
</svg>
