<?xml version="1.0" encoding="utf-8"?>
<!-- Generator: Adobe Illustrator 13.0.0, SVG Export Plug-In . SVG Version: 6.00 Build 14948)  -->
<!DOCTYPE svg PUBLIC "-//W3C//DTD SVG 1.1//EN" "http://www.w3.org/Graphics/SVG/1.1/DTD/svg11.dtd">
<svg version="1.1" id="Layer_1" xmlns="http://www.w3.org/2000/svg" xmlns:xlink="http://www.w3.org/1999/xlink" x="0px" y="0px"
	 width="22.964px" height="23.709px" viewBox="0 0 22.964 23.709" enable-background="new 0 0 22.964 23.709" xml:space="preserve">
<g id="XMLID_6_">
	<path fill="#7F7F7F" d="M18.2,0H3.192C1.43,0,0,1.419,0,3.17v17.369c0,1.749,1.429,3.17,3.191,3.17H19.82
		c1.716,0,3.145-1.42,3.145-3.17V4.732L18.2,0L18.2,0z M21.058,20.537c0,0.71-0.572,1.23-1.239,1.23H3.191
		c-0.667,0-1.239-0.521-1.239-1.23V3.168c0-0.661,0.572-1.23,1.239-1.23H17.2V5.82h3.859L21.058,20.537L21.058,20.537L21.058,20.537
		z"/>
	<path fill="#7F7F7F" d="M16.723,17.178l-0.048,0.095c-0.096,0.473-0.572,0.898-1.097,0.898h-3.954
		c-0.524,0-0.811-0.426-0.715-0.946l0.047-0.047c0.096-0.474,0.572-0.852,1.096-0.852h3.955
		C16.531,16.326,16.819,16.704,16.723,17.178L16.723,17.178z M6.099,17.84l-0.048-0.048c-0.286-0.329-0.143-0.852,0.334-1.183
		l6.956-4.827L8.91,6.861C8.624,6.53,8.767,5.962,9.243,5.631h0.047c0.238-0.142,0.667-0.236,0.953,0.096l4.812,5.396l0.096,0.046
		c0.286,0.331,0.334,1.042,0.048,1.326l-0.764,0.519L7.48,17.84C7.004,18.171,6.383,18.171,6.099,17.84L6.099,17.84z"/>
</g>
</svg>
