<?xml version="1.0" encoding="utf-8"?>
<!-- Generator: Adobe Illustrator 13.0.0, SVG Export Plug-In . SVG Version: 6.00 Build 14948)  -->
<!DOCTYPE svg PUBLIC "-//W3C//DTD SVG 1.1//EN" "http://www.w3.org/Graphics/SVG/1.1/DTD/svg11.dtd">
<svg version="1.1" id="Layer_1" xmlns="http://www.w3.org/2000/svg" xmlns:xlink="http://www.w3.org/1999/xlink" x="0px" y="0px"
	 width="32.713px" height="41.682px" viewBox="0 0 32.713 41.682" enable-background="new 0 0 32.713 41.682" xml:space="preserve">
<path fill="#00BCF2" d="M19.474,31.232l-1.734-1.726v3.895c-0.248-0.049-0.496-0.1-0.744-0.147c-0.198,0-0.694-0.05-0.893-0.099
	c-0.793-0.197-1.636-0.443-2.38-0.739c-0.248-0.099-0.496-0.197-0.744-0.346l-0.397-0.147l-0.396-0.196l-0.297-0.147l-0.397-0.197
	c-0.198-0.147-0.446-0.296-0.694-0.442c-0.893-0.592-1.785-1.331-2.579-2.12c-0.793-0.788-1.487-1.626-2.083-2.611
	c-0.645-0.937-1.141-1.972-1.537-3.057c-0.843-2.119-1.19-4.437-1.042-6.752c0.2-2.27,0.844-4.487,1.935-6.459
	C6.532,8.019,7.97,6.343,9.606,5.061c0.793-0.642,1.686-1.232,2.529-1.677c0.893-0.442,1.785-0.837,2.628-1.133
	c1.736-0.591,3.47-0.838,4.958-0.887c1.537-0.049,2.877,0.099,3.967,0.345c1.092,0.197,1.935,0.443,2.479,0.642
	c0.298,0.099,0.496,0.196,0.646,0.247l0.248,0.098l0,0c0.1,0,0.198,0,0.248-0.098c0.049-0.1,0-0.247-0.1-0.297l-0.197-0.099
	c-0.15-0.099-0.349-0.197-0.646-0.345c-0.546-0.296-1.339-0.642-2.479-1.035c-1.091-0.345-2.479-0.641-4.115-0.789
	c-1.637-0.099-3.521,0-5.503,0.493S10.203,1.858,8.22,3.189C6.285,4.519,4.45,6.343,3.012,8.51c-1.388,2.219-2.38,4.781-2.826,7.541
	c-0.198,1.381-0.248,2.761-0.099,4.189c0.099,1.429,0.396,2.81,0.793,4.189c0.446,1.329,1.041,2.66,1.785,3.894
	c0.694,1.231,1.587,2.365,2.579,3.4c0.942,1.034,2.083,1.922,3.223,2.711c0.297,0.196,0.595,0.395,0.893,0.542l0.446,0.246
	l0.496,0.296l0.446,0.196l0.446,0.197c0.297,0.147,0.645,0.296,0.942,0.396c1.29,0.542,2.628,0.887,3.967,1.084
	c0.446,0.099,1.19,0.147,1.637,0.196v4.092l4.264-4.238l1.587-1.824l-2.281-2.316L19.474,31.232L19.474,31.232z"/>
<path fill="#00BCF2" d="M19.573,4.174C12.334,4.174,6.83,9.99,6.83,17.186c0,5.963,3.967,10.99,9.52,12.567v-1.133
	c0-0.493,0.347-0.937,0.842-1.134c0.149-0.05-0.099-0.099,0.051-0.099c0.347,0,0.645,0.146,0.893,0.345l2.479,2.465
	c6.743-0.543,12.099-6.161,12.099-13.012C32.713,9.99,26.812,4.174,19.573,4.174L19.573,4.174z M9.805,18.319
	c-0.645,0-1.141-0.542-1.141-1.184c0-0.641,0.496-1.133,1.141-1.133s1.14,0.493,1.14,1.133C10.945,17.777,10.45,18.319,9.805,18.319
	L9.805,18.319z M19.573,5.653c0.646,0,1.141,0.542,1.141,1.183c0,0.642-0.495,1.134-1.141,1.134c-0.645,0-1.141-0.492-1.141-1.134
	C18.433,6.195,18.929,5.653,19.573,5.653L19.573,5.653z M26.416,23.791l-0.099,0.147c-0.844,0.788-2.183,0.788-3.024,0l-5.405-5.372
	c-0.445-0.444-0.197-1.084-0.147-1.676v-0.148v-4.781c0-1.183,0.94-2.119,2.132-2.119h0.348c1.189,0,2.133,0.937,2.133,2.119v4.189
	l4.709,4.682C27.903,21.622,27.259,22.953,26.416,23.791L26.416,23.791z M29.985,18.319c-0.645,0-1.141-0.542-1.141-1.184
	c0-0.641,0.496-1.133,1.141-1.133c0.646,0,1.142,0.493,1.142,1.133C31.126,17.777,30.63,18.319,29.985,18.319L29.985,18.319z"/>
</svg>
