<?xml version="1.0" encoding="utf-8"?>
<!-- Generator: Adobe Illustrator 13.0.0, SVG Export Plug-In . SVG Version: 6.00 Build 14948)  -->
<!DOCTYPE svg PUBLIC "-//W3C//DTD SVG 1.1//EN" "http://www.w3.org/Graphics/SVG/1.1/DTD/svg11.dtd">
<svg version="1.1" id="Layer_1" xmlns="http://www.w3.org/2000/svg" xmlns:xlink="http://www.w3.org/1999/xlink" x="0px" y="0px"
	 width="22.964px" height="23.708px" viewBox="0 0 22.964 23.708" enable-background="new 0 0 22.964 23.708" xml:space="preserve">
<g>
	<g>
		<path fill="#7F7F7F" d="M18.2,0H3.192C1.43,0,0,1.419,0,3.17v17.369c0,1.75,1.429,3.171,3.191,3.171H19.82
			c1.716,0,3.145-1.42,3.145-3.171V4.732L18.2,0z M21.058,20.538c0,0.709-0.572,1.23-1.239,1.23H3.191
			c-0.667,0-1.239-0.521-1.239-1.23V3.168c0-0.661,0.572-1.23,1.239-1.23H17.2V5.82h3.859L21.058,20.538z M3.526,13.06l4.335,2.84
			v-1.609L4.763,12.54v-0.047l3.098-1.845V9.085L3.526,12.02V13.06z M8.813,17.84h1.335l3.239-10.979h-1.333L8.813,17.84z
			 M14.484,10.553l3.096,1.893v0.047l-3.096,1.751v1.562l4.336-2.84v-1.041l-4.336-2.934V10.553z"/>
	</g>
</g>
</svg>
