<?xml version="1.0" encoding="utf-8"?>
<!-- Generator: Adobe Illustrator 13.0.0, SVG Export Plug-In . SVG Version: 6.00 Build 14948)  -->
<!DOCTYPE svg PUBLIC "-//W3C//DTD SVG 1.1//EN" "http://www.w3.org/Graphics/SVG/1.1/DTD/svg11.dtd">
<svg version="1.1" id="Layer_1" xmlns="http://www.w3.org/2000/svg" xmlns:xlink="http://www.w3.org/1999/xlink" x="0px" y="0px"
	 width="31.234px" height="29.115px" viewBox="0 0 31.234 29.115" enable-background="new 0 0 31.234 29.115" xml:space="preserve">
<g>
	<path fill="#00ABEC" d="M15.434,16.543l1.708,1.657l1.979-1.889c-0.116-0.926,0.194-1.889,0.933-2.584
		c0.738-0.694,1.708-1.002,2.64-0.887l8.54-8.213L26.461,0L17.92,8.251c0.115,0.887-0.194,1.852-0.933,2.546
		c-0.737,0.693-1.708,1.002-2.64,0.886l-1.98,1.89l1.747,1.659l-8.462,8.098l-0.311-0.27l-1.63,1.234l-2.717,4.164l0.699,0.656
		l4.309-2.622l1.32-1.543L7.01,24.641L15.434,16.543L15.434,16.543z"/>
	<path fill="#00ABEC" d="M8.757,13.226v0.04l2.873,2.738l0.893-0.888l-1.165-1.156l-0.543-0.501l2.911-2.815l0.389,0.038
		c0.078,0,0.194,0,0.271,0c0.195,0,0.389,0,0.543-0.038l-1.708-1.659l-0.116-0.116c0.583-2.16,0.039-4.55-1.708-6.248
		C9.652,0.924,7.167,0.384,4.916,0.962l3.765,3.624L7.711,8.134L4.023,9.1L0.218,5.475c-0.582,2.12,0,4.512,1.748,6.208
		C3.789,13.458,6.428,13.959,8.757,13.226L8.757,13.226z"/>
	<path fill="#00ABEC" d="M18.889,18.817l3.688-0.54l0,0l0.311-0.038l-2.562-2.507c-0.078,0.271-0.078,0.54-0.078,0.811l0.038,0.347
		l-0.232,0.27l-1.94,1.852l-0.738,0.693l-1.708-1.619l-0.931,0.849l4.153,4.011V18.817L18.889,18.817L18.889,18.817z"/>
	<path fill="#00ABEC" d="M11.591,27.726c0,0.386-0.155,0.655-0.427,0.887c-0.272,0.193-0.622,0.309-1.087,0.309
		c-0.155,0-0.35-0.039-0.543-0.077c-0.233-0.077-0.35-0.116-0.466-0.192v-0.617c0.155,0.116,0.311,0.231,0.505,0.309
		c0.232,0.077,0.426,0.115,0.582,0.115c0.583,0,0.854-0.231,0.854-0.694c0-0.153-0.039-0.347-0.155-0.462
		c-0.155-0.115-0.388-0.309-0.776-0.54c-0.35-0.192-0.622-0.385-0.776-0.578c-0.155-0.192-0.232-0.424-0.232-0.694
		c0-0.347,0.155-0.617,0.427-0.849c0.271-0.231,0.583-0.308,1.009-0.308c0.389,0,0.699,0.038,0.893,0.153v0.579
		c-0.232-0.193-0.543-0.271-0.931-0.271c-0.233,0-0.427,0.039-0.583,0.154c-0.155,0.153-0.233,0.309-0.233,0.501
		c0,0.154,0,0.27,0.039,0.348c0.078,0.115,0.155,0.192,0.272,0.27c0.078,0.077,0.271,0.231,0.543,0.347
		c0.388,0.232,0.66,0.425,0.854,0.617C11.514,27.224,11.591,27.455,11.591,27.726L11.591,27.726z"/>
	<path fill="#00ABEC" d="M16.094,26.568c0,0.463-0.117,0.849-0.311,1.195c-0.195,0.348-0.504,0.617-0.854,0.81
		c-0.389,0.192-0.777,0.27-1.281,0.27h-1.165V24.37h1.243C15.28,24.37,16.094,25.104,16.094,26.568L16.094,26.568z M15.512,26.568
		c0-1.157-0.583-1.696-1.825-1.696h-0.699v3.509h0.66c0.622,0,1.087-0.154,1.398-0.462C15.357,27.571,15.512,27.147,15.512,26.568
		L15.512,26.568z"/>
	<path fill="#00ABEC" d="M20.093,28.844h-0.737L17.607,26.8c-0.038-0.038-0.077-0.115-0.116-0.153l0,0v2.197h-0.544V24.37h0.544
		v2.121l0,0l0.116-0.153l1.708-1.968h0.622l-1.902,2.16L20.093,28.844L20.093,28.844z"/>
	<polygon fill="#00ABEC" points="25.411,23.985 29.953,23.985 29.953,19.975 25.411,20.63 	"/>
	<polygon fill="#00ABEC" points="25.023,23.985 25.023,20.669 21.567,21.132 21.567,23.985 	"/>
	<polygon fill="#00ABEC" points="25.023,24.37 21.567,24.37 21.567,27.108 25.023,27.571 	"/>
	<polygon fill="#00ABEC" points="25.411,24.37 25.411,27.648 29.953,28.266 29.953,24.37 	"/>
</g>
</svg>
