<?xml version="1.0" encoding="utf-8"?>
<!-- Generator: Adobe Illustrator 13.0.0, SVG Export Plug-In . SVG Version: 6.00 Build 14948)  -->
<!DOCTYPE svg PUBLIC "-//W3C//DTD SVG 1.1//EN" "http://www.w3.org/Graphics/SVG/1.1/DTD/svg11.dtd">
<svg version="1.1" id="Layer_1" xmlns="http://www.w3.org/2000/svg" xmlns:xlink="http://www.w3.org/1999/xlink" x="0px" y="0px"
	 width="25.516px" height="28.707px" viewBox="0 0 25.516 28.707" enable-background="new 0 0 25.516 28.707" xml:space="preserve">
<g>
	<g>
		<path fill="#00ABEC" d="M8.144,19.181H2.989v-4.358l-1.69-2.947l0.044-0.769h1.646V3.033h2.122v9.142H3.119l3.421,4.7l3.728-4.7
			h-2.21V3.033h0.087V0.056C8.491,0.096,9.14,0.268,9.14,0.94v10.167h3.031V0.94c0-0.812-0.953-0.897-1.169-0.897H8.144V0H1.039
			C0.39,0,0.043,0,0.043,1.025H0v20.163c0.086,0.17,0.478,1.024,1.169,1.024h6.976V19.181z M12.172,11.79L9.14,16.189v7.049H6.324
			l4.375,5.469l4.419-5.469h-2.946V11.79z M20.143,12.132h-0.909c-0.087-4.528-2.426-7.561-5.893-8.843v3.29
			c2.297,1.41,3.206,3.973,3.249,7.262l-0.087,1.196l3.336,0.043c1.689,0.086,2.859,1.153,2.859,2.264v1.88h-9.357v2.991h10.917
			c0.736,0,1.257-0.215,1.257-1.068v-3.803C25.515,14.695,22.872,12.132,20.143,12.132z"/>
	</g>
</g>
</svg>
