<?xml version="1.0" encoding="utf-8"?>
<!-- Generator: Adobe Illustrator 13.0.0, SVG Export Plug-In . SVG Version: 6.00 Build 14948)  -->
<!DOCTYPE svg PUBLIC "-//W3C//DTD SVG 1.1//EN" "http://www.w3.org/Graphics/SVG/1.1/DTD/svg11.dtd">
<svg version="1.1" id="Layer_1" xmlns="http://www.w3.org/2000/svg" xmlns:xlink="http://www.w3.org/1999/xlink" x="0px" y="0px"
	 width="31.598px" height="10.148px" viewBox="0 0 31.598 10.148" enable-background="new 0 0 31.598 10.148" xml:space="preserve">
<g>
	<path fill="#7F7F7F" d="M30.364,0H1.282C0.571,0,0.001,0.582,0.001,1.311v7.574c0,0.681,0.569,1.264,1.281,1.264h29.081
		c0.711,0,1.233-0.583,1.233-1.264V1.312C31.597,0.583,31.075,0,30.364,0L30.364,0z M2.705,8.837c-0.616,0-1.091-0.535-1.091-1.166
		s0.475-1.116,1.091-1.116c0.617,0,1.139,0.485,1.139,1.116C3.845,8.303,3.323,8.837,2.705,8.837L2.705,8.837z M29.273,8.351h-6.357
		c-0.189,0-0.332-0.146-0.332-0.341c0-0.193,0.143-0.34,0.332-0.34h6.357c0.189,0,0.332,0.146,0.332,0.34
		C29.605,8.205,29.463,8.351,29.273,8.351L29.273,8.351z M29.273,7.089h-6.357c-0.189,0-0.332-0.146-0.332-0.34
		s0.143-0.34,0.332-0.34h6.357c0.189,0,0.332,0.146,0.332,0.34S29.463,7.089,29.273,7.089L29.273,7.089z M29.273,5.827h-6.357
		c-0.189,0-0.332-0.146-0.332-0.34c0-0.194,0.143-0.34,0.332-0.34h6.357c0.189,0,0.332,0.146,0.332,0.34
		C29.605,5.68,29.463,5.827,29.273,5.827L29.273,5.827z"/>
</g>
</svg>
