<?xml version="1.0" encoding="utf-8"?>
<!-- Generator: Adobe Illustrator 13.0.0, SVG Export Plug-In . SVG Version: 6.00 Build 14948)  -->
<!DOCTYPE svg PUBLIC "-//W3C//DTD SVG 1.1//EN" "http://www.w3.org/Graphics/SVG/1.1/DTD/svg11.dtd">
<svg version="1.1" id="Layer_1" xmlns="http://www.w3.org/2000/svg" xmlns:xlink="http://www.w3.org/1999/xlink" x="0px" y="0px"
	 width="20.426px" height="27px" viewBox="0 0 20.426 27" enable-background="new 0 0 20.426 27" xml:space="preserve">
<g>
	<path fill="#969696" d="M11.096,13.424c-0.076-0.114-0.153-0.228-0.308-0.304c-0.114-0.076-0.268-0.115-0.421-0.115
		c-0.193,0-0.347,0.039-0.462,0.115c-0.153,0.076-0.268,0.19-0.345,0.304c-0.077,0.153-0.154,0.267-0.192,0.458
		C9.33,14.034,9.33,14.224,9.33,14.414c0,0.266,0.038,0.493,0.076,0.646c0.04,0.19,0.116,0.343,0.231,0.456
		c0.077,0.114,0.192,0.19,0.307,0.229c0.115,0.074,0.269,0.074,0.384,0.074c0.154,0,0.269,0,0.384-0.076
		c0.115-0.037,0.23-0.113,0.307-0.228c0.114-0.114,0.191-0.266,0.23-0.456c0.076-0.154,0.076-0.381,0.076-0.608
		c0-0.19,0-0.381-0.038-0.57C11.25,13.729,11.173,13.576,11.096,13.424"/>
	<path fill="#969696" d="M10.213,0C4.607,0,0,1.901,0,4.031v18.901C0,25.022,4.607,27,10.213,27c5.645,0,10.213-1.863,10.213-3.956
		V4.106C20.426,2.015,15.857,0,10.213,0L10.213,0z M7.179,15.896c-0.038,0.114-0.076,0.267-0.153,0.381
		c-0.078,0.114-0.192,0.266-0.308,0.38c-0.114,0.114-0.229,0.19-0.422,0.305c-0.191,0.076-0.384,0.152-0.615,0.19
		c-0.268,0.038-0.538,0.074-0.844,0.074c-0.191,0-0.346,0-0.499-0.038c-0.154,0-0.307-0.038-0.422-0.038
		c-0.154-0.039-0.269-0.075-0.384-0.115c-0.115-0.038-0.192-0.075-0.268-0.114v-1.483c0.076,0.076,0.191,0.153,0.307,0.229
		c0.115,0.039,0.23,0.115,0.384,0.153c0.116,0.076,0.269,0.114,0.423,0.152C4.492,16.01,4.646,16.01,4.8,16.01
		c0.114,0,0.191,0,0.268-0.039c0.076,0,0.115-0.038,0.192-0.075c0.039-0.039,0.039-0.076,0.077-0.114
		c0-0.075,0.038-0.113,0.038-0.153c0-0.075-0.038-0.151-0.077-0.228c-0.039-0.038-0.114-0.114-0.191-0.152
		c-0.077-0.039-0.154-0.076-0.269-0.153c-0.115-0.038-0.231-0.076-0.346-0.114c-0.231-0.111-0.422-0.188-0.615-0.34
		c-0.153-0.114-0.307-0.228-0.384-0.38c-0.115-0.114-0.192-0.265-0.23-0.418c-0.078-0.152-0.078-0.343-0.078-0.495
		c0-0.267,0.039-0.495,0.154-0.723s0.269-0.38,0.461-0.532c0.193-0.153,0.422-0.266,0.69-0.343c0.269-0.075,0.577-0.152,0.922-0.152
		c0.153,0,0.345,0.038,0.498,0.038c0.154,0,0.27,0.04,0.423,0.04c0.116,0.038,0.23,0.075,0.308,0.075
		c0.115,0.039,0.191,0.039,0.268,0.076v1.369c-0.077-0.038-0.153-0.076-0.268-0.115c-0.077-0.038-0.192-0.076-0.308-0.114
		c-0.115-0.038-0.269-0.076-0.384-0.114c-0.115,0-0.269-0.04-0.384-0.04c-0.192,0-0.346,0.04-0.461,0.115
		c-0.116,0.076-0.153,0.153-0.153,0.267c0,0.076,0,0.114,0.038,0.19c0,0.038,0.039,0.076,0.116,0.114
		c0.038,0.038,0.115,0.076,0.192,0.152c0.116,0.04,0.23,0.077,0.346,0.116c0.231,0.114,0.422,0.189,0.614,0.303
		c0.192,0.114,0.384,0.229,0.5,0.38c0.154,0.114,0.269,0.266,0.346,0.456c0.076,0.154,0.115,0.345,0.115,0.572
		C7.218,15.63,7.179,15.743,7.179,15.896L7.179,15.896z M11.326,18.52l-1.228-1.294c-0.346-0.038-0.653-0.113-0.961-0.229
		c-0.307-0.15-0.575-0.303-0.806-0.568c-0.23-0.229-0.422-0.495-0.575-0.837c-0.115-0.305-0.192-0.686-0.192-1.104
		s0.078-0.796,0.231-1.179c0.116-0.343,0.307-0.646,0.575-0.875c0.231-0.266,0.538-0.456,0.883-0.608
		c0.346-0.152,0.73-0.228,1.114-0.228c0.421,0,0.767,0.076,1.113,0.228c0.309,0.115,0.615,0.306,0.845,0.534
		c0.23,0.266,0.422,0.532,0.576,0.875c0.116,0.343,0.192,0.762,0.192,1.18c0,0.304-0.038,0.607-0.114,0.875
		c-0.077,0.266-0.193,0.492-0.309,0.721c-0.152,0.19-0.307,0.381-0.498,0.57c-0.192,0.152-0.384,0.267-0.615,0.381L13.4,18.52
		H11.326L11.326,18.52L11.326,18.52z M17.393,17.151h-3.531v-5.438h1.65v4.145h1.881V17.151L17.393,17.151z M10.213,5.895
		c-3.993,0-7.256-0.989-7.256-2.206c0-1.255,3.263-2.206,7.256-2.206c4.032,0,7.295,0.99,7.295,2.206
		C17.508,4.906,14.245,5.895,10.213,5.895L10.213,5.895z"/>
</g>
</svg>
