<?xml version="1.0" encoding="utf-8"?>
<!-- Generator: Adobe Illustrator 13.0.0, SVG Export Plug-In . SVG Version: 6.00 Build 14948)  -->
<!DOCTYPE svg PUBLIC "-//W3C//DTD SVG 1.1//EN" "http://www.w3.org/Graphics/SVG/1.1/DTD/svg11.dtd">
<svg version="1.1" id="Layer_1" xmlns="http://www.w3.org/2000/svg" xmlns:xlink="http://www.w3.org/1999/xlink" x="0px" y="0px"
	 width="32.436px" height="21.443px" viewBox="0 0 32.436 21.443" enable-background="new 0 0 32.436 21.443" xml:space="preserve">
<g>
	<path fill="#00ABEC" d="M2.566,11.039c-0.778,1.09-1.244,2.417-1.244,3.858c0,3.623,2.956,6.546,6.573,6.546l0,0l0,0H29.13l0,0
		c1.827-0.154,3.306-1.715,3.306-3.585c0-1.987-1.634-3.622-3.617-3.622c-0.155,0-0.272,0.038-0.429,0.038
		c0.195-0.818,0.35-1.676,0.35-2.532c0-1.325-0.271-2.611-0.777-3.74l-8.206,8.258c-0.311,0.272-0.584,0.429-0.972,0.468
		c-0.699,0.429-1.789,0.896-2.178,1.014h-0.039l-1.479,0.389c-0.155,0-0.271,0.039-0.389,0.039c-0.505,0-0.933-0.233-1.244-0.583
		c-0.311-0.39-0.389-0.897-0.311-1.404h0.039v-0.039l0.35-1.402c0.117-0.468,0.623-1.871,1.128-2.533
		c0.078-0.272,0.195-0.468,0.39-0.663l8.4-8.416c-1.322-0.624-2.762-1.013-4.317-1.013c-4.239,0-7.816,2.728-9.1,6.546v3.546
		l-6.611-1.091L2.566,11.039L2.566,11.039z"/>
	<path fill="#00ABEC" d="M14.818,15.013l-0.389,1.479c-0.039,0.235,0.117,0.39,0.351,0.351l1.478-0.39
		c0.233-0.039,0.272-0.234,0.117-0.429l-1.129-1.09C15.051,14.741,14.856,14.78,14.818,15.013L14.818,15.013z"/>
	<path fill="#00ABEC" d="M29.675,3.79c0.154,0.195,0.466,0.195,0.621,0c0.195-0.154,0.468-0.506,0.623-0.701
		c0,0,0.973-1.208-0.271-2.455c-1.245-1.246-2.489-0.272-2.489-0.272c-0.195,0.156-0.505,0.389-0.661,0.584
		c-0.194,0.195-0.194,0.467,0,0.662L29.675,3.79L29.675,3.79z"/>
	<path fill="#00ABEC" d="M15.983,13.143l2.178,2.183c0.194,0.154,0.467,0.154,0.661,0L28.934,5.155c0.194-0.156,0.194-0.468,0-0.662
		L26.756,2.35c-0.194-0.195-0.467-0.195-0.66,0L15.983,12.482C15.789,12.636,15.789,12.948,15.983,13.143L15.983,13.143z"/>
	<polygon fill="#00ABEC" points="4.084,6.284 8.751,6.284 8.751,2.115 4.084,2.778 	"/>
	<polygon fill="#00ABEC" points="0,3.362 3.578,2.817 3.578,6.284 0,6.284 	"/>
	<polygon fill="#00ABEC" points="3.578,6.908 0,6.908 0,9.753 3.578,10.26 	"/>
	<polygon fill="#00ABEC" points="4.084,6.908 8.751,6.908 8.751,11.078 4.084,10.299 	"/>
</g>
</svg>
