<?xml version="1.0" encoding="utf-8"?>
<!-- Generator: Adobe Illustrator 13.0.0, SVG Export Plug-In . SVG Version: 6.00 Build 14948)  -->
<!DOCTYPE svg PUBLIC "-//W3C//DTD SVG 1.1//EN" "http://www.w3.org/Graphics/SVG/1.1/DTD/svg11.dtd">
<svg version="1.1" id="Layer_1" xmlns="http://www.w3.org/2000/svg" xmlns:xlink="http://www.w3.org/1999/xlink" x="0px" y="0px"
	 width="30.311px" height="26.002px" viewBox="0 0 30.311 26.002" enable-background="new 0 0 30.311 26.002" xml:space="preserve">
<g id="XMLID_14_">
	<path fill="#00ABEC" d="M22.719,0H7.59L0,13.025l7.591,12.977H22.72l7.591-12.977L22.719,0L22.719,0z M14.43,6.835h3.496v3.466
		H14.43V6.835L14.43,6.835z M14.43,11.193h3.496v3.468H14.43V11.193L14.43,11.193z M14.43,15.552h3.496v3.467H14.43V15.552
		L14.43,15.552z M10.037,6.835h3.446v3.466h-3.446V6.835L10.037,6.835z M10.037,11.193h3.446v3.468h-3.446V11.193L10.037,11.193z
		 M10.037,15.552h3.446v3.467h-3.446V15.552L10.037,15.552z M22.271,20.9H7.989V6.736h0.949v13.223l0,0l0,0H22.27L22.271,20.9
		L22.271,20.9z M22.322,19.019h-3.495v-3.467h3.495V19.019L22.322,19.019z M22.322,14.661h-3.495v-3.468h3.495V14.661L22.322,14.661
		z M22.322,10.302h-3.495V6.835h3.495V10.302L22.322,10.302z"/>
</g>
</svg>
