<?xml version="1.0" encoding="utf-8"?>
<!-- Generator: Adobe Illustrator 13.0.0, SVG Export Plug-In . SVG Version: 6.00 Build 14948)  -->
<!DOCTYPE svg PUBLIC "-//W3C//DTD SVG 1.1//EN" "http://www.w3.org/Graphics/SVG/1.1/DTD/svg11.dtd">
<svg version="1.1" id="Layer_1" xmlns="http://www.w3.org/2000/svg" xmlns:xlink="http://www.w3.org/1999/xlink" x="0px" y="0px"
	 width="31.618px" height="27.646px" viewBox="0 0 31.618 27.646" enable-background="new 0 0 31.618 27.646" xml:space="preserve">
<g>
	<path fill="#7F7F7F" d="M25.37,17.456V9.2c0-4.955-4.401-9.2-9.561-9.2S6.295,4.246,6.295,9.2v8.256
		C1.278,19.437,0,22.362,0,22.362l0.095,0.047h31.476l0.047-0.047C31.618,22.362,30.387,19.437,25.37,17.456L25.37,17.456z
		 M7.431,17.031V9.2c0-4.342,3.834-8.067,8.378-8.067c4.591,0,8.426,3.727,8.426,8.067v7.831h-0.096
		c-0.141-0.047-0.283-0.096-0.426-0.142h-5.632c1.325-0.567,3.171-1.698,3.738-3.87c0-0.142-0.047-0.283-0.142-0.377
		c-0.142-0.095-0.331-0.047-0.426,0.047c-0.048,0.047-2.13,2.029-3.834,2.029c-0.047,0-0.047,0.047-0.047,0.047
		c0.661-1.178,1.467-2.358,2.365-4.056c1.752-3.397-0.662-6.889-3.975-6.982c-3.36-0.047-5.917,3.35-4.307,6.794
		c0.804,1.792,1.561,2.972,2.225,4.198c-1.752-0.047-3.788-1.981-3.834-2.027c-0.094-0.096-0.237-0.143-0.378-0.047
		c-0.142,0.094-0.237,0.236-0.189,0.377c0.568,2.17,2.414,3.303,3.739,3.87H7.952c-0.189,0.046-0.284,0.095-0.426,0.142H7.431
		V17.031L7.431,17.031z M19.122,10.049c0,0.236-1.799,2.5-3.408,2.453c-1.656-0.047-3.124-2.218-3.124-2.453
		C12.59,9.766,19.122,9.766,19.122,10.049L19.122,10.049z M16.33,8.492c0-0.659,0.709-1.556,1.088-1.556
		c0.332,0,0.852,0.991,0.852,1.651c0,0.566-0.52,0.708-0.852,0.708C17.039,9.294,16.33,9.106,16.33,8.492L16.33,8.492z
		 M14.341,9.294c-0.379,0-0.899-0.141-0.899-0.708c0-0.661,0.52-1.651,0.899-1.651c0.332,0,1.042,0.896,1.042,1.556
		C15.43,9.106,14.673,9.294,14.341,9.294L14.341,9.294z"/>
	<path fill="#7F7F7F" d="M15.809,27.646c8.755,0,13.631-3.207,14.2-4.341H1.657C2.224,24.437,7.052,27.646,15.809,27.646
		L15.809,27.646z"/>
</g>
</svg>
