<?xml version="1.0" encoding="utf-8"?>
<!-- Generator: Adobe Illustrator 13.0.0, SVG Export Plug-In . SVG Version: 6.00 Build 14948)  -->
<!DOCTYPE svg PUBLIC "-//W3C//DTD SVG 1.1//EN" "http://www.w3.org/Graphics/SVG/1.1/DTD/svg11.dtd">
<svg version="1.1" id="Layer_1" xmlns="http://www.w3.org/2000/svg" xmlns:xlink="http://www.w3.org/1999/xlink" x="0px" y="0px"
	 width="25.973px" height="26.611px" viewBox="0 0 25.973 26.611" enable-background="new 0 0 25.973 26.611" xml:space="preserve">
<g>
	<path fill="#7F7F7F" d="M12.604,0.177C8.784,1.119,6.589,5.266,7.638,9.46c1.051,4.195,4.966,6.835,8.785,5.891
		c3.772-0.942,6.016-5.089,4.966-9.283C20.338,1.874,16.375-0.718,12.604,0.177"/>
	<path fill="#7F7F7F" d="M20.768,16.435c-0.717-0.047-1.529,1.319-2.579,1.791c-1.05,0.471-2.195,1.461-5.251,0
		s-3.533-2.64-6.111-2.64c-2.579,0-6.731,4.478-6.828,11.027h25.973c-0.048,0-0.287-4.477-1.719-6.976
		C22.439,16.529,21.485,16.482,20.768,16.435L20.768,16.435z"/>
</g>
</svg>
