<?xml version="1.0" encoding="utf-8"?>
<!-- Generator: Adobe Illustrator 13.0.0, SVG Export Plug-In . SVG Version: 6.00 Build 14948)  -->
<!DOCTYPE svg PUBLIC "-//W3C//DTD SVG 1.1//EN" "http://www.w3.org/Graphics/SVG/1.1/DTD/svg11.dtd">
<svg version="1.1" id="Layer_1" xmlns="http://www.w3.org/2000/svg" xmlns:xlink="http://www.w3.org/1999/xlink" x="0px" y="0px"
	 width="24.348px" height="32.793px" viewBox="0 0 24.348 32.793" enable-background="new 0 0 24.348 32.793" xml:space="preserve">
<g>
	<path fill="#00ABEC" d="M13.624,12.559c0-0.813-0.673-1.424-1.451-1.424c-0.777,0-1.399,0.611-1.399,1.424
		c0,0.762,0.622,1.373,1.399,1.373C12.951,13.932,13.624,13.321,13.624,12.559"/>
	<path fill="#00ABEC" d="M12.692,15c0-0.305-0.259-0.509-0.518-0.509c-0.259,0-0.518,0.204-0.518,0.509
		c0,0.254,0.259,0.458,0.518,0.458C12.433,15.458,12.692,15.253,12.692,15"/>
	<path fill="#00ABEC" d="M10.205,12.559c0-0.305-0.208-0.508-0.466-0.508c-0.311,0-0.518,0.203-0.518,0.508
		c0,0.254,0.207,0.458,0.518,0.458C9.998,13.017,10.205,12.813,10.205,12.559"/>
	<path fill="#00ABEC" d="M10.102,13.932c-0.208,0.152-0.208,0.508,0,0.659c0.104,0.102,0.207,0.154,0.363,0.154
		c0.104,0,0.259-0.05,0.363-0.154c0.052-0.049,0.104-0.203,0.104-0.304c0-0.154-0.052-0.255-0.104-0.355
		C10.62,13.729,10.257,13.729,10.102,13.932"/>
	<path fill="#00ABEC" d="M10.465,11.338c0.104,0,0.259-0.05,0.363-0.152c0.052-0.102,0.104-0.205,0.104-0.356
		c0-0.153-0.052-0.254-0.104-0.355c-0.207-0.204-0.569-0.204-0.725,0c-0.208,0.203-0.208,0.508,0,0.713
		C10.205,11.288,10.309,11.338,10.465,11.338"/>
	<path fill="#00ABEC" d="M5.491,25.981c0-0.661-0.518-1.22-1.192-1.22c-0.725,0-1.243,0.559-1.243,1.22
		c0,0.66,0.518,1.219,1.243,1.219C4.973,27.201,5.491,26.642,5.491,25.981"/>
	<path fill="#00ABEC" d="M13.936,11.338c0.104,0,0.259-0.05,0.311-0.152c0.104-0.102,0.154-0.205,0.154-0.356
		c0-0.153-0.051-0.254-0.154-0.355c-0.155-0.204-0.519-0.204-0.674,0c-0.207,0.203-0.207,0.508,0,0.713
		C13.624,11.288,13.78,11.338,13.936,11.338"/>
	<path fill="#00ABEC" d="M12.692,10.119c0-0.254-0.259-0.509-0.518-0.509c-0.259,0-0.518,0.254-0.518,0.509
		c0,0.255,0.259,0.508,0.519,0.508S12.692,10.374,12.692,10.119"/>
	<path fill="#00ABEC" d="M13.21,22.015c-0.363,0-0.726,0.051-1.088,0.051c-0.569,0-1.192-0.051-1.709-0.153l0.88-1.729
		c0-0.049,0-0.1,0.053-0.151c0.104-0.255,0.156-0.56,0.156-0.864c0-1.221-0.985-2.237-2.279-2.237c-0.622,0-1.191,0.203-1.606,0.66
		l-1.969,1.983c-1.917-1.779-3.16-4.271-3.16-7.016C2.487,7.271,6.839,3,12.122,3c5.284,0,9.636,4.271,9.636,9.558
		c0,2.44-0.933,4.626-2.486,6.304c0.052,0,0.104,0,0.155,0c1.864,0,3.729,0.407,4.921,1.22V0.813c0-0.458-0.363-0.814-0.828-0.814
		H0.829C0.363-0.001,0,0.355,0,0.813v28.574C0,29.844,0.363,30.2,0.829,30.2h12.329v-8.033C13.158,22.117,13.21,22.066,13.21,22.015
		L13.21,22.015z M22.587,0.764c0.362,0,0.673,0.305,0.673,0.712c0,0.355-0.311,0.66-0.673,0.66c-0.415,0-0.726-0.305-0.726-0.66
		C21.862,1.069,22.171,0.764,22.587,0.764L22.587,0.764z M0.985,1.476c0-0.406,0.311-0.712,0.725-0.712
		c0.363,0,0.673,0.305,0.673,0.712c0,0.355-0.311,0.66-0.673,0.66C1.295,2.136,0.985,1.832,0.985,1.476L0.985,1.476z M6.682,27.302
		L6.682,27.302c-0.466,0.864-1.347,1.424-2.383,1.424c-1.554,0-2.797-1.22-2.797-2.745c0-0.763,0.363-1.475,0.829-1.933l5.905-5.847
		c0.259-0.255,0.623-0.458,0.985-0.458c0.776,0,1.451,0.661,1.451,1.424c0,0.203-0.052,0.406-0.156,0.609l0,0L6.735,27.2
		C6.735,27.252,6.682,27.252,6.682,27.302L6.682,27.302z"/>
	<path fill="#00ABEC" d="M13.572,13.932c-0.207,0.152-0.207,0.508,0,0.659c0.104,0.102,0.208,0.154,0.363,0.154
		c0.104,0,0.259-0.05,0.311-0.154c0.104-0.049,0.155-0.203,0.155-0.304c0-0.154-0.052-0.255-0.155-0.355
		C14.09,13.729,13.728,13.729,13.572,13.932"/>
	<path fill="#00ABEC" d="M12.122,8.084c-2.487,0-4.507,1.983-4.507,4.475c0,2.44,2.02,4.475,4.507,4.475s4.507-2.034,4.507-4.475
		C16.629,10.068,14.609,8.084,12.122,8.084L12.122,8.084z M12.174,16.118c-2.021,0-3.626-1.576-3.626-3.559
		c0-1.983,1.606-3.609,3.626-3.609c2.021,0,3.626,1.626,3.626,3.609C15.8,14.542,14.195,16.118,12.174,16.118L12.174,16.118z"/>
	<path fill="#00ABEC" d="M15.126,12.559c0-0.305-0.207-0.508-0.518-0.508c-0.259,0-0.466,0.203-0.466,0.508
		c0,0.254,0.207,0.508,0.466,0.508C14.919,13.067,15.126,12.813,15.126,12.559"/>
	<path fill="#00ABEC" d="M19.427,20.287c-2.643,0-4.818,0.915-4.818,1.882v8.744c0,0.966,2.176,1.882,4.818,1.882
		c2.642,0,4.766-0.864,4.766-1.831v-8.745C24.193,21.252,22.068,20.287,19.427,20.287L19.427,20.287z M19.374,23.033
		c-1.864,0-3.368-0.458-3.368-1.018c0-0.609,1.503-1.067,3.368-1.067c1.916,0,3.419,0.458,3.419,1.067
		C22.793,22.575,21.291,23.033,19.374,23.033L19.374,23.033z"/>
</g>
</svg>
