<?xml version="1.0" encoding="utf-8"?>
<!-- Generator: Adobe Illustrator 13.0.0, SVG Export Plug-In . SVG Version: 6.00 Build 14948)  -->
<!DOCTYPE svg PUBLIC "-//W3C//DTD SVG 1.1//EN" "http://www.w3.org/Graphics/SVG/1.1/DTD/svg11.dtd">
<svg version="1.1" id="Layer_1" xmlns="http://www.w3.org/2000/svg" xmlns:xlink="http://www.w3.org/1999/xlink" x="0px" y="0px"
	 width="29.719px" height="23.989px" viewBox="0 0 29.719 23.989" enable-background="new 0 0 29.719 23.989" xml:space="preserve">
<g>
	<path fill="#00ABEC" d="M11.036,16.31c0.782,1.389,1.956,2.3,3.215,2.473v-3.165C13.078,15.703,11.992,15.919,11.036,16.31
		L11.036,16.31z"/>
	<path fill="#00ABEC" d="M19.726,6.419c-0.564-0.521-1.129-0.912-1.781-1.258c0.479,0.477,0.869,0.998,1.217,1.605
		C19.378,6.68,19.553,6.549,19.726,6.419"/>
	<path fill="#00ABEC" d="M11.036,7.157c0.956,0.434,2.042,0.65,3.215,0.693V4.727C12.991,4.901,11.818,5.813,11.036,7.157
		L11.036,7.157z"/>
	<path fill="#00ABEC" d="M10.731,7.764c-0.478,1.042-0.739,2.256-0.825,3.557h4.345V8.545C12.991,8.501,11.775,8.241,10.731,7.764
		L10.731,7.764z"/>
	<path fill="#00ABEC" d="M9.906,12.102c0.044,1.345,0.347,2.56,0.826,3.601c1.043-0.435,2.259-0.695,3.519-0.738v-2.862H9.906
		L9.906,12.102L9.906,12.102z"/>
	<path fill="#00ABEC" d="M9.689,17.09c0.521,0.477,1.129,0.911,1.781,1.213c-0.479-0.432-0.869-0.996-1.217-1.603
		C10.037,16.831,9.863,16.961,9.689,17.09"/>
	<path fill="#00ABEC" d="M11.47,5.161c-0.652,0.347-1.26,0.738-1.781,1.259c0.173,0.129,0.347,0.215,0.564,0.347
		C10.601,6.159,10.992,5.638,11.47,5.161"/>
	<path fill="#00ABEC" d="M9.906,7.374C9.689,7.245,9.428,7.071,9.211,6.896c-1.129,1.301-1.738,2.863-1.825,4.424h1.607
		C9.081,9.89,9.385,8.501,9.906,7.374L9.906,7.374z"/>
	<path fill="#00ABEC" d="M8.994,12.102H7.386c0.087,1.604,0.695,3.21,1.825,4.468c0.217-0.173,0.479-0.302,0.695-0.478
		C9.385,14.964,9.038,13.578,8.994,12.102L8.994,12.102z"/>
	<path fill="#00ABEC" d="M18.683,15.703c0.478-1.041,0.739-2.257,0.782-3.601H15.12v2.862
		C16.424,15.008,17.641,15.269,18.683,15.703L18.683,15.703z"/>
	<path fill="#00ABEC" d="M19.465,16.092c0.261,0.176,0.521,0.305,0.739,0.478c1.129-1.258,1.738-2.819,1.824-4.468h-1.607
		C20.334,13.578,20.03,14.964,19.465,16.092L19.465,16.092z"/>
	<path fill="#00ABEC" d="M19.465,7.374c0.565,1.171,0.869,2.516,0.913,3.947h1.65c-0.087-1.562-0.695-3.123-1.824-4.424
		C19.986,7.071,19.726,7.244,19.465,7.374L19.465,7.374z"/>
	<path fill="#00ABEC" d="M18.336,7.157c-0.782-1.346-1.912-2.257-3.216-2.43V7.85C16.293,7.807,17.423,7.591,18.336,7.157
		L18.336,7.157z"/>
	<path fill="#00ABEC" d="M28.372-0.001H1.346c-0.738,0-1.347,0.695-1.347,1.519v20.954c0,0.867,0.608,1.519,1.347,1.519h27.026
		c0.738,0,1.348-0.651,1.348-1.519V1.518C29.719,0.693,29.11-0.001,28.372-0.001L28.372-0.001z M20.682,17.743
		c-1.651,1.647-3.823,2.472-5.996,2.472c-2.128,0-4.301-0.824-5.953-2.472c-1.651-1.692-2.477-3.818-2.477-5.988
		c0-2.17,0.826-4.338,2.477-5.986c1.651-1.648,3.824-2.475,5.953-2.475c2.173,0,4.345,0.826,5.996,2.475
		c1.651,1.648,2.477,3.774,2.477,5.9C23.158,13.838,22.376,16.05,20.682,17.743L20.682,17.743z"/>
	<path fill="#00ABEC" d="M19.465,11.321c-0.043-1.301-0.305-2.515-0.782-3.557c-1.043,0.478-2.259,0.738-3.563,0.78v2.777H19.465
		L19.465,11.321z"/>
	<path fill="#00ABEC" d="M18.336,16.31c-0.913-0.391-2.042-0.651-3.216-0.693v3.164C16.424,18.61,17.553,17.699,18.336,16.31
		L18.336,16.31z"/>
	<path fill="#00ABEC" d="M17.944,18.305c0.651-0.302,1.216-0.737,1.781-1.214c-0.173-0.13-0.348-0.261-0.565-0.391
		C18.813,17.307,18.422,17.872,17.944,18.305"/>
</g>
</svg>
