<?xml version="1.0" encoding="utf-8"?>
<!-- Generator: Adobe Illustrator 13.0.0, SVG Export Plug-In . SVG Version: 6.00 Build 14948)  -->
<!DOCTYPE svg PUBLIC "-//W3C//DTD SVG 1.1//EN" "http://www.w3.org/Graphics/SVG/1.1/DTD/svg11.dtd">
<svg version="1.1" id="Layer_1" xmlns="http://www.w3.org/2000/svg" xmlns:xlink="http://www.w3.org/1999/xlink" x="0px" y="0px"
	 width="28.75px" height="28.504px" viewBox="0 0 28.75 28.504" enable-background="new 0 0 28.75 28.504" xml:space="preserve">
<g id="XMLID_11_">
	<path fill="#00ABEC" d="M25.769,5.598C22.969,1.93,18.695,0,14.375,0C11.336,0,8.25,0.989,5.638,2.963
		c-6.315,4.798-7.502,13.688-2.659,19.945c2.801,3.668,7.075,5.597,11.396,5.597c3.039,0,6.125-0.941,8.737-2.963
		C29.426,20.792,30.613,11.854,25.769,5.598z M26.441,17.397c-0.501-0.374-1.217-0.919-2.117-1.637
		c0.325-0.836,0.229-1.808-0.358-2.542c-0.872-1.081-2.341-1.355-3.497-0.701c-1.274-1.127-2.674-2.417-4.146-3.862
		c4.502-2.391,7.679-2.131,7.82-2.118c0.052,0.064,0.105,0.125,0.155,0.19C26.723,9.894,27.377,13.835,26.441,17.397z M22.328,4.701
		c-1.901-0.278-4.929-0.224-8.333,1.556c-1.133-1.17-2.268-2.434-3.448-3.789c1.247-0.393,2.537-0.585,3.827-0.585
		C17.227,1.882,20.051,2.837,22.328,4.701z M12.238,7.338c-1.139,0.8-2.279,1.788-3.466,3.011c-0.154,0.153-0.3,0.31-0.44,0.467
		c-0.673-0.136-1.372-0.091-2.034,0.136C5.16,8.534,5.249,6.599,5.446,5.611c0.414-0.418,0.848-0.822,1.331-1.188
		c0.673-0.513,1.38-0.935,2.108-1.289C9.739,4.536,10.918,5.983,12.238,7.338 M14.612,9.69c1.554,1.43,3.208,2.782,4.773,3.99
		c-0.41,0.877-0.326,1.944,0.308,2.737c0.901,1.175,2.563,1.411,3.751,0.518c0.064-0.049,0.114-0.107,0.174-0.161
		c1.126,0.784,2.007,1.371,2.489,1.699c-0.35,0.963-0.82,1.886-1.411,2.748c-0.792,0.142-3.055,0.429-6.137-0.447
		c-0.074-0.342-0.213-0.674-0.434-0.971c-0.816-1.033-2.236-1.24-3.315-0.561c-1.081-0.578-2.212-1.3-3.38-2.215
		c-0.23-0.18-0.454-0.363-0.672-0.549c0.717-1.118,0.798-2.55,0.162-3.748c0.137-0.135,0.271-0.271,0.416-0.406
		C12.523,11.243,13.615,10.396,14.612,9.69 M4.054,7.279c-0.267,1.185-0.343,2.886,0.502,4.926c-0.997,1.317-1.038,3.17-0.01,4.542
		c0.089,0.113,0.194,0.206,0.293,0.307c-0.444,1.523-0.646,2.999-0.713,4.258C1.115,17.023,1.189,11.436,4.054,7.279z
		 M21.971,24.083c-2.278,1.74-4.938,2.54-7.597,2.54c-2.843,0-5.66-0.948-7.932-2.801c-0.073-1.377,0.034-3.414,0.857-5.639
		c0.584,0.04,1.173-0.051,1.729-0.278c0.328,0.285,0.671,0.573,1.025,0.863c1.224,0.955,2.446,1.697,3.635,2.283
		c-0.07,0.609,0.083,1.24,0.495,1.762c0.808,1.082,2.374,1.271,3.466,0.423c0.23-0.167,0.41-0.374,0.559-0.598
		c1.921,0.424,3.6,0.501,4.854,0.504C22.72,23.472,22.36,23.789,21.971,24.083z"/>
</g>
</svg>
