<?xml version="1.0" encoding="utf-8"?>
<!-- Generator: Adobe Illustrator 13.0.0, SVG Export Plug-In . SVG Version: 6.00 Build 14948)  -->
<!DOCTYPE svg PUBLIC "-//W3C//DTD SVG 1.1//EN" "http://www.w3.org/Graphics/SVG/1.1/DTD/svg11.dtd">
<svg version="1.1" id="Layer_1" xmlns="http://www.w3.org/2000/svg" xmlns:xlink="http://www.w3.org/1999/xlink" x="0px" y="0px"
	 width="33.266px" height="27.551px" viewBox="0 0 33.266 27.551" enable-background="new 0 0 33.266 27.551" xml:space="preserve">
<g>
	<path fill="#00ABEC" d="M19.402,11.275c-0.047-1.322-0.331-2.502-0.804-3.539c-1.042,0.425-2.272,0.708-3.55,0.755v2.784H19.402
		L19.402,11.275z"/>
	<path fill="#00ABEC" d="M18.266,7.124c-0.804-1.368-1.94-2.265-3.217-2.453v3.161C16.232,7.784,17.321,7.548,18.266,7.124
		L18.266,7.124z"/>
	<path fill="#00ABEC" d="M19.639,6.369c-0.567-0.518-1.136-0.896-1.798-1.227c0.473,0.472,0.899,0.992,1.23,1.605
		C19.261,6.604,19.449,6.51,19.639,6.369"/>
	<path fill="#00ABEC" d="M18.266,16.229c-0.945-0.425-2.034-0.661-3.217-0.709v3.114C16.326,18.493,17.462,17.597,18.266,16.229
		L18.266,16.229z"/>
	<path fill="#00ABEC" d="M15.049,14.86c1.277,0.046,2.508,0.283,3.55,0.755c0.425-0.991,0.709-2.218,0.804-3.491h-4.354V14.86
		L15.049,14.86z"/>
	<path fill="#00ABEC" d="M20.113,6.84c-0.238,0.189-0.475,0.331-0.711,0.472c0.521,1.179,0.852,2.5,0.899,3.963h1.608
		C21.816,9.671,21.199,8.114,20.113,6.84L20.113,6.84z"/>
	<path fill="#00ABEC" d="M17.84,18.21c0.662-0.331,1.23-0.755,1.798-1.227c-0.188-0.142-0.377-0.283-0.567-0.378
		C18.74,17.219,18.313,17.738,17.84,18.21"/>
	<path fill="#00ABEC" d="M19.402,15.993c0.236,0.142,0.473,0.33,0.711,0.472c1.087-1.227,1.655-2.783,1.798-4.34h-1.609
		C20.254,13.54,19.923,14.86,19.402,15.993L19.402,15.993z"/>
	<path fill="#00ABEC" d="M9.181,16.464c0.189-0.142,0.426-0.33,0.71-0.472c-0.567-1.133-0.852-2.452-0.899-3.869H7.336
		C7.43,13.681,8.046,15.238,9.181,16.464L9.181,16.464z"/>
	<path fill="#00ABEC" d="M9.891,7.313c-0.284-0.142-0.52-0.283-0.71-0.472c-1.135,1.274-1.75,2.831-1.845,4.435h1.609
		C9.039,9.813,9.323,8.492,9.891,7.313L9.891,7.313z"/>
	<path fill="#00ABEC" d="M10.979,7.124c0.947,0.425,2.082,0.661,3.218,0.708V4.67C12.919,4.859,11.783,5.755,10.979,7.124
		L10.979,7.124z"/>
	<path fill="#00ABEC" d="M11.406,5.142c-0.615,0.33-1.231,0.709-1.75,1.227c0.142,0.142,0.332,0.237,0.52,0.331
		C10.552,6.133,10.931,5.567,11.406,5.142"/>
	<path fill="#00ABEC" d="M31.704,3.255h-0.188c0-0.943-0.71-1.747-1.562-1.747h-0.427c0-0.518-0.236-0.942-0.567-1.227
		c0,0,0-0.046-0.048-0.046c-0.047-0.047-0.094-0.096-0.142-0.096c-0.047-0.046-0.095-0.046-0.142-0.046s-0.095-0.047-0.143-0.047
		C28.44,0.047,28.345,0,28.25,0H1.326C0.616,0,0,0.708,0,1.509v20.852c0,0.803,0.616,1.51,1.326,1.51h0.189v0.189l0,0
		c0,0.99,0.71,1.745,1.562,1.745h0.189c0,0.943,0.71,1.747,1.514,1.747h26.925c0.852,0,1.562-0.802,1.562-1.747V5
		C33.267,4.01,32.556,3.255,31.704,3.255L31.704,3.255z M8.66,5.755c1.656-1.651,3.833-2.5,5.962-2.5c2.177,0,4.305,0.849,5.962,2.5
		c1.608,1.605,2.461,3.727,2.461,5.85c0,2.17-0.805,4.342-2.461,5.993c-1.657,1.65-3.786,2.452-5.962,2.452
		c-2.129,0-4.306-0.801-5.962-2.452c-1.608-1.652-2.46-3.775-2.46-5.945C6.2,9.53,7.052,7.359,8.66,5.755L8.66,5.755z M3.503,25.333
		H3.077c-0.615,0-1.088-0.566-1.088-1.272l0,0v-0.188H28.25c0.711,0,1.278-0.708,1.278-1.558V1.982h0.427
		c0.615,0,1.088,0.566,1.088,1.274v20.805c0,0.708-0.474,1.272-1.088,1.272H3.503L3.503,25.333L3.503,25.333z M32.793,25.805
		c0,0.709-0.473,1.273-1.089,1.273H4.78c-0.568,0-1.041-0.565-1.041-1.273h26.215c0.853,0,1.562-0.755,1.562-1.745V3.727h0.188
		c0.616,0,1.089,0.566,1.089,1.272V25.805L32.793,25.805z"/>
	<path fill="#00ABEC" d="M9.891,12.124c0.048,1.272,0.332,2.5,0.805,3.491c1.041-0.472,2.224-0.709,3.502-0.755v-2.736H9.891
		L9.891,12.124z"/>
	<path fill="#00ABEC" d="M10.979,16.229c0.805,1.368,1.94,2.264,3.218,2.405V15.52C13.061,15.568,11.926,15.804,10.979,16.229
		L10.979,16.229z"/>
	<path fill="#00ABEC" d="M14.198,8.492c-1.278-0.047-2.46-0.33-3.502-0.755c-0.473,1.038-0.757,2.218-0.805,3.539h4.307V8.492
		L14.198,8.492z"/>
	<path fill="#00ABEC" d="M9.654,16.984c0.52,0.472,1.088,0.896,1.75,1.227c-0.473-0.473-0.852-0.992-1.23-1.605
		C9.986,16.701,9.796,16.842,9.654,16.984"/>
</g>
</svg>
