<?xml version="1.0" encoding="utf-8"?>
<!-- Generator: Adobe Illustrator 13.0.0, SVG Export Plug-In . SVG Version: 6.00 Build 14948)  -->
<!DOCTYPE svg PUBLIC "-//W3C//DTD SVG 1.1//EN" "http://www.w3.org/Graphics/SVG/1.1/DTD/svg11.dtd">
<svg version="1.1" id="Layer_1" xmlns="http://www.w3.org/2000/svg" xmlns:xlink="http://www.w3.org/1999/xlink" x="0px" y="0px"
	 width="33.344px" height="27.473px" viewBox="0 0 33.344 27.473" enable-background="new 0 0 33.344 27.473" xml:space="preserve">
<g>
	<path fill="#00ABEC" d="M16.459,14.49c1.803-0.894,2.467-3.011,1.564-4.799c-0.901-1.741-3.083-2.446-4.837-1.552
		c-1.755,0.939-2.467,3.057-1.565,4.845C12.522,14.726,14.704,15.431,16.459,14.49L16.459,14.49z M14.229,10.161
		c0.665-0.329,1.423-0.047,1.756,0.565c0.332,0.659,0.094,1.458-0.57,1.788c-0.617,0.33-1.423,0.047-1.754-0.565
		C13.329,11.29,13.566,10.491,14.229,10.161L14.229,10.161z"/>
	<path fill="#00ABEC" d="M31.779,3.246H31.59c0-0.94-0.712-1.742-1.565-1.742h-0.427C29.598,0.706,29.028,0,28.316,0H1.328
		C0.616,0,0,0.706,0,1.504v20.794c0,0.8,0.617,1.506,1.328,1.506h0.189v0.188c0,0.988,0.712,1.741,1.565,1.741h0.19
		c0,0.94,0.711,1.74,1.518,1.74h26.989c0.854,0,1.565-0.799,1.565-1.74V4.986C33.345,3.999,32.634,3.246,31.779,3.246L31.779,3.246z
		 M7.542,8.563L8.87,6.397l1.897,0.801c0.285-0.283,0.617-0.517,0.949-0.753l-0.285-2.069l2.467-0.658l0.854,1.882
		c0.521,0,0.996,0.047,1.47,0.188l1.375-1.694l2.183,1.364l-0.807,1.928c0.284,0.33,0.569,0.658,0.759,1.036l2.229-0.237l0.57,2.448
		l-1.944,0.847c0,0.423-0.047,0.848-0.143,1.271l1.661,1.364l-1.329,2.165l-1.945-0.801c-0.284,0.329-0.663,0.564-1.042,0.8
		l0.236,2.117l-2.514,0.61l-0.759-1.882c-0.474,0-0.949-0.048-1.375-0.188l-1.328,1.646l-2.182-1.362l0.76-1.835
		c-0.332-0.33-0.617-0.706-0.854-1.083L7.686,14.49l-0.569-2.494l1.85-0.752c0-0.47,0.095-0.894,0.189-1.364L7.542,8.563
		L7.542,8.563z M3.51,25.263H3.083c-0.617,0-1.09-0.564-1.09-1.271l0,0v-0.188h26.323c0.712,0,1.281-0.706,1.281-1.505V1.976h0.428
		c0.616,0,1.091,0.566,1.091,1.271v20.748c0,0.705-0.475,1.271-1.091,1.271L3.51,25.263L3.51,25.263L3.51,25.263z M32.87,25.734
		c0,0.706-0.475,1.271-1.091,1.271H4.791c-0.569,0-1.043-0.565-1.043-1.271h26.277c0.854,0,1.565-0.753,1.565-1.741V3.716h0.189
		c0.616,0,1.091,0.565,1.091,1.271V25.734L32.87,25.734L32.87,25.734z"/>
</g>
</svg>
