<?xml version="1.0" encoding="utf-8"?>
<!-- Generator: Adobe Illustrator 13.0.0, SVG Export Plug-In . SVG Version: 6.00 Build 14948)  -->
<!DOCTYPE svg PUBLIC "-//W3C//DTD SVG 1.1//EN" "http://www.w3.org/Graphics/SVG/1.1/DTD/svg11.dtd">
<svg version="1.1" id="Layer_1" xmlns="http://www.w3.org/2000/svg" xmlns:xlink="http://www.w3.org/1999/xlink" x="0px" y="0px"
	 width="29.625px" height="23.869px" viewBox="0 0 29.625 23.869" enable-background="new 0 0 29.625 23.869" xml:space="preserve">
<g>
	<path fill="#00ABEC" d="M13.15,8.727c-1.757,0.896-2.468,3.066-1.567,4.812c0.903,1.792,3.087,2.452,4.843,1.557
		c1.804-0.896,2.517-3.019,1.567-4.812C17.091,8.538,14.954,7.831,13.15,8.727L13.15,8.727z M15.382,13.114
		c-0.617,0.33-1.424,0.047-1.756-0.566c-0.333-0.66-0.095-1.462,0.57-1.792c0.665-0.331,1.472-0.047,1.805,0.566
		C16.332,11.982,16.046,12.784,15.382,13.114L15.382,13.114z"/>
	<path fill="#00ABEC" d="M28.343,0H1.33C0.618,0,0,0.708,0,1.557V22.36c0,0.801,0.618,1.509,1.33,1.509h27.013
		c0.712,0,1.282-0.708,1.282-1.509V1.557C29.624,0.708,29.055,0,28.343,0L28.343,0z M22.123,14.671l-1.376,2.217l-1.899-0.802
		c-0.332,0.283-0.665,0.565-1.092,0.802l0.237,2.122l-2.517,0.613l-0.759-1.886c-0.475,0-0.95-0.048-1.377-0.189l-1.329,1.651
		l-2.184-1.368l0.76-1.84c-0.333-0.33-0.617-0.708-0.855-1.084l-2.041,0.188l-0.618-2.501l1.852-0.754
		c0-0.472,0.095-0.943,0.19-1.368L7.502,9.15l1.329-2.168l1.899,0.802c0.285-0.285,0.618-0.519,0.95-0.754l-0.284-2.077l2.516-0.659
		l0.854,1.887c0.475,0,0.949,0.047,1.472,0.188l1.33-1.698l2.23,1.368L18.99,7.972c0.285,0.283,0.521,0.661,0.76,1.038l2.184-0.283
		l0.617,2.502l-1.994,0.801c0,0.471-0.047,0.896-0.142,1.322L22.123,14.671L22.123,14.671z"/>
</g>
</svg>
